%TF.GenerationSoftware,KiCad,Pcbnew,9.0.4*%
%TF.CreationDate,2025-10-03T18:09:38+02:00*%
%TF.ProjectId,LoraHarvesterBox,4c6f7261-4861-4727-9665-73746572426f,rev?*%
%TF.SameCoordinates,Original*%
%TF.FileFunction,Profile,NP*%
%FSLAX46Y46*%
G04 Gerber Fmt 4.6, Leading zero omitted, Abs format (unit mm)*
G04 Created by KiCad (PCBNEW 9.0.4) date 2025-10-03 18:09:38*
%MOMM*%
%LPD*%
G01*
G04 APERTURE LIST*
%TA.AperFunction,Profile*%
%ADD10C,0.050000*%
%TD*%
G04 APERTURE END LIST*
D10*
X112000000Y-100000000D02*
G75*
G02*
X110000000Y-98000000I0J2000000D01*
G01*
X115500000Y-56500000D02*
G75*
G02*
X117500000Y-54500000I2000000J0D01*
G01*
X139000000Y-98000000D02*
X139000000Y-81000000D01*
X101000000Y-87000000D02*
X101000000Y-63000000D01*
X132500000Y-61000000D02*
G75*
G02*
X130500000Y-59000000I0J2000000D01*
G01*
X112000000Y-100000000D02*
X137000000Y-100000000D01*
X117500000Y-54500000D02*
X123000000Y-54500000D01*
X108000000Y-89000000D02*
X103000000Y-89000000D01*
X128500000Y-54500000D02*
G75*
G02*
X130500000Y-56500000I0J-2000000D01*
G01*
X149000000Y-77000000D02*
G75*
G02*
X147000000Y-79000000I-2000000J0D01*
G01*
X147000000Y-61000000D02*
G75*
G02*
X149000000Y-63000000I0J-2000000D01*
G01*
X115500000Y-59000000D02*
X115500000Y-56500000D01*
X103000000Y-61000000D02*
X113500000Y-61000000D01*
X101000000Y-63000000D02*
G75*
G02*
X103000000Y-61000000I2000000J0D01*
G01*
X115500000Y-59000000D02*
G75*
G02*
X113500000Y-61000000I-2000000J0D01*
G01*
X110000000Y-98000000D02*
X110000000Y-91000000D01*
X123000000Y-54500000D02*
X128500000Y-54500000D01*
X147000000Y-61000000D02*
X132500000Y-61000000D01*
X141000000Y-79000000D02*
X147000000Y-79000000D01*
X103000000Y-89000000D02*
G75*
G02*
X101000000Y-87000000I0J2000000D01*
G01*
X108000000Y-89000000D02*
G75*
G02*
X110000000Y-91000000I0J-2000000D01*
G01*
X149000000Y-77000000D02*
X149000000Y-63000000D01*
X130500000Y-56500000D02*
X130500000Y-59000000D01*
X139000000Y-81000000D02*
G75*
G02*
X141000000Y-79000000I2000000J0D01*
G01*
X139000000Y-98000000D02*
G75*
G02*
X137000000Y-100000000I-2000000J0D01*
G01*
M02*
