%TF.GenerationSoftware,KiCad,Pcbnew,9.0.4*%
%TF.CreationDate,2025-10-03T18:01:33+02:00*%
%TF.ProjectId,LoraHarvesterBox,4c6f7261-4861-4727-9665-73746572426f,rev?*%
%TF.SameCoordinates,Original*%
%TF.FileFunction,Copper,L1,Top*%
%TF.FilePolarity,Positive*%
%FSLAX46Y46*%
G04 Gerber Fmt 4.6, Leading zero omitted, Abs format (unit mm)*
G04 Created by KiCad (PCBNEW 9.0.4) date 2025-10-03 18:01:33*
%MOMM*%
%LPD*%
G01*
G04 APERTURE LIST*
G04 Aperture macros list*
%AMRoundRect*
0 Rectangle with rounded corners*
0 $1 Rounding radius*
0 $2 $3 $4 $5 $6 $7 $8 $9 X,Y pos of 4 corners*
0 Add a 4 corners polygon primitive as box body*
4,1,4,$2,$3,$4,$5,$6,$7,$8,$9,$2,$3,0*
0 Add four circle primitives for the rounded corners*
1,1,$1+$1,$2,$3*
1,1,$1+$1,$4,$5*
1,1,$1+$1,$6,$7*
1,1,$1+$1,$8,$9*
0 Add four rect primitives between the rounded corners*
20,1,$1+$1,$2,$3,$4,$5,0*
20,1,$1+$1,$4,$5,$6,$7,0*
20,1,$1+$1,$6,$7,$8,$9,0*
20,1,$1+$1,$8,$9,$2,$3,0*%
G04 Aperture macros list end*
%TA.AperFunction,Conductor*%
%ADD10C,0.254000*%
%TD*%
%TA.AperFunction,ComponentPad*%
%ADD11RoundRect,0.250000X-0.350000X-0.625000X0.350000X-0.625000X0.350000X0.625000X-0.350000X0.625000X0*%
%TD*%
%TA.AperFunction,ComponentPad*%
%ADD12O,1.200000X1.750000*%
%TD*%
%TA.AperFunction,SMDPad,CuDef*%
%ADD13O,1.950000X0.570000*%
%TD*%
%TA.AperFunction,SMDPad,CuDef*%
%ADD14RoundRect,0.237500X-0.250000X-0.237500X0.250000X-0.237500X0.250000X0.237500X-0.250000X0.237500X0*%
%TD*%
%TA.AperFunction,SMDPad,CuDef*%
%ADD15RoundRect,0.237500X0.250000X0.237500X-0.250000X0.237500X-0.250000X-0.237500X0.250000X-0.237500X0*%
%TD*%
%TA.AperFunction,SMDPad,CuDef*%
%ADD16RoundRect,0.237500X0.237500X-0.300000X0.237500X0.300000X-0.237500X0.300000X-0.237500X-0.300000X0*%
%TD*%
%TA.AperFunction,SMDPad,CuDef*%
%ADD17RoundRect,0.237500X-0.237500X0.300000X-0.237500X-0.300000X0.237500X-0.300000X0.237500X0.300000X0*%
%TD*%
%TA.AperFunction,SMDPad,CuDef*%
%ADD18RoundRect,0.237500X-0.237500X0.250000X-0.237500X-0.250000X0.237500X-0.250000X0.237500X0.250000X0*%
%TD*%
%TA.AperFunction,SMDPad,CuDef*%
%ADD19RoundRect,0.237500X0.237500X-0.250000X0.237500X0.250000X-0.237500X0.250000X-0.237500X-0.250000X0*%
%TD*%
%TA.AperFunction,SMDPad,CuDef*%
%ADD20RoundRect,0.237500X-0.300000X-0.237500X0.300000X-0.237500X0.300000X0.237500X-0.300000X0.237500X0*%
%TD*%
%TA.AperFunction,SMDPad,CuDef*%
%ADD21RoundRect,0.200000X0.200000X0.275000X-0.200000X0.275000X-0.200000X-0.275000X0.200000X-0.275000X0*%
%TD*%
%TA.AperFunction,SMDPad,CuDef*%
%ADD22R,2.220000X1.470000*%
%TD*%
%TA.AperFunction,ComponentPad*%
%ADD23R,1.700000X1.700000*%
%TD*%
%TA.AperFunction,ComponentPad*%
%ADD24C,1.700000*%
%TD*%
%TA.AperFunction,ComponentPad*%
%ADD25RoundRect,0.250000X-0.625000X0.350000X-0.625000X-0.350000X0.625000X-0.350000X0.625000X0.350000X0*%
%TD*%
%TA.AperFunction,ComponentPad*%
%ADD26O,1.750000X1.200000*%
%TD*%
%TA.AperFunction,ComponentPad*%
%ADD27C,0.900000*%
%TD*%
%TA.AperFunction,SMDPad,CuDef*%
%ADD28R,1.500000X0.700000*%
%TD*%
%TA.AperFunction,SMDPad,CuDef*%
%ADD29R,0.800000X1.000000*%
%TD*%
%TA.AperFunction,SMDPad,CuDef*%
%ADD30RoundRect,0.237500X0.300000X0.237500X-0.300000X0.237500X-0.300000X-0.237500X0.300000X-0.237500X0*%
%TD*%
%TA.AperFunction,ComponentPad*%
%ADD31RoundRect,0.250000X-0.265000X-0.615000X0.265000X-0.615000X0.265000X0.615000X-0.265000X0.615000X0*%
%TD*%
%TA.AperFunction,ComponentPad*%
%ADD32O,1.030000X1.730000*%
%TD*%
%TA.AperFunction,SMDPad,CuDef*%
%ADD33R,1.230000X1.360000*%
%TD*%
%TA.AperFunction,SMDPad,CuDef*%
%ADD34R,1.800000X0.800000*%
%TD*%
%TA.AperFunction,SMDPad,CuDef*%
%ADD35R,0.800000X1.800000*%
%TD*%
%TA.AperFunction,SMDPad,CuDef*%
%ADD36R,1.470000X2.220000*%
%TD*%
%TA.AperFunction,SMDPad,CuDef*%
%ADD37RoundRect,0.300000X2.700000X-0.700000X2.700000X0.700000X-2.700000X0.700000X-2.700000X-0.700000X0*%
%TD*%
%TA.AperFunction,SMDPad,CuDef*%
%ADD38RoundRect,0.237500X0.287500X0.237500X-0.287500X0.237500X-0.287500X-0.237500X0.287500X-0.237500X0*%
%TD*%
%TA.AperFunction,SMDPad,CuDef*%
%ADD39RoundRect,0.250000X-0.337500X-0.475000X0.337500X-0.475000X0.337500X0.475000X-0.337500X0.475000X0*%
%TD*%
%TA.AperFunction,SMDPad,CuDef*%
%ADD40RoundRect,0.250000X0.475000X-0.337500X0.475000X0.337500X-0.475000X0.337500X-0.475000X-0.337500X0*%
%TD*%
%TA.AperFunction,SMDPad,CuDef*%
%ADD41RoundRect,0.062500X-0.375000X-0.062500X0.375000X-0.062500X0.375000X0.062500X-0.375000X0.062500X0*%
%TD*%
%TA.AperFunction,SMDPad,CuDef*%
%ADD42RoundRect,0.062500X-0.062500X-0.375000X0.062500X-0.375000X0.062500X0.375000X-0.062500X0.375000X0*%
%TD*%
%TA.AperFunction,HeatsinkPad*%
%ADD43R,2.000000X2.000000*%
%TD*%
%TA.AperFunction,ViaPad*%
%ADD44C,0.450000*%
%TD*%
%TA.AperFunction,ViaPad*%
%ADD45C,0.600000*%
%TD*%
%TA.AperFunction,ViaPad*%
%ADD46C,0.500000*%
%TD*%
%TA.AperFunction,ViaPad*%
%ADD47C,1.000000*%
%TD*%
%TA.AperFunction,Conductor*%
%ADD48C,0.700000*%
%TD*%
%TA.AperFunction,Conductor*%
%ADD49C,0.250000*%
%TD*%
%TA.AperFunction,Conductor*%
%ADD50C,0.600000*%
%TD*%
%TA.AperFunction,Conductor*%
%ADD51C,0.500000*%
%TD*%
%TA.AperFunction,Conductor*%
%ADD52C,1.000000*%
%TD*%
%TA.AperFunction,Conductor*%
%ADD53C,0.508000*%
%TD*%
G04 APERTURE END LIST*
D10*
%TO.N,Net-(U1-LBUCK)*%
X133080000Y-88200000D02*
X133060000Y-91490000D01*
X131630000Y-92020000D01*
X131100000Y-92230000D01*
X130733750Y-92330000D01*
X130664775Y-92330000D01*
X130660000Y-88153750D01*
X133080000Y-88200000D01*
%TA.AperFunction,Conductor*%
G36*
X133080000Y-88200000D02*
G01*
X133060000Y-91490000D01*
X131630000Y-92020000D01*
X131100000Y-92230000D01*
X130733750Y-92330000D01*
X130664775Y-92330000D01*
X130660000Y-88153750D01*
X133080000Y-88200000D01*
G37*
%TD.AperFunction*%
%TO.N,+3V0*%
X136603785Y-93214219D02*
X131010000Y-93260000D01*
X131010000Y-93173548D01*
X132568429Y-93186116D01*
X134350206Y-92365101D01*
X134354801Y-92376937D01*
X134456541Y-88284750D01*
X136633750Y-88220000D01*
X136603785Y-93214219D01*
%TA.AperFunction,Conductor*%
G36*
X136603785Y-93214219D02*
G01*
X131010000Y-93260000D01*
X131010000Y-93173548D01*
X132568429Y-93186116D01*
X134350206Y-92365101D01*
X134354801Y-92376937D01*
X134456541Y-88284750D01*
X136633750Y-88220000D01*
X136603785Y-93214219D01*
G37*
%TD.AperFunction*%
%TO.N,Net-(U1-LBOOST)*%
X123473578Y-89027718D02*
X126289843Y-89043968D01*
X126329843Y-90963968D01*
X128042278Y-91517169D01*
X128579843Y-91533968D01*
X128659843Y-91543968D01*
X128709843Y-91563968D01*
X128699843Y-92343968D01*
X127280000Y-91840000D01*
X126240000Y-91520000D01*
X123080000Y-91480000D01*
X123079843Y-89023968D01*
X123473578Y-89027718D01*
%TA.AperFunction,Conductor*%
G36*
X123473578Y-89027718D02*
G01*
X126289843Y-89043968D01*
X126329843Y-90963968D01*
X128042278Y-91517169D01*
X128579843Y-91533968D01*
X128659843Y-91543968D01*
X128709843Y-91563968D01*
X128699843Y-92343968D01*
X127280000Y-91840000D01*
X126240000Y-91520000D01*
X123080000Y-91480000D01*
X123079843Y-89023968D01*
X123473578Y-89027718D01*
G37*
%TD.AperFunction*%
%TO.N,/VSOLAR*%
X126120000Y-92460000D02*
X126973534Y-93149245D01*
X128371681Y-93205423D01*
X128371681Y-93295423D01*
X126321681Y-93315423D01*
X126331681Y-94319173D01*
X123131681Y-94325423D01*
X123162713Y-92445490D01*
X126120000Y-92460000D01*
%TA.AperFunction,Conductor*%
G36*
X126120000Y-92460000D02*
G01*
X126973534Y-93149245D01*
X128371681Y-93205423D01*
X128371681Y-93295423D01*
X126321681Y-93315423D01*
X126331681Y-94319173D01*
X123131681Y-94325423D01*
X123162713Y-92445490D01*
X126120000Y-92460000D01*
G37*
%TD.AperFunction*%
%TD*%
D11*
%TO.P,J5,1,Pin_1*%
%TO.N,GND*%
X139240000Y-69560000D03*
D12*
%TO.P,J5,2,Pin_2*%
%TO.N,+3V0*%
X141240000Y-69560000D03*
%TO.P,J5,3,Pin_3*%
%TO.N,/U1_RX*%
X143240000Y-69560000D03*
%TO.P,J5,4,Pin_4*%
%TO.N,/U1_TX*%
X145240000Y-69560000D03*
%TD*%
D13*
%TO.P,U3,1,NC*%
%TO.N,GND*%
X110440000Y-64104995D03*
%TO.P,U3,2,A1*%
X110440000Y-65384995D03*
%TO.P,U3,3,A2*%
X110440000Y-66644995D03*
%TO.P,U3,4,VSS*%
X110440000Y-67914995D03*
%TO.P,U3,5,SDA*%
%TO.N,/SDA*%
X115860000Y-67914995D03*
%TO.P,U3,6,SCL*%
%TO.N,/SCL*%
X115860000Y-66644995D03*
%TO.P,U3,7,WP*%
%TO.N,GND*%
X115860000Y-65384995D03*
%TO.P,U3,8,VDD*%
%TO.N,+3V0*%
X115860000Y-64104995D03*
%TD*%
D14*
%TO.P,R8,1*%
%TO.N,Net-(R8-Pad1)*%
X112095000Y-73250000D03*
%TO.P,R8,2*%
%TO.N,/RST*%
X113920000Y-73250000D03*
%TD*%
D15*
%TO.P,R9,1*%
%TO.N,Net-(U2-PA8)*%
X113922500Y-71710000D03*
%TO.P,R9,2*%
%TO.N,Net-(D1-A)*%
X112097500Y-71710000D03*
%TD*%
D14*
%TO.P,R7,1*%
%TO.N,Net-(R7-Pad1)*%
X112067500Y-74810000D03*
%TO.P,R7,2*%
%TO.N,/BOOT*%
X113892500Y-74810000D03*
%TD*%
D16*
%TO.P,C4,1*%
%TO.N,/VSTOR*%
X127880000Y-90340000D03*
%TO.P,C4,2*%
%TO.N,GND*%
X127880000Y-88615000D03*
%TD*%
D17*
%TO.P,C2,1*%
%TO.N,Net-(U1-VREF_SAMP)*%
X126480000Y-95360000D03*
%TO.P,C2,2*%
%TO.N,GND*%
X126480000Y-97085000D03*
%TD*%
D11*
%TO.P,J4,1,Pin_1*%
%TO.N,GND*%
X139200000Y-63930000D03*
D12*
%TO.P,J4,2,Pin_2*%
%TO.N,+3V0*%
X141200000Y-63930000D03*
%TO.P,J4,3,Pin_3*%
%TO.N,/SWCLK*%
X143200000Y-63930000D03*
%TO.P,J4,4,Pin_4*%
%TO.N,/SWDIO*%
X145200000Y-63930000D03*
%TD*%
D18*
%TO.P,R3,1*%
%TO.N,/ADC_SOL*%
X124810000Y-84050000D03*
%TO.P,R3,2*%
%TO.N,GND*%
X124810000Y-85875000D03*
%TD*%
D19*
%TO.P,R4,1*%
%TO.N,/VSOLAR*%
X123270000Y-85875000D03*
%TO.P,R4,2*%
%TO.N,/ADC_SOL*%
X123270000Y-84050000D03*
%TD*%
D20*
%TO.P,C9,1*%
%TO.N,GND*%
X119917500Y-84040000D03*
%TO.P,C9,2*%
%TO.N,/ADC_SOL*%
X121642500Y-84040000D03*
%TD*%
D19*
%TO.P,R5,1*%
%TO.N,/VBAT*%
X128780000Y-86000000D03*
%TO.P,R5,2*%
%TO.N,/ADC_BAT*%
X128780000Y-84175000D03*
%TD*%
D21*
%TO.P,R1,1*%
%TO.N,/SDA*%
X132900000Y-65840000D03*
%TO.P,R1,2*%
%TO.N,+3V0*%
X131250000Y-65840000D03*
%TD*%
D17*
%TO.P,C7,1*%
%TO.N,GND*%
X115920000Y-61147500D03*
%TO.P,C7,2*%
%TO.N,+3V0*%
X115920000Y-62872500D03*
%TD*%
D16*
%TO.P,C3,1*%
%TO.N,/VSTOR*%
X129410000Y-90342500D03*
%TO.P,C3,2*%
%TO.N,GND*%
X129410000Y-88617500D03*
%TD*%
D22*
%TO.P,L1,1,1*%
%TO.N,/VSOLAR*%
X124710000Y-93363750D03*
%TO.P,L1,2,2*%
%TO.N,Net-(U1-LBOOST)*%
X124710000Y-89963750D03*
%TD*%
D23*
%TO.P,J3,1,Pin_1*%
%TO.N,/VBAT*%
X118590000Y-87490000D03*
D24*
%TO.P,J3,2,Pin_2*%
%TO.N,Net-(BT1-+)*%
X116050000Y-87490000D03*
%TD*%
D25*
%TO.P,J1,1,Pin_1*%
%TO.N,/VSOLAR*%
X114300000Y-92960000D03*
D26*
%TO.P,J1,2,Pin_2*%
%TO.N,GND*%
X114300000Y-94960000D03*
%TD*%
D27*
%TO.P,SW1,*%
%TO.N,*%
X104520000Y-69700000D03*
X104520000Y-72700000D03*
D28*
%TO.P,SW1,1,1*%
%TO.N,+3V0*%
X106520000Y-68950000D03*
%TO.P,SW1,2,2*%
%TO.N,Net-(R7-Pad1)*%
X106520000Y-71950000D03*
%TO.P,SW1,3,3*%
%TO.N,GND*%
X106520000Y-73450000D03*
D29*
%TO.P,SW1,4,4*%
X105620000Y-67550000D03*
%TO.P,SW1,5,5*%
X105620000Y-74850000D03*
%TO.P,SW1,6,6*%
X103420000Y-74850000D03*
%TO.P,SW1,7,7*%
X103420000Y-67550000D03*
%TD*%
D30*
%TO.P,C10,1*%
%TO.N,GND*%
X133700000Y-84120000D03*
%TO.P,C10,2*%
%TO.N,/ADC_BAT*%
X131975000Y-84120000D03*
%TD*%
D31*
%TO.P,J7,1,Pin_1*%
%TO.N,GND*%
X118300000Y-56820000D03*
D32*
%TO.P,J7,2,Pin_2*%
%TO.N,+3V0*%
X119800000Y-56820000D03*
%TO.P,J7,3,Pin_3*%
%TO.N,/SDA*%
X121300000Y-56820000D03*
%TO.P,J7,4,Pin_4*%
%TO.N,/SCL*%
X122800000Y-56820000D03*
%TD*%
D33*
%TO.P,SW2,1,1*%
%TO.N,GND*%
X102890000Y-64290000D03*
%TO.P,SW2,2,2*%
%TO.N,Net-(R8-Pad1)*%
X107250000Y-64290000D03*
%TD*%
D25*
%TO.P,J2,1,Pin_1*%
%TO.N,Net-(BT1-+)*%
X111710000Y-80890000D03*
D26*
%TO.P,J2,2,Pin_2*%
%TO.N,GND*%
X111710000Y-82890000D03*
%TD*%
D21*
%TO.P,R2,1*%
%TO.N,/SCL*%
X132900000Y-64300000D03*
%TO.P,R2,2*%
%TO.N,+3V0*%
X131250000Y-64300000D03*
%TD*%
D34*
%TO.P,U2,1,PA3/UART2_RX*%
%TO.N,/U2_RX*%
X132620000Y-80270000D03*
%TO.P,U2,2,PA2/UART2_TX*%
%TO.N,/U2_TX*%
X132620000Y-79270000D03*
%TO.P,U2,3,PA15/PIN_A4*%
%TO.N,/VBAT_OK*%
X132620000Y-78270000D03*
%TO.P,U2,4,PB6/UART1_TX*%
%TO.N,/U1_TX*%
X132620000Y-77270000D03*
%TO.P,U2,5,PB7/UART1_RX*%
%TO.N,/U1_RX*%
X132620000Y-76270000D03*
%TO.P,U2,6,PA1*%
%TO.N,unconnected-(U2-PA1-Pad6)*%
X132620000Y-75270000D03*
%TO.P,U2,7,PA13/SWDIO*%
%TO.N,/SWDIO*%
X132620000Y-74270000D03*
%TO.P,U2,8,PA14/SWCLK*%
%TO.N,/SWCLK*%
X132620000Y-73270000D03*
%TO.P,U2,9,PA12/I2C_SCL*%
%TO.N,/SCL*%
X132620000Y-72270000D03*
%TO.P,U2,10,PA11/I2C_SDA*%
%TO.N,/SDA*%
X132620000Y-71270000D03*
%TO.P,U2,11,GND*%
%TO.N,GND*%
X132620000Y-70270000D03*
%TO.P,U2,12,RF*%
%TO.N,unconnected-(U2-RF-Pad12)*%
X132620000Y-69270000D03*
D35*
%TO.P,U2,13,PA7/SPI1_MOSI*%
%TO.N,Net-(J8-Pin_6)*%
X124830000Y-67020000D03*
%TO.P,U2,14,PA6/SPI1_MISO*%
%TO.N,Net-(J8-Pin_5)*%
X123830000Y-67020000D03*
%TO.P,U2,15,PA5/SPI1_CLK*%
%TO.N,Net-(J8-Pin_4)*%
X122830000Y-67020000D03*
%TO.P,U2,16,PA4/SPI1_NSS*%
%TO.N,Net-(J8-Pin_3)*%
X121830000Y-67020000D03*
D34*
%TO.P,U2,17,GND*%
%TO.N,GND*%
X118040000Y-69270000D03*
%TO.P,U2,18,GND*%
X118040000Y-70270000D03*
%TO.P,U2,19,PA8*%
%TO.N,Net-(U2-PA8)*%
X118040000Y-71270000D03*
%TO.P,U2,20,PA9*%
%TO.N,Net-(J9-Pin_1)*%
X118040000Y-76270000D03*
%TO.P,U2,21,BOOT0*%
%TO.N,/BOOT*%
X118040000Y-77270000D03*
%TO.P,U2,22,RST*%
%TO.N,/RST*%
X118040000Y-78270000D03*
%TO.P,U2,23,GND*%
%TO.N,GND*%
X118040000Y-79270000D03*
%TO.P,U2,24,VDD*%
%TO.N,+3V0*%
X118040000Y-80270000D03*
D35*
%TO.P,U2,25,PA10/PIN_A3*%
%TO.N,Net-(J9-Pin_2)*%
X121830000Y-82160000D03*
%TO.P,U2,26,PB2/PIN_A2*%
%TO.N,Net-(J9-Pin_3)*%
X122830000Y-82160000D03*
%TO.P,U2,27,PB12*%
%TO.N,Net-(J9-Pin_4)*%
X123830000Y-82160000D03*
%TO.P,U2,28,GND*%
%TO.N,GND*%
X124830000Y-82160000D03*
%TO.P,U2,29,PA0*%
%TO.N,Net-(J9-Pin_5)*%
X125830000Y-82160000D03*
%TO.P,U2,30,PB5*%
%TO.N,Net-(J9-Pin_6)*%
X126830000Y-82160000D03*
%TO.P,U2,31,PB4/PIN_A1*%
%TO.N,/ADC_SOL*%
X127830000Y-82160000D03*
%TO.P,U2,32,PB3/PIN_A0*%
%TO.N,/ADC_BAT*%
X128830000Y-82160000D03*
%TD*%
D11*
%TO.P,J6,1,Pin_1*%
%TO.N,GND*%
X139250000Y-75140000D03*
D12*
%TO.P,J6,2,Pin_2*%
%TO.N,+3V0*%
X141250000Y-75140000D03*
%TO.P,J6,3,Pin_3*%
%TO.N,/U2_RX*%
X143250000Y-75140000D03*
%TO.P,J6,4,Pin_4*%
%TO.N,/U2_TX*%
X145250000Y-75140000D03*
%TD*%
D36*
%TO.P,L2,1,1*%
%TO.N,Net-(U1-LBUCK)*%
X132163750Y-90170000D03*
%TO.P,L2,2,2*%
%TO.N,+3V0*%
X135563750Y-90170000D03*
%TD*%
D37*
%TO.P,BT1,1,+*%
%TO.N,Net-(BT1-+)*%
X105260000Y-80260000D03*
%TO.P,BT1,2,-*%
%TO.N,GND*%
X105260000Y-83610000D03*
%TD*%
D38*
%TO.P,D1,1,K*%
%TO.N,GND*%
X113820000Y-70130000D03*
%TO.P,D1,2,A*%
%TO.N,Net-(D1-A)*%
X112070000Y-70130000D03*
%TD*%
D39*
%TO.P,C1,1*%
%TO.N,/VSOLAR*%
X122732500Y-95550000D03*
%TO.P,C1,2*%
%TO.N,GND*%
X124807500Y-95550000D03*
%TD*%
D40*
%TO.P,C5,1*%
%TO.N,GND*%
X137770000Y-91617500D03*
%TO.P,C5,2*%
%TO.N,+3V0*%
X137770000Y-89542500D03*
%TD*%
D17*
%TO.P,C8,1*%
%TO.N,/RST*%
X115080000Y-77850000D03*
%TO.P,C8,2*%
%TO.N,GND*%
X115080000Y-79575000D03*
%TD*%
D18*
%TO.P,R6,1*%
%TO.N,/ADC_BAT*%
X130300000Y-84175000D03*
%TO.P,R6,2*%
%TO.N,GND*%
X130300000Y-86000000D03*
%TD*%
D41*
%TO.P,U1,1,VSS*%
%TO.N,GND*%
X127993750Y-92700000D03*
%TO.P,U1,2,VIN_DC*%
%TO.N,/VSOLAR*%
X127993750Y-93200000D03*
%TO.P,U1,3,VOC_SAMP*%
%TO.N,/VSTOR*%
X127993750Y-93700000D03*
%TO.P,U1,4,VREF_SAMP*%
%TO.N,Net-(U1-VREF_SAMP)*%
X127993750Y-94200000D03*
%TO.P,U1,5,~{EN}*%
%TO.N,GND*%
X127993750Y-94700000D03*
D42*
%TO.P,U1,6,VOUT_EN*%
%TO.N,/VSTOR*%
X128681250Y-95387500D03*
%TO.P,U1,7,VBAT_OV*%
%TO.N,Net-(U1-VBAT_OV)*%
X129181250Y-95387500D03*
%TO.P,U1,8,VRDIV*%
%TO.N,Net-(U1-VRDIV)*%
X129681250Y-95387500D03*
%TO.P,U1,9,VSS*%
%TO.N,GND*%
X130181250Y-95387500D03*
%TO.P,U1,10,OK_HYST*%
%TO.N,Net-(U1-OK_HYST)*%
X130681250Y-95387500D03*
D41*
%TO.P,U1,11,OK_PROG*%
%TO.N,Net-(U1-OK_PROG)*%
X131368750Y-94700000D03*
%TO.P,U1,12,VOUT_SET*%
%TO.N,Net-(U1-VOUT_SET)*%
X131368750Y-94200000D03*
%TO.P,U1,13,VBAT_OK*%
%TO.N,/VBAT_OK*%
X131368750Y-93700000D03*
%TO.P,U1,14,VOUT*%
%TO.N,+3V0*%
X131368750Y-93200000D03*
%TO.P,U1,15,VSS*%
%TO.N,GND*%
X131368750Y-92700000D03*
D42*
%TO.P,U1,16,LBUCK*%
%TO.N,Net-(U1-LBUCK)*%
X130681250Y-92012500D03*
%TO.P,U1,17,VSS*%
%TO.N,GND*%
X130181250Y-92012500D03*
%TO.P,U1,18,VBAT*%
%TO.N,/VBAT*%
X129681250Y-92012500D03*
%TO.P,U1,19,VSTOR*%
%TO.N,/VSTOR*%
X129181250Y-92012500D03*
%TO.P,U1,20,LBOOST*%
%TO.N,Net-(U1-LBOOST)*%
X128681250Y-92012500D03*
D43*
%TO.P,U1,21,VSS*%
%TO.N,GND*%
X129681250Y-93700000D03*
%TD*%
D44*
%TO.N,GND*%
X120100000Y-83150000D03*
D45*
X118820000Y-84040000D03*
D44*
X120680000Y-67720000D03*
D45*
X112990000Y-81880000D03*
D44*
X115210000Y-61440000D03*
D45*
X104570000Y-63880000D03*
X116770000Y-69250000D03*
D44*
X121630000Y-69990000D03*
D45*
X116710000Y-70280000D03*
X145100000Y-67630000D03*
D44*
X126480000Y-98100000D03*
D45*
X119440000Y-79260000D03*
X122860000Y-65510000D03*
D44*
X135100000Y-95850000D03*
D45*
X104560000Y-66400000D03*
X102060000Y-71700000D03*
X124300000Y-98820000D03*
D44*
X118720000Y-74130000D03*
X130510000Y-99200000D03*
D45*
X113030000Y-72480000D03*
X137000000Y-98470000D03*
X136270000Y-82440000D03*
D44*
X131270000Y-97800000D03*
D45*
X136410000Y-86370000D03*
X112600000Y-98240000D03*
D44*
X127435000Y-92635000D03*
D45*
X140730000Y-70960000D03*
X102310000Y-66140000D03*
X142090000Y-70650000D03*
X102060000Y-77180000D03*
X143700000Y-62190000D03*
X126140000Y-65730000D03*
D44*
X123510000Y-63180000D03*
D45*
X146870000Y-73980000D03*
X129850000Y-73650000D03*
D44*
X128780000Y-62460000D03*
D46*
X129697500Y-93683750D03*
D45*
X144210000Y-65120000D03*
D44*
X138080000Y-95960000D03*
D45*
X105840000Y-62060000D03*
X130030000Y-67630000D03*
X125620000Y-85875000D03*
X138200000Y-70990000D03*
D44*
X128050000Y-57850000D03*
D45*
X115090000Y-82900000D03*
X127010000Y-88610000D03*
D46*
X128952500Y-92971250D03*
D45*
X131470000Y-67390000D03*
X117590000Y-94670000D03*
X131350000Y-86030000D03*
X133190000Y-67330000D03*
X142190000Y-64850000D03*
D44*
X120150000Y-65440000D03*
D45*
X140690000Y-67360000D03*
X110310000Y-84710000D03*
D44*
X104850000Y-67540000D03*
D45*
X128680000Y-76490000D03*
D44*
X123580000Y-73000000D03*
X116730000Y-59040000D03*
X130640000Y-62400000D03*
X134330000Y-97640000D03*
X129780000Y-97650000D03*
D45*
X102880000Y-63270000D03*
X113050000Y-79250000D03*
X134720000Y-84120000D03*
X135330000Y-77830000D03*
X110570000Y-70650000D03*
X145850000Y-77720000D03*
D44*
X113040000Y-63140000D03*
D45*
X128640000Y-88617500D03*
D46*
X130181250Y-94390000D03*
D45*
X126450000Y-56410000D03*
D44*
X127640000Y-59610000D03*
D45*
X120540000Y-70990000D03*
X114280000Y-76090000D03*
X146990000Y-77220000D03*
X142710000Y-73640000D03*
D44*
X103420000Y-68350000D03*
X118840000Y-83340000D03*
X105380000Y-73460000D03*
X122770000Y-56360000D03*
X131250000Y-87370000D03*
D45*
X124620000Y-65510000D03*
D44*
X119130000Y-81380000D03*
D45*
X141090000Y-61950000D03*
X108910000Y-62330000D03*
X146820000Y-63140000D03*
D44*
X132600000Y-86300000D03*
D45*
X108770000Y-81810000D03*
D44*
X114610000Y-65400000D03*
D45*
X104470000Y-71130000D03*
D46*
X115090000Y-80550000D03*
X128937499Y-94193749D03*
D47*
X137770000Y-93010000D03*
D46*
X130372500Y-93008750D03*
D45*
X141430000Y-67410000D03*
X137280000Y-62420000D03*
D44*
X120970000Y-79530000D03*
X118050000Y-67070000D03*
X111510000Y-64120000D03*
X103440000Y-74110000D03*
X132520000Y-81550000D03*
X126870000Y-84980000D03*
D45*
X112920000Y-90300000D03*
D44*
X111660000Y-65400000D03*
X111660000Y-66670000D03*
X113480000Y-68790000D03*
D45*
X111550000Y-93620000D03*
X104840000Y-77370000D03*
D44*
X128230000Y-97780000D03*
D45*
X104560000Y-65150000D03*
D47*
X137790000Y-94070000D03*
D44*
X121620000Y-55700000D03*
D45*
X106820000Y-70500000D03*
X119830000Y-90060000D03*
D44*
X127610000Y-94700000D03*
D45*
X121040000Y-91560000D03*
X112680000Y-84430000D03*
X112880000Y-88560000D03*
X114960000Y-70130000D03*
D44*
X111760000Y-67910000D03*
D45*
X117890000Y-98330000D03*
X117290000Y-96560000D03*
X102110000Y-68900000D03*
D44*
X123510000Y-58510000D03*
X116730000Y-75440000D03*
D45*
X146610000Y-70920000D03*
X101910000Y-81770000D03*
X136080000Y-84410000D03*
X112310000Y-67090000D03*
X126430000Y-66690000D03*
X126580000Y-68120000D03*
D44*
X134670000Y-87090000D03*
D45*
X107360000Y-66070000D03*
X147230000Y-66490000D03*
X115170000Y-85300000D03*
D44*
X116680000Y-57150000D03*
D45*
X111180000Y-76560000D03*
D44*
X117990000Y-61450000D03*
X134090000Y-62480000D03*
X132520000Y-92420000D03*
D45*
X110760000Y-79760000D03*
X105280000Y-81850000D03*
X112960000Y-77060000D03*
X140620000Y-73690000D03*
X110020000Y-86490000D03*
D44*
X128890000Y-99200000D03*
D45*
X136500000Y-76320000D03*
X133200000Y-95010000D03*
X108500000Y-74720000D03*
X135450000Y-93920000D03*
X120800000Y-96940000D03*
D44*
X117000000Y-72870000D03*
X112930000Y-86900000D03*
D45*
X131230000Y-70290000D03*
X120310000Y-73890000D03*
D44*
X129800000Y-81190000D03*
X125630000Y-73030000D03*
X133560000Y-99220000D03*
D45*
X117960000Y-90820000D03*
D44*
X134990000Y-83060000D03*
X125140000Y-88360000D03*
X130490000Y-97570000D03*
X134610000Y-81790000D03*
X123140000Y-88360000D03*
X131960000Y-99190000D03*
X135830000Y-64380000D03*
D45*
X107660000Y-76460000D03*
X146970000Y-67770000D03*
X144350000Y-78040000D03*
D44*
X126630000Y-86420000D03*
D45*
X137540000Y-80840000D03*
X107730000Y-78350000D03*
D44*
X124830000Y-96650000D03*
X104980000Y-74170000D03*
D45*
X111150000Y-88730000D03*
X138380000Y-79220000D03*
X103880000Y-85900000D03*
X121660000Y-72470000D03*
X124840000Y-80780000D03*
D44*
%TO.N,+3V0*%
X115120000Y-62810000D03*
X130340000Y-65830000D03*
D47*
X116620000Y-81410000D03*
X116640000Y-80270000D03*
D44*
X130390000Y-64300000D03*
X105370000Y-68950000D03*
D45*
X122660000Y-74180000D03*
D47*
X137780000Y-88190000D03*
X137790000Y-87170000D03*
D45*
X127680000Y-74880000D03*
D44*
%TO.N,/VSTOR*%
X126970000Y-93790000D03*
D45*
X127050000Y-90380000D03*
D44*
X127810000Y-95930000D03*
%TO.N,/VSOLAR*%
X121720000Y-85870000D03*
D45*
X121760000Y-95550000D03*
D44*
%TO.N,/VBAT_OK*%
X131370000Y-78280000D03*
X133540000Y-93720000D03*
%TO.N,Net-(U1-OK_PROG)*%
X132060000Y-95200000D03*
%TO.N,Net-(U1-OK_HYST)*%
X132760000Y-96070000D03*
%TO.N,Net-(U1-VRDIV)*%
X129690000Y-96070000D03*
X133630000Y-96800000D03*
%TO.N,Net-(U1-VOUT_SET)*%
X134750000Y-94950000D03*
%TO.N,Net-(U1-VBAT_OV)*%
X128920000Y-96150000D03*
D45*
%TO.N,Net-(J8-Pin_6)*%
X126650000Y-71720000D03*
%TO.N,Net-(J9-Pin_5)*%
X125690000Y-77280000D03*
%TO.N,Net-(J8-Pin_4)*%
X124660000Y-71740000D03*
%TO.N,Net-(J9-Pin_1)*%
X121130000Y-76280000D03*
%TO.N,Net-(J8-Pin_3)*%
X123650000Y-70030000D03*
%TO.N,Net-(J9-Pin_2)*%
X122650000Y-79040000D03*
%TO.N,Net-(J9-Pin_4)*%
X124640000Y-79260000D03*
%TO.N,Net-(J9-Pin_6)*%
X126720000Y-79150000D03*
%TO.N,Net-(J9-Pin_3)*%
X123670000Y-77510000D03*
%TO.N,Net-(J8-Pin_5)*%
X125650000Y-69980000D03*
%TO.N,/RST*%
X115140000Y-73650000D03*
X115140000Y-76920000D03*
%TO.N,/U2_RX*%
X133920000Y-80270000D03*
%TO.N,/SCL*%
X131230000Y-72280000D03*
%TD*%
D48*
%TO.N,/VBAT*%
X128760000Y-87410000D02*
X120010000Y-87410000D01*
D49*
X130220000Y-91070000D02*
X130220000Y-87430000D01*
D50*
X128780000Y-87390000D02*
X128760000Y-87410000D01*
X128780000Y-86000000D02*
X128780000Y-87390000D01*
D48*
X120010000Y-87410000D02*
X119930000Y-87490000D01*
X130220000Y-87410000D02*
X130230000Y-87420000D01*
X119930000Y-87490000D02*
X118590000Y-87490000D01*
D49*
X129681250Y-92012500D02*
X129681250Y-91608750D01*
X129681250Y-91608750D02*
X130220000Y-91070000D01*
X130220000Y-87430000D02*
X130230000Y-87420000D01*
D48*
X129810000Y-87410000D02*
X130220000Y-87410000D01*
X128760000Y-87410000D02*
X129810000Y-87410000D01*
D10*
%TO.N,GND*%
X130181250Y-92817500D02*
X130372500Y-93008750D01*
D49*
X103420000Y-74130000D02*
X103440000Y-74110000D01*
D50*
X130300000Y-86000000D02*
X131320000Y-86000000D01*
D51*
X111644995Y-65384995D02*
X111660000Y-65400000D01*
D52*
X105260000Y-83610000D02*
X108890000Y-83610000D01*
D10*
X132520000Y-92460000D02*
X132270000Y-92710000D01*
X127993750Y-94700000D02*
X127610000Y-94700000D01*
D50*
X133700000Y-84120000D02*
X134720000Y-84120000D01*
D51*
X105620000Y-74810000D02*
X104980000Y-74170000D01*
X102890000Y-64290000D02*
X102890000Y-63280000D01*
X110440000Y-65384995D02*
X111644995Y-65384995D01*
D10*
X130681250Y-92700000D02*
X130372500Y-93008750D01*
X132520000Y-92420000D02*
X132520000Y-92460000D01*
D52*
X137770000Y-91617500D02*
X137770000Y-93010000D01*
D51*
X110440000Y-67914995D02*
X111755005Y-67914995D01*
D50*
X116035000Y-79575000D02*
X115080000Y-79575000D01*
D52*
X137770000Y-93010000D02*
X137770000Y-94050000D01*
D50*
X127880000Y-88615000D02*
X127015000Y-88615000D01*
D49*
X130181250Y-94390000D02*
X130181250Y-95387500D01*
X104860000Y-67550000D02*
X104850000Y-67540000D01*
D52*
X109610000Y-82890000D02*
X111710000Y-82890000D01*
D50*
X116770000Y-69250000D02*
X118020000Y-69250000D01*
X124807500Y-96627500D02*
X124830000Y-96650000D01*
D10*
X131368750Y-92700000D02*
X130681250Y-92700000D01*
D52*
X108890000Y-83610000D02*
X109610000Y-82890000D01*
D50*
X116340000Y-79270000D02*
X116035000Y-79575000D01*
D10*
X127435000Y-92635000D02*
X127500000Y-92700000D01*
D50*
X126480000Y-97085000D02*
X126480000Y-98100000D01*
D51*
X102890000Y-63280000D02*
X102880000Y-63270000D01*
D52*
X137770000Y-94050000D02*
X137790000Y-94070000D01*
D51*
X125620000Y-85875000D02*
X124810000Y-85875000D01*
D49*
X103420000Y-74850000D02*
X103420000Y-74130000D01*
X130181250Y-92012500D02*
X130181250Y-93200000D01*
D50*
X116720000Y-70270000D02*
X116710000Y-70280000D01*
X131320000Y-86000000D02*
X131350000Y-86030000D01*
D10*
X127500000Y-92700000D02*
X127993750Y-92700000D01*
D50*
X124807500Y-95550000D02*
X124807500Y-96627500D01*
X115080000Y-79575000D02*
X115080000Y-80540000D01*
D51*
X132620000Y-70270000D02*
X131250000Y-70270000D01*
D50*
X119430000Y-79270000D02*
X119440000Y-79260000D01*
X124830000Y-80790000D02*
X124840000Y-80780000D01*
D51*
X110440000Y-64104995D02*
X111494995Y-64104995D01*
D50*
X119917500Y-84040000D02*
X118820000Y-84040000D01*
D49*
X127015000Y-88615000D02*
X127010000Y-88610000D01*
D51*
X111755005Y-67914995D02*
X111760000Y-67910000D01*
X111494995Y-64104995D02*
X111510000Y-64120000D01*
X114950000Y-70120000D02*
X114960000Y-70130000D01*
D50*
X115080000Y-80540000D02*
X115090000Y-80550000D01*
X115502500Y-61147500D02*
X115210000Y-61440000D01*
D51*
X110440000Y-66644995D02*
X111634995Y-66644995D01*
D10*
X127843295Y-94700000D02*
X127993750Y-94700000D01*
D51*
X131250000Y-70270000D02*
X131230000Y-70290000D01*
D10*
X132270000Y-92710000D02*
X131830000Y-92710000D01*
X131820000Y-92700000D02*
X131368750Y-92700000D01*
D50*
X118040000Y-70270000D02*
X116720000Y-70270000D01*
D49*
X105620000Y-67550000D02*
X104860000Y-67550000D01*
D10*
X127993750Y-92700000D02*
X128681250Y-92700000D01*
D51*
X115860000Y-65384995D02*
X114625005Y-65384995D01*
D10*
X128681250Y-92700000D02*
X128952500Y-92971250D01*
D50*
X124830000Y-82160000D02*
X124830000Y-80790000D01*
D51*
X111634995Y-66644995D02*
X111660000Y-66670000D01*
X114625005Y-65384995D02*
X114610000Y-65400000D01*
D49*
X106520000Y-73450000D02*
X105390000Y-73450000D01*
D10*
X128681250Y-94700000D02*
X129681250Y-93700000D01*
D50*
X118040000Y-79270000D02*
X119430000Y-79270000D01*
D10*
X131830000Y-92710000D02*
X131820000Y-92700000D01*
D50*
X128640000Y-88617500D02*
X127882500Y-88617500D01*
D49*
X103420000Y-67550000D02*
X103420000Y-68350000D01*
D50*
X129410000Y-88617500D02*
X128640000Y-88617500D01*
X118040000Y-79270000D02*
X116340000Y-79270000D01*
X115920000Y-61147500D02*
X115502500Y-61147500D01*
D10*
X127993750Y-94700000D02*
X128681250Y-94700000D01*
D49*
X105390000Y-73450000D02*
X105380000Y-73460000D01*
D51*
X113870000Y-70120000D02*
X114950000Y-70120000D01*
D48*
%TO.N,+3V0*%
X116640000Y-81390000D02*
X116640000Y-80270000D01*
D52*
X137780000Y-88190000D02*
X137780000Y-87180000D01*
D51*
X115920000Y-62872500D02*
X115182500Y-62872500D01*
D48*
X118040000Y-80270000D02*
X116640000Y-80270000D01*
D52*
X137770000Y-88200000D02*
X137770000Y-89542500D01*
D48*
X116620000Y-81410000D02*
X116640000Y-81390000D01*
D50*
X131250000Y-64300000D02*
X130390000Y-64300000D01*
D52*
X137770000Y-89542500D02*
X136782500Y-89542500D01*
X137780000Y-88190000D02*
X137770000Y-88200000D01*
D49*
X106520000Y-68950000D02*
X105370000Y-68950000D01*
D52*
X137780000Y-87180000D02*
X137790000Y-87170000D01*
X136782500Y-89542500D02*
X136780000Y-89540000D01*
D51*
X115860000Y-64104995D02*
X115860000Y-62932500D01*
D50*
X131250000Y-65840000D02*
X130350000Y-65840000D01*
D49*
X130350000Y-65840000D02*
X130340000Y-65830000D01*
D51*
X115182500Y-62872500D02*
X115120000Y-62810000D01*
D49*
%TO.N,/VSTOR*%
X129190000Y-90610000D02*
X129190000Y-92003750D01*
D10*
X128464005Y-95930000D02*
X128681250Y-95712755D01*
X128681250Y-95712755D02*
X128681250Y-95387500D01*
D50*
X127880000Y-90340000D02*
X129407500Y-90340000D01*
X127050000Y-90380000D02*
X127840000Y-90380000D01*
D49*
X127060000Y-93700000D02*
X126970000Y-93790000D01*
X127993750Y-93700000D02*
X127060000Y-93700000D01*
X129190000Y-92003750D02*
X129181250Y-92012500D01*
D10*
X127810000Y-95930000D02*
X128464005Y-95930000D01*
D53*
%TO.N,/VSOLAR*%
X125890000Y-93378750D02*
X125780000Y-93488750D01*
D52*
X118430000Y-92960000D02*
X121040000Y-95570000D01*
X121760000Y-95550000D02*
X122732500Y-95550000D01*
D50*
X121725000Y-85875000D02*
X121720000Y-85870000D01*
X123916250Y-93363750D02*
X122732500Y-94547500D01*
X122732500Y-94547500D02*
X122732500Y-95550000D01*
D52*
X124398750Y-93052500D02*
X124710000Y-93363750D01*
D50*
X125150000Y-93803750D02*
X124710000Y-93363750D01*
X125746283Y-93363750D02*
X125750000Y-93360033D01*
D52*
X121040000Y-95570000D02*
X121060000Y-95550000D01*
X121060000Y-95550000D02*
X121760000Y-95550000D01*
D50*
X124710000Y-93363750D02*
X125746283Y-93363750D01*
X123270000Y-85875000D02*
X121725000Y-85875000D01*
D52*
X114300000Y-92960000D02*
X118430000Y-92960000D01*
D49*
%TO.N,/VBAT_OK*%
X133520000Y-93700000D02*
X133540000Y-93720000D01*
X131368750Y-93700000D02*
X133520000Y-93700000D01*
X131370000Y-78280000D02*
X132610000Y-78280000D01*
%TO.N,Net-(U1-VREF_SAMP)*%
X127993750Y-94200000D02*
X127260000Y-94200000D01*
X127260000Y-94200000D02*
X126740000Y-94720000D01*
X126740000Y-94720000D02*
X126740000Y-95420000D01*
%TO.N,Net-(U1-OK_PROG)*%
X132060000Y-95200000D02*
X132060000Y-94830000D01*
X132060000Y-94830000D02*
X131930000Y-94700000D01*
X131930000Y-94700000D02*
X131368750Y-94700000D01*
%TO.N,Net-(U1-OK_HYST)*%
X130860000Y-96110000D02*
X132720000Y-96110000D01*
X130681250Y-95931250D02*
X130681250Y-95387500D01*
X132720000Y-96110000D02*
X132760000Y-96070000D01*
X130860000Y-96110000D02*
X130681250Y-95931250D01*
%TO.N,Net-(U1-VRDIV)*%
X129900000Y-96850000D02*
X133580000Y-96850000D01*
X129681250Y-96061250D02*
X129690000Y-96070000D01*
X129681250Y-95387500D02*
X129681250Y-96061250D01*
X133580000Y-96850000D02*
X133630000Y-96800000D01*
X129690000Y-96640000D02*
X129900000Y-96850000D01*
X129690000Y-96070000D02*
X129690000Y-96640000D01*
%TO.N,Net-(U1-VOUT_SET)*%
X131368750Y-94200000D02*
X134000000Y-94200000D01*
X134000000Y-94200000D02*
X134750000Y-94950000D01*
%TO.N,Net-(U1-VBAT_OV)*%
X129181250Y-95888750D02*
X128920000Y-96150000D01*
X129181250Y-95387500D02*
X129181250Y-95888750D01*
D48*
%TO.N,Net-(BT1-+)*%
X115970000Y-87410000D02*
X115400000Y-87410000D01*
D52*
X105260000Y-80260000D02*
X108930000Y-80260000D01*
X115400000Y-87410000D02*
X114070000Y-86080000D01*
X109560000Y-80890000D02*
X111710000Y-80890000D01*
X114070000Y-86080000D02*
X114070000Y-81650000D01*
X108930000Y-80260000D02*
X109560000Y-80890000D01*
X114070000Y-81650000D02*
X113310000Y-80890000D01*
X113310000Y-80890000D02*
X111710000Y-80890000D01*
D51*
%TO.N,Net-(J8-Pin_6)*%
X124830000Y-68030000D02*
X126620000Y-69820000D01*
X124830000Y-67020000D02*
X124830000Y-68030000D01*
X126620000Y-69820000D02*
X126620000Y-71690000D01*
X126620000Y-71690000D02*
X126650000Y-71720000D01*
%TO.N,Net-(J9-Pin_5)*%
X125690000Y-77280000D02*
X125690000Y-77810000D01*
X125830000Y-77950000D02*
X125830000Y-82160000D01*
X125690000Y-77810000D02*
X125830000Y-77950000D01*
%TO.N,Net-(J8-Pin_4)*%
X122830000Y-68022000D02*
X124660000Y-69852000D01*
X122830000Y-67020000D02*
X122830000Y-68022000D01*
X124660000Y-69852000D02*
X124660000Y-71740000D01*
%TO.N,Net-(J9-Pin_1)*%
X120860000Y-76280000D02*
X120850000Y-76270000D01*
X120850000Y-76270000D02*
X118040000Y-76270000D01*
X121130000Y-76280000D02*
X120860000Y-76280000D01*
%TO.N,Net-(J8-Pin_3)*%
X121830000Y-67020000D02*
X121830000Y-68210000D01*
X121830000Y-68210000D02*
X123650000Y-70030000D01*
%TO.N,Net-(J9-Pin_2)*%
X121830000Y-80150000D02*
X121830000Y-82160000D01*
X122650000Y-79330000D02*
X121830000Y-80150000D01*
X122650000Y-79040000D02*
X122650000Y-79330000D01*
%TO.N,Net-(J9-Pin_4)*%
X124640000Y-79260000D02*
X124640000Y-79349942D01*
X124640000Y-79349942D02*
X123830000Y-80159942D01*
X123830000Y-80159942D02*
X123830000Y-82160000D01*
%TO.N,Net-(J9-Pin_6)*%
X126830000Y-79260000D02*
X126720000Y-79150000D01*
X126830000Y-82160000D02*
X126830000Y-79260000D01*
%TO.N,Net-(J9-Pin_3)*%
X122830000Y-80310000D02*
X123670000Y-79470000D01*
X122830000Y-82160000D02*
X122830000Y-80310000D01*
X123670000Y-79470000D02*
X123670000Y-77510000D01*
%TO.N,Net-(J8-Pin_5)*%
X123842000Y-68022000D02*
X125650000Y-69830000D01*
X123830000Y-67020000D02*
X123830000Y-68022000D01*
X125650000Y-69830000D02*
X125650000Y-69980000D01*
X123830000Y-68022000D02*
X123842000Y-68022000D01*
D50*
%TO.N,/RST*%
X114960000Y-73250000D02*
X113920000Y-73250000D01*
X115080000Y-76980000D02*
X115140000Y-76920000D01*
X115080000Y-77850000D02*
X115080000Y-76980000D01*
X116330000Y-78270000D02*
X115910000Y-77850000D01*
X115910000Y-77850000D02*
X115080000Y-77850000D01*
X118040000Y-78270000D02*
X116330000Y-78270000D01*
X115140000Y-73430000D02*
X114960000Y-73250000D01*
X115140000Y-73650000D02*
X115140000Y-73430000D01*
%TO.N,/SWDIO*%
X138870000Y-66500000D02*
X144620000Y-66500000D01*
X137340000Y-71420000D02*
X137340000Y-68030000D01*
X145200000Y-65920000D02*
X145200000Y-63930000D01*
X144620000Y-66500000D02*
X145200000Y-65920000D01*
X134490000Y-74270000D02*
X137340000Y-71420000D01*
X137340000Y-68030000D02*
X138870000Y-66500000D01*
X132620000Y-74270000D02*
X134490000Y-74270000D01*
%TO.N,/SWCLK*%
X134300000Y-73270000D02*
X136370000Y-71200000D01*
X132620000Y-73270000D02*
X134300000Y-73270000D01*
X136370000Y-71200000D02*
X136370000Y-67640000D01*
X143200000Y-65180000D02*
X143200000Y-63930000D01*
X138291000Y-65719000D02*
X142661000Y-65719000D01*
X142661000Y-65719000D02*
X143200000Y-65180000D01*
X136370000Y-67640000D02*
X138291000Y-65719000D01*
%TO.N,/U1_TX*%
X145240000Y-70570000D02*
X145240000Y-69560000D01*
X132620000Y-77270000D02*
X133910000Y-77270000D01*
X133910000Y-77270000D02*
X138460000Y-72720000D01*
X143090000Y-72720000D02*
X145240000Y-70570000D01*
X138460000Y-72720000D02*
X143090000Y-72720000D01*
%TO.N,/U1_RX*%
X143240000Y-70810000D02*
X143240000Y-69560000D01*
X132620000Y-76270000D02*
X133690000Y-76270000D01*
X138090000Y-71870000D02*
X142180000Y-71870000D01*
X133690000Y-76270000D02*
X138090000Y-71870000D01*
X142180000Y-71870000D02*
X143240000Y-70810000D01*
%TO.N,/U2_RX*%
X133920000Y-80270000D02*
X132620000Y-80270000D01*
%TO.N,/U2_TX*%
X132620000Y-79270000D02*
X136260000Y-79270000D01*
X137510000Y-78020000D02*
X142370000Y-78020000D01*
X136260000Y-79270000D02*
X137510000Y-78020000D01*
X142370000Y-78020000D02*
X145250000Y-75140000D01*
D51*
%TO.N,/SCL*%
X116685005Y-66644995D02*
X115860000Y-66644995D01*
D50*
X135500000Y-65390000D02*
X134410000Y-64300000D01*
X131240000Y-72270000D02*
X131230000Y-72280000D01*
X135500000Y-70930000D02*
X135500000Y-65390000D01*
X132620000Y-72270000D02*
X131240000Y-72270000D01*
D51*
X119570000Y-61460000D02*
X117680000Y-63350000D01*
D50*
X132620000Y-72270000D02*
X134160000Y-72270000D01*
D51*
X117680000Y-63350000D02*
X117680000Y-65650000D01*
D50*
X134160000Y-72270000D02*
X135500000Y-70930000D01*
D51*
X117680000Y-65650000D02*
X116685005Y-66644995D01*
D50*
X134410000Y-64300000D02*
X132900000Y-64300000D01*
%TO.N,/SDA*%
X134490000Y-70790000D02*
X134490000Y-66380000D01*
D51*
X121510000Y-62700000D02*
X122920000Y-64110000D01*
X122920000Y-64110000D02*
X127330000Y-64110000D01*
X122560000Y-64470000D02*
X122920000Y-64110000D01*
X119570000Y-59960000D02*
X120235000Y-59960000D01*
X128410000Y-65190000D02*
X128410000Y-69850000D01*
X128410000Y-69850000D02*
X129830000Y-71270000D01*
X127330000Y-64110000D02*
X128410000Y-65190000D01*
X119115005Y-67914995D02*
X122560000Y-64470000D01*
X115860000Y-67914995D02*
X119115005Y-67914995D01*
X129830000Y-71270000D02*
X132620000Y-71270000D01*
D50*
X133950000Y-65840000D02*
X132900000Y-65840000D01*
X132620000Y-71270000D02*
X134010000Y-71270000D01*
D51*
X120235000Y-59960000D02*
X121510000Y-61235000D01*
X121510000Y-61235000D02*
X121510000Y-62700000D01*
D50*
X134010000Y-71270000D02*
X134490000Y-70790000D01*
X134490000Y-66380000D02*
X133950000Y-65840000D01*
%TO.N,/ADC_SOL*%
X124810000Y-84050000D02*
X127270000Y-84050000D01*
X123270000Y-84050000D02*
X121652500Y-84050000D01*
X127830000Y-83490000D02*
X127830000Y-82160000D01*
X127270000Y-84050000D02*
X127830000Y-83490000D01*
X124810000Y-84050000D02*
X123270000Y-84050000D01*
%TO.N,/ADC_BAT*%
X130300000Y-84175000D02*
X128780000Y-84175000D01*
X130300000Y-84175000D02*
X131920000Y-84175000D01*
X128830000Y-82160000D02*
X128830000Y-84125000D01*
D51*
%TO.N,Net-(R7-Pad1)*%
X108210000Y-71950000D02*
X106520000Y-71950000D01*
X111070000Y-74810000D02*
X108210000Y-71950000D01*
X112067500Y-74810000D02*
X111070000Y-74810000D01*
%TO.N,/BOOT*%
X116020000Y-75510000D02*
X116020000Y-76800000D01*
X115320000Y-74810000D02*
X116020000Y-75510000D01*
X116020000Y-76800000D02*
X116490000Y-77270000D01*
X113892500Y-74810000D02*
X115320000Y-74810000D01*
X116490000Y-77270000D02*
X118040000Y-77270000D01*
%TO.N,Net-(R8-Pad1)*%
X108610000Y-71160000D02*
X108610000Y-64790000D01*
X108610000Y-64790000D02*
X108110000Y-64290000D01*
X110700000Y-73250000D02*
X108610000Y-71160000D01*
X112095000Y-73250000D02*
X110700000Y-73250000D01*
X108110000Y-64290000D02*
X107250000Y-64290000D01*
%TO.N,Net-(D1-A)*%
X112097500Y-71710000D02*
X112097500Y-70157500D01*
X112097500Y-70157500D02*
X112070000Y-70130000D01*
X112097500Y-70142500D02*
X112120000Y-70120000D01*
%TO.N,Net-(U2-PA8)*%
X116060000Y-71270000D02*
X118040000Y-71270000D01*
X113922500Y-71710000D02*
X115620000Y-71710000D01*
X115620000Y-71710000D02*
X116060000Y-71270000D01*
%TD*%
%TA.AperFunction,Conductor*%
%TO.N,GND*%
G36*
X113014809Y-81660185D02*
G01*
X113035451Y-81676819D01*
X113283181Y-81924548D01*
X113316666Y-81985871D01*
X113319500Y-82012229D01*
X113319500Y-82708436D01*
X113299815Y-82775475D01*
X113247011Y-82821230D01*
X113177853Y-82831174D01*
X113114297Y-82802149D01*
X113076523Y-82743371D01*
X113073027Y-82727834D01*
X113057914Y-82632415D01*
X113004408Y-82467742D01*
X112925804Y-82313475D01*
X112824032Y-82173397D01*
X112701602Y-82050967D01*
X112561521Y-81949194D01*
X112518836Y-81927444D01*
X112509977Y-81919077D01*
X112498657Y-81914569D01*
X112485051Y-81895535D01*
X112468041Y-81879470D01*
X112465111Y-81867641D01*
X112458026Y-81857729D01*
X112456870Y-81834360D01*
X112451246Y-81811648D01*
X112455176Y-81800113D01*
X112454575Y-81787944D01*
X112466236Y-81767660D01*
X112473784Y-81745514D01*
X112484186Y-81736440D01*
X112489400Y-81727372D01*
X112507847Y-81715801D01*
X112518112Y-81706848D01*
X112524772Y-81703399D01*
X112577331Y-81683796D01*
X112610323Y-81659098D01*
X112619419Y-81654388D01*
X112644064Y-81649591D01*
X112667592Y-81640816D01*
X112676439Y-81640500D01*
X112947770Y-81640500D01*
X113014809Y-81660185D01*
G37*
%TD.AperFunction*%
%TA.AperFunction,Conductor*%
G36*
X128504418Y-55000816D02*
G01*
X128704561Y-55015130D01*
X128722063Y-55017647D01*
X128913797Y-55059355D01*
X128930755Y-55064334D01*
X129114609Y-55132909D01*
X129130701Y-55140259D01*
X129302904Y-55234288D01*
X129317784Y-55243849D01*
X129474867Y-55361441D01*
X129488237Y-55373027D01*
X129626972Y-55511762D01*
X129638558Y-55525132D01*
X129756146Y-55682210D01*
X129765711Y-55697095D01*
X129859740Y-55869298D01*
X129867090Y-55885390D01*
X129935662Y-56069236D01*
X129940646Y-56086212D01*
X129982351Y-56277931D01*
X129984869Y-56295442D01*
X129999184Y-56495580D01*
X129999500Y-56504427D01*
X129999500Y-58934108D01*
X129999500Y-59000000D01*
X129999500Y-59151252D01*
X130035963Y-59451551D01*
X130071912Y-59597401D01*
X130108358Y-59745272D01*
X130215628Y-60028117D01*
X130356206Y-60295964D01*
X130356212Y-60295973D01*
X130528047Y-60544921D01*
X130528052Y-60544927D01*
X130728646Y-60771351D01*
X130728648Y-60771353D01*
X130955072Y-60971947D01*
X130955078Y-60971952D01*
X131204026Y-61143787D01*
X131204035Y-61143793D01*
X131471882Y-61284371D01*
X131754727Y-61391641D01*
X131754731Y-61391642D01*
X131754734Y-61391643D01*
X132048449Y-61464037D01*
X132299661Y-61494539D01*
X132348746Y-61500500D01*
X132348748Y-61500500D01*
X132434108Y-61500500D01*
X146934108Y-61500500D01*
X146995572Y-61500500D01*
X147004418Y-61500816D01*
X147204561Y-61515130D01*
X147222063Y-61517647D01*
X147413797Y-61559355D01*
X147430755Y-61564334D01*
X147614609Y-61632909D01*
X147630701Y-61640259D01*
X147802904Y-61734288D01*
X147817784Y-61743849D01*
X147957282Y-61848277D01*
X147974867Y-61861441D01*
X147988237Y-61873027D01*
X148126972Y-62011762D01*
X148138558Y-62025132D01*
X148229330Y-62146389D01*
X148256146Y-62182210D01*
X148265711Y-62197095D01*
X148359740Y-62369298D01*
X148367090Y-62385390D01*
X148435662Y-62569236D01*
X148440646Y-62586212D01*
X148482351Y-62777931D01*
X148484869Y-62795442D01*
X148499184Y-62995580D01*
X148499500Y-63004427D01*
X148499500Y-76995572D01*
X148499184Y-77004419D01*
X148484869Y-77204557D01*
X148482351Y-77222068D01*
X148440646Y-77413787D01*
X148435662Y-77430763D01*
X148367090Y-77614609D01*
X148359740Y-77630701D01*
X148265711Y-77802904D01*
X148256146Y-77817789D01*
X148138558Y-77974867D01*
X148126972Y-77988237D01*
X147988237Y-78126972D01*
X147974867Y-78138558D01*
X147817789Y-78256146D01*
X147802904Y-78265711D01*
X147630701Y-78359740D01*
X147614609Y-78367090D01*
X147430763Y-78435662D01*
X147413787Y-78440646D01*
X147222068Y-78482351D01*
X147204557Y-78484869D01*
X147023779Y-78497799D01*
X147004417Y-78499184D01*
X146995572Y-78499500D01*
X142968387Y-78499500D01*
X142901348Y-78479815D01*
X142855593Y-78427011D01*
X142845649Y-78357853D01*
X142874674Y-78294297D01*
X142880706Y-78287819D01*
X143375231Y-77793294D01*
X144899828Y-76268695D01*
X144961149Y-76235212D01*
X145011696Y-76234761D01*
X145166231Y-76265499D01*
X145166232Y-76265500D01*
X145166233Y-76265500D01*
X145333768Y-76265500D01*
X145333769Y-76265499D01*
X145498082Y-76232816D01*
X145652863Y-76168703D01*
X145792162Y-76075626D01*
X145910626Y-75957162D01*
X146003703Y-75817863D01*
X146067816Y-75663082D01*
X146100500Y-75498767D01*
X146100500Y-74781233D01*
X146067816Y-74616918D01*
X146003703Y-74462137D01*
X145933794Y-74357511D01*
X145910626Y-74322837D01*
X145792162Y-74204373D01*
X145652860Y-74111295D01*
X145498082Y-74047184D01*
X145498074Y-74047182D01*
X145333771Y-74014500D01*
X145333767Y-74014500D01*
X145166233Y-74014500D01*
X145166228Y-74014500D01*
X145001925Y-74047182D01*
X145001917Y-74047184D01*
X144847139Y-74111295D01*
X144707837Y-74204373D01*
X144589373Y-74322837D01*
X144496295Y-74462139D01*
X144432184Y-74616917D01*
X144432182Y-74616925D01*
X144399500Y-74781228D01*
X144399500Y-75160612D01*
X144390855Y-75190052D01*
X144384332Y-75220039D01*
X144380577Y-75225054D01*
X144379815Y-75227651D01*
X144363181Y-75248293D01*
X144312181Y-75299293D01*
X144250858Y-75332778D01*
X144181166Y-75327794D01*
X144125233Y-75285922D01*
X144100816Y-75220458D01*
X144100500Y-75211612D01*
X144100500Y-74781232D01*
X144100499Y-74781228D01*
X144077879Y-74667511D01*
X144067816Y-74616918D01*
X144003703Y-74462137D01*
X143933794Y-74357511D01*
X143910626Y-74322837D01*
X143792162Y-74204373D01*
X143652860Y-74111295D01*
X143498082Y-74047184D01*
X143498074Y-74047182D01*
X143333771Y-74014500D01*
X143333767Y-74014500D01*
X143166233Y-74014500D01*
X143166228Y-74014500D01*
X143001925Y-74047182D01*
X143001917Y-74047184D01*
X142847139Y-74111295D01*
X142707837Y-74204373D01*
X142589373Y-74322837D01*
X142496295Y-74462139D01*
X142432184Y-74616917D01*
X142432182Y-74616925D01*
X142399500Y-74781228D01*
X142399500Y-75498771D01*
X142432182Y-75663074D01*
X142432184Y-75663082D01*
X142496295Y-75817860D01*
X142589373Y-75957162D01*
X142707837Y-76075626D01*
X142800494Y-76137537D01*
X142847137Y-76168703D01*
X143001918Y-76232816D01*
X143042121Y-76240812D01*
X143088623Y-76250063D01*
X143150534Y-76282448D01*
X143185108Y-76343163D01*
X143181369Y-76412933D01*
X143152113Y-76459361D01*
X142178294Y-77433181D01*
X142116971Y-77466666D01*
X142090613Y-77469500D01*
X137437525Y-77469500D01*
X137384874Y-77483607D01*
X137384874Y-77483608D01*
X137297515Y-77507016D01*
X137297513Y-77507016D01*
X137297513Y-77507017D01*
X137171986Y-77579489D01*
X137171983Y-77579491D01*
X136068294Y-78683181D01*
X136006971Y-78716666D01*
X135980613Y-78719500D01*
X133894500Y-78719500D01*
X133827461Y-78699815D01*
X133781706Y-78647011D01*
X133770500Y-78595500D01*
X133770500Y-77944500D01*
X133790185Y-77877461D01*
X133842989Y-77831706D01*
X133894500Y-77820500D01*
X133982472Y-77820500D01*
X133982474Y-77820500D01*
X133982475Y-77820500D01*
X134122485Y-77782984D01*
X134131935Y-77777527D01*
X134131940Y-77777526D01*
X134248008Y-77710514D01*
X134248007Y-77710514D01*
X134248015Y-77710510D01*
X137493512Y-74465013D01*
X138150000Y-74465013D01*
X138150000Y-74890000D01*
X138969670Y-74890000D01*
X138949925Y-74909745D01*
X138900556Y-74995255D01*
X138875000Y-75090630D01*
X138875000Y-75189370D01*
X138900556Y-75284745D01*
X138949925Y-75370255D01*
X138969670Y-75390000D01*
X138150001Y-75390000D01*
X138150001Y-75814986D01*
X138160494Y-75917697D01*
X138215641Y-76084119D01*
X138215643Y-76084124D01*
X138307684Y-76233345D01*
X138431654Y-76357315D01*
X138580875Y-76449356D01*
X138580880Y-76449358D01*
X138747302Y-76504505D01*
X138747309Y-76504506D01*
X138850019Y-76514999D01*
X138999999Y-76514999D01*
X139000000Y-76514998D01*
X139000000Y-75420330D01*
X139019745Y-75440075D01*
X139105255Y-75489444D01*
X139200630Y-75515000D01*
X139299370Y-75515000D01*
X139394745Y-75489444D01*
X139480255Y-75440075D01*
X139500000Y-75420330D01*
X139500000Y-76514999D01*
X139649972Y-76514999D01*
X139649986Y-76514998D01*
X139752697Y-76504505D01*
X139919119Y-76449358D01*
X139919124Y-76449356D01*
X140068345Y-76357315D01*
X140192315Y-76233345D01*
X140284356Y-76084124D01*
X140284359Y-76084117D01*
X140333776Y-75934984D01*
X140373548Y-75877539D01*
X140438063Y-75850715D01*
X140506839Y-75863030D01*
X140554584Y-75905096D01*
X140589373Y-75957161D01*
X140589376Y-75957165D01*
X140707837Y-76075626D01*
X140800494Y-76137537D01*
X140847137Y-76168703D01*
X141001918Y-76232816D01*
X141150990Y-76262468D01*
X141166228Y-76265499D01*
X141166232Y-76265500D01*
X141166233Y-76265500D01*
X141333768Y-76265500D01*
X141333769Y-76265499D01*
X141498082Y-76232816D01*
X141652863Y-76168703D01*
X141792162Y-76075626D01*
X141910626Y-75957162D01*
X142003703Y-75817863D01*
X142067816Y-75663082D01*
X142100500Y-75498767D01*
X142100500Y-74781233D01*
X142067816Y-74616918D01*
X142003703Y-74462137D01*
X141933794Y-74357511D01*
X141910626Y-74322837D01*
X141792162Y-74204373D01*
X141652860Y-74111295D01*
X141498082Y-74047184D01*
X141498074Y-74047182D01*
X141333771Y-74014500D01*
X141333767Y-74014500D01*
X141166233Y-74014500D01*
X141166228Y-74014500D01*
X141001925Y-74047182D01*
X141001917Y-74047184D01*
X140847139Y-74111295D01*
X140707837Y-74204373D01*
X140589376Y-74322834D01*
X140589373Y-74322838D01*
X140554585Y-74374902D01*
X140500972Y-74419707D01*
X140431647Y-74428414D01*
X140368620Y-74398259D01*
X140333777Y-74345015D01*
X140284358Y-74195880D01*
X140284356Y-74195875D01*
X140192315Y-74046654D01*
X140068345Y-73922684D01*
X139919124Y-73830643D01*
X139919119Y-73830641D01*
X139752697Y-73775494D01*
X139752690Y-73775493D01*
X139649986Y-73765000D01*
X139500000Y-73765000D01*
X139500000Y-74859670D01*
X139480255Y-74839925D01*
X139394745Y-74790556D01*
X139299370Y-74765000D01*
X139200630Y-74765000D01*
X139105255Y-74790556D01*
X139019745Y-74839925D01*
X139000000Y-74859670D01*
X139000000Y-73765000D01*
X138850027Y-73765000D01*
X138850012Y-73765001D01*
X138747302Y-73775494D01*
X138580880Y-73830641D01*
X138580875Y-73830643D01*
X138431654Y-73922684D01*
X138307684Y-74046654D01*
X138215643Y-74195875D01*
X138215641Y-74195880D01*
X138160494Y-74362302D01*
X138160493Y-74362309D01*
X138150000Y-74465013D01*
X137493512Y-74465013D01*
X138651706Y-73306819D01*
X138713029Y-73273334D01*
X138739387Y-73270500D01*
X143162472Y-73270500D01*
X143162474Y-73270500D01*
X143162475Y-73270500D01*
X143302485Y-73232984D01*
X143329278Y-73217515D01*
X143428015Y-73160510D01*
X145680510Y-70908015D01*
X145752984Y-70782485D01*
X145754354Y-70777372D01*
X145759144Y-70759499D01*
X145772192Y-70710801D01*
X145790500Y-70642475D01*
X145790500Y-70538650D01*
X145810185Y-70471611D01*
X145826814Y-70450973D01*
X145900626Y-70377162D01*
X145993703Y-70237863D01*
X146057816Y-70083082D01*
X146090500Y-69918767D01*
X146090500Y-69201233D01*
X146057816Y-69036918D01*
X145993703Y-68882137D01*
X145920288Y-68772264D01*
X145900626Y-68742837D01*
X145782162Y-68624373D01*
X145642860Y-68531295D01*
X145488082Y-68467184D01*
X145488074Y-68467182D01*
X145323771Y-68434500D01*
X145323767Y-68434500D01*
X145156233Y-68434500D01*
X145156228Y-68434500D01*
X144991925Y-68467182D01*
X144991917Y-68467184D01*
X144837139Y-68531295D01*
X144697837Y-68624373D01*
X144579373Y-68742837D01*
X144486295Y-68882139D01*
X144422184Y-69036917D01*
X144422182Y-69036925D01*
X144389500Y-69201228D01*
X144389500Y-69918771D01*
X144422182Y-70083074D01*
X144422184Y-70083082D01*
X144486297Y-70237863D01*
X144536887Y-70313576D01*
X144552853Y-70337471D01*
X144573730Y-70404148D01*
X144555245Y-70471528D01*
X144537431Y-70494042D01*
X143986510Y-71044964D01*
X143925187Y-71078449D01*
X143855496Y-71073465D01*
X143799562Y-71031594D01*
X143775145Y-70966129D01*
X143779053Y-70925192D01*
X143790500Y-70882475D01*
X143790500Y-70538650D01*
X143810185Y-70471611D01*
X143826814Y-70450973D01*
X143900626Y-70377162D01*
X143993703Y-70237863D01*
X144057816Y-70083082D01*
X144090500Y-69918767D01*
X144090500Y-69201233D01*
X144057816Y-69036918D01*
X143993703Y-68882137D01*
X143920288Y-68772264D01*
X143900626Y-68742837D01*
X143782162Y-68624373D01*
X143642860Y-68531295D01*
X143488082Y-68467184D01*
X143488074Y-68467182D01*
X143323771Y-68434500D01*
X143323767Y-68434500D01*
X143156233Y-68434500D01*
X143156228Y-68434500D01*
X142991925Y-68467182D01*
X142991917Y-68467184D01*
X142837139Y-68531295D01*
X142697837Y-68624373D01*
X142579373Y-68742837D01*
X142486295Y-68882139D01*
X142422184Y-69036917D01*
X142422182Y-69036925D01*
X142389500Y-69201228D01*
X142389500Y-69918771D01*
X142422182Y-70083074D01*
X142422184Y-70083082D01*
X142486295Y-70237860D01*
X142579372Y-70377160D01*
X142579373Y-70377161D01*
X142579374Y-70377162D01*
X142649163Y-70446951D01*
X142682647Y-70508272D01*
X142677663Y-70577964D01*
X142649162Y-70622312D01*
X141988294Y-71283181D01*
X141926971Y-71316666D01*
X141900613Y-71319500D01*
X138014500Y-71319500D01*
X137947461Y-71299815D01*
X137901706Y-71247011D01*
X137890500Y-71195500D01*
X137890500Y-68885013D01*
X138140000Y-68885013D01*
X138140000Y-69310000D01*
X138959670Y-69310000D01*
X138939925Y-69329745D01*
X138890556Y-69415255D01*
X138865000Y-69510630D01*
X138865000Y-69609370D01*
X138890556Y-69704745D01*
X138939925Y-69790255D01*
X138959670Y-69810000D01*
X138140001Y-69810000D01*
X138140001Y-70234986D01*
X138150494Y-70337697D01*
X138205641Y-70504119D01*
X138205643Y-70504124D01*
X138297684Y-70653345D01*
X138421654Y-70777315D01*
X138570875Y-70869356D01*
X138570880Y-70869358D01*
X138737302Y-70924505D01*
X138737309Y-70924506D01*
X138840019Y-70934999D01*
X138989999Y-70934999D01*
X138990000Y-70934998D01*
X138990000Y-69840330D01*
X139009745Y-69860075D01*
X139095255Y-69909444D01*
X139190630Y-69935000D01*
X139289370Y-69935000D01*
X139384745Y-69909444D01*
X139470255Y-69860075D01*
X139490000Y-69840330D01*
X139490000Y-70934999D01*
X139639972Y-70934999D01*
X139639986Y-70934998D01*
X139742697Y-70924505D01*
X139909119Y-70869358D01*
X139909124Y-70869356D01*
X140058345Y-70777315D01*
X140182315Y-70653345D01*
X140274356Y-70504124D01*
X140274359Y-70504117D01*
X140323776Y-70354984D01*
X140363548Y-70297539D01*
X140428063Y-70270715D01*
X140496839Y-70283030D01*
X140544584Y-70325096D01*
X140579373Y-70377161D01*
X140579376Y-70377165D01*
X140697837Y-70495626D01*
X140764531Y-70540189D01*
X140837137Y-70588703D01*
X140991918Y-70652816D01*
X141155459Y-70685346D01*
X141156228Y-70685499D01*
X141156232Y-70685500D01*
X141156233Y-70685500D01*
X141323768Y-70685500D01*
X141323769Y-70685499D01*
X141488082Y-70652816D01*
X141642863Y-70588703D01*
X141782162Y-70495626D01*
X141900626Y-70377162D01*
X141993703Y-70237863D01*
X142057816Y-70083082D01*
X142090500Y-69918767D01*
X142090500Y-69201233D01*
X142057816Y-69036918D01*
X141993703Y-68882137D01*
X141920288Y-68772264D01*
X141900626Y-68742837D01*
X141782162Y-68624373D01*
X141642860Y-68531295D01*
X141488082Y-68467184D01*
X141488074Y-68467182D01*
X141323771Y-68434500D01*
X141323767Y-68434500D01*
X141156233Y-68434500D01*
X141156228Y-68434500D01*
X140991925Y-68467182D01*
X140991917Y-68467184D01*
X140837139Y-68531295D01*
X140697837Y-68624373D01*
X140579376Y-68742834D01*
X140579373Y-68742838D01*
X140544585Y-68794902D01*
X140490972Y-68839707D01*
X140421647Y-68848414D01*
X140358620Y-68818259D01*
X140323777Y-68765015D01*
X140274358Y-68615880D01*
X140274356Y-68615875D01*
X140182315Y-68466654D01*
X140058345Y-68342684D01*
X139909124Y-68250643D01*
X139909119Y-68250641D01*
X139742697Y-68195494D01*
X139742690Y-68195493D01*
X139639986Y-68185000D01*
X139490000Y-68185000D01*
X139490000Y-69279670D01*
X139470255Y-69259925D01*
X139384745Y-69210556D01*
X139289370Y-69185000D01*
X139190630Y-69185000D01*
X139095255Y-69210556D01*
X139009745Y-69259925D01*
X138990000Y-69279670D01*
X138990000Y-68185000D01*
X138840027Y-68185000D01*
X138840012Y-68185001D01*
X138737302Y-68195494D01*
X138570880Y-68250641D01*
X138570875Y-68250643D01*
X138421654Y-68342684D01*
X138297684Y-68466654D01*
X138205643Y-68615875D01*
X138205641Y-68615880D01*
X138150494Y-68782302D01*
X138150493Y-68782309D01*
X138140000Y-68885013D01*
X137890500Y-68885013D01*
X137890500Y-68309387D01*
X137910185Y-68242348D01*
X137926819Y-68221706D01*
X139061706Y-67086819D01*
X139123029Y-67053334D01*
X139149387Y-67050500D01*
X144692472Y-67050500D01*
X144692474Y-67050500D01*
X144692475Y-67050500D01*
X144832485Y-67012984D01*
X144958015Y-66940510D01*
X145640510Y-66258015D01*
X145712984Y-66132485D01*
X145742519Y-66022260D01*
X145750500Y-65992475D01*
X145750500Y-64908650D01*
X145770185Y-64841611D01*
X145786814Y-64820973D01*
X145860626Y-64747162D01*
X145953703Y-64607863D01*
X146017816Y-64453082D01*
X146050500Y-64288767D01*
X146050500Y-63571233D01*
X146017816Y-63406918D01*
X145953983Y-63252812D01*
X145953704Y-63252139D01*
X145860626Y-63112837D01*
X145742162Y-62994373D01*
X145602860Y-62901295D01*
X145448082Y-62837184D01*
X145448074Y-62837182D01*
X145283771Y-62804500D01*
X145283767Y-62804500D01*
X145116233Y-62804500D01*
X145116228Y-62804500D01*
X144951925Y-62837182D01*
X144951917Y-62837184D01*
X144797139Y-62901295D01*
X144657837Y-62994373D01*
X144539373Y-63112837D01*
X144446295Y-63252139D01*
X144382184Y-63406917D01*
X144382182Y-63406925D01*
X144349500Y-63571228D01*
X144349500Y-64288771D01*
X144382182Y-64453074D01*
X144382184Y-64453082D01*
X144446295Y-64607860D01*
X144539372Y-64747160D01*
X144539373Y-64747161D01*
X144539374Y-64747162D01*
X144613182Y-64820970D01*
X144646666Y-64882291D01*
X144649500Y-64908650D01*
X144649500Y-65640613D01*
X144629815Y-65707652D01*
X144613181Y-65728294D01*
X144428294Y-65913181D01*
X144366971Y-65946666D01*
X144340613Y-65949500D01*
X143508387Y-65949500D01*
X143441348Y-65929815D01*
X143395593Y-65877011D01*
X143385649Y-65807853D01*
X143414674Y-65744297D01*
X143420706Y-65737819D01*
X143524073Y-65634452D01*
X143640510Y-65518015D01*
X143712984Y-65392485D01*
X143721422Y-65360995D01*
X143726329Y-65342685D01*
X143740579Y-65289500D01*
X143750500Y-65252475D01*
X143750500Y-64908650D01*
X143770185Y-64841611D01*
X143786814Y-64820973D01*
X143860626Y-64747162D01*
X143953703Y-64607863D01*
X144017816Y-64453082D01*
X144050500Y-64288767D01*
X144050500Y-63571233D01*
X144017816Y-63406918D01*
X143953983Y-63252812D01*
X143953704Y-63252139D01*
X143860626Y-63112837D01*
X143742162Y-62994373D01*
X143602860Y-62901295D01*
X143448082Y-62837184D01*
X143448074Y-62837182D01*
X143283771Y-62804500D01*
X143283767Y-62804500D01*
X143116233Y-62804500D01*
X143116228Y-62804500D01*
X142951925Y-62837182D01*
X142951917Y-62837184D01*
X142797139Y-62901295D01*
X142657837Y-62994373D01*
X142539373Y-63112837D01*
X142446295Y-63252139D01*
X142382184Y-63406917D01*
X142382182Y-63406925D01*
X142349500Y-63571228D01*
X142349500Y-64288771D01*
X142382182Y-64453074D01*
X142382184Y-64453082D01*
X142446295Y-64607860D01*
X142539372Y-64747160D01*
X142539373Y-64747161D01*
X142539374Y-64747162D01*
X142609163Y-64816951D01*
X142613500Y-64824894D01*
X142620748Y-64830320D01*
X142629982Y-64855079D01*
X142642647Y-64878272D01*
X142642001Y-64887301D01*
X142645165Y-64895784D01*
X142639548Y-64921604D01*
X142637663Y-64947964D01*
X142631844Y-64957018D01*
X142630313Y-64964057D01*
X142609163Y-64992312D01*
X142469292Y-65132182D01*
X142407972Y-65165666D01*
X142381613Y-65168500D01*
X141697652Y-65168500D01*
X141630613Y-65148815D01*
X141584858Y-65096011D01*
X141574914Y-65026853D01*
X141603939Y-64963297D01*
X141628762Y-64941398D01*
X141694985Y-64897149D01*
X141742162Y-64865626D01*
X141860626Y-64747162D01*
X141953703Y-64607863D01*
X142017816Y-64453082D01*
X142050500Y-64288767D01*
X142050500Y-63571233D01*
X142017816Y-63406918D01*
X141953983Y-63252812D01*
X141953704Y-63252139D01*
X141860626Y-63112837D01*
X141742162Y-62994373D01*
X141602860Y-62901295D01*
X141448082Y-62837184D01*
X141448074Y-62837182D01*
X141283771Y-62804500D01*
X141283767Y-62804500D01*
X141116233Y-62804500D01*
X141116228Y-62804500D01*
X140951925Y-62837182D01*
X140951917Y-62837184D01*
X140797139Y-62901295D01*
X140657837Y-62994373D01*
X140539376Y-63112834D01*
X140539373Y-63112838D01*
X140504585Y-63164902D01*
X140450972Y-63209707D01*
X140381647Y-63218414D01*
X140318620Y-63188259D01*
X140283777Y-63135015D01*
X140234358Y-62985880D01*
X140234356Y-62985875D01*
X140142315Y-62836654D01*
X140018345Y-62712684D01*
X139869124Y-62620643D01*
X139869119Y-62620641D01*
X139702697Y-62565494D01*
X139702690Y-62565493D01*
X139599986Y-62555000D01*
X139450000Y-62555000D01*
X139450000Y-63649670D01*
X139430255Y-63629925D01*
X139344745Y-63580556D01*
X139249370Y-63555000D01*
X139150630Y-63555000D01*
X139055255Y-63580556D01*
X138969745Y-63629925D01*
X138950000Y-63649670D01*
X138950000Y-62555000D01*
X138800027Y-62555000D01*
X138800012Y-62555001D01*
X138697302Y-62565494D01*
X138530880Y-62620641D01*
X138530875Y-62620643D01*
X138381654Y-62712684D01*
X138257684Y-62836654D01*
X138165643Y-62985875D01*
X138165641Y-62985880D01*
X138110494Y-63152302D01*
X138110493Y-63152309D01*
X138100000Y-63255013D01*
X138100000Y-63680000D01*
X138919670Y-63680000D01*
X138899925Y-63699745D01*
X138850556Y-63785255D01*
X138825000Y-63880630D01*
X138825000Y-63979370D01*
X138850556Y-64074745D01*
X138899925Y-64160255D01*
X138919670Y-64180000D01*
X138100001Y-64180000D01*
X138100001Y-64604986D01*
X138110494Y-64707697D01*
X138165641Y-64874119D01*
X138165643Y-64874124D01*
X138241524Y-64997145D01*
X138248582Y-65022941D01*
X138259108Y-65047520D01*
X138257661Y-65056122D01*
X138259964Y-65064537D01*
X138251956Y-65090052D01*
X138247522Y-65116423D01*
X138241654Y-65122877D01*
X138239042Y-65131201D01*
X138218511Y-65148335D01*
X138200524Y-65168123D01*
X138188774Y-65173154D01*
X138185400Y-65175971D01*
X138168079Y-65182017D01*
X138078702Y-65205966D01*
X138078647Y-65205980D01*
X138078520Y-65206013D01*
X138078516Y-65206015D01*
X137952986Y-65278489D01*
X137952983Y-65278491D01*
X136262181Y-66969294D01*
X136200858Y-67002779D01*
X136131166Y-66997795D01*
X136075233Y-66955923D01*
X136050816Y-66890459D01*
X136050500Y-66881613D01*
X136050500Y-65317526D01*
X136050500Y-65317525D01*
X136012984Y-65177515D01*
X135997445Y-65150601D01*
X135997445Y-65150599D01*
X135940514Y-65051991D01*
X135940508Y-65051983D01*
X134748016Y-63859491D01*
X134748015Y-63859490D01*
X134622485Y-63787016D01*
X134622480Y-63787014D01*
X134582083Y-63776189D01*
X134582083Y-63776190D01*
X134527554Y-63761579D01*
X134482475Y-63749500D01*
X134482474Y-63749500D01*
X133519177Y-63749500D01*
X133452138Y-63729815D01*
X133429524Y-63708617D01*
X133428721Y-63709421D01*
X133422151Y-63702851D01*
X133388236Y-63677821D01*
X133312882Y-63622207D01*
X133312880Y-63622206D01*
X133184700Y-63577353D01*
X133154270Y-63574500D01*
X133154266Y-63574500D01*
X132645734Y-63574500D01*
X132645730Y-63574500D01*
X132615300Y-63577353D01*
X132615298Y-63577353D01*
X132487119Y-63622206D01*
X132487117Y-63622207D01*
X132377850Y-63702850D01*
X132297207Y-63812117D01*
X132297206Y-63812119D01*
X132252353Y-63940298D01*
X132252353Y-63940300D01*
X132249500Y-63970730D01*
X132249500Y-64629269D01*
X132252353Y-64659699D01*
X132252353Y-64659701D01*
X132291423Y-64771353D01*
X132297207Y-64787882D01*
X132377850Y-64897150D01*
X132446701Y-64947964D01*
X132476870Y-64970230D01*
X132519121Y-65025878D01*
X132524579Y-65095534D01*
X132491511Y-65157083D01*
X132476870Y-65169770D01*
X132377850Y-65242850D01*
X132297207Y-65352117D01*
X132297206Y-65352119D01*
X132252353Y-65480298D01*
X132252353Y-65480300D01*
X132249500Y-65510730D01*
X132249500Y-66169269D01*
X132252353Y-66199699D01*
X132252353Y-66199701D01*
X132297206Y-66327880D01*
X132297207Y-66327882D01*
X132377850Y-66437150D01*
X132487118Y-66517793D01*
X132529845Y-66532744D01*
X132615299Y-66562646D01*
X132645730Y-66565500D01*
X132645734Y-66565500D01*
X133154270Y-66565500D01*
X133184699Y-66562646D01*
X133184701Y-66562646D01*
X133248790Y-66540219D01*
X133312882Y-66517793D01*
X133422150Y-66437150D01*
X133422152Y-66437146D01*
X133425010Y-66434289D01*
X133425464Y-66433297D01*
X133426972Y-66432327D01*
X133428721Y-66430579D01*
X133429101Y-66430959D01*
X133450938Y-66416925D01*
X133475054Y-66398616D01*
X133481183Y-66397488D01*
X133484242Y-66395523D01*
X133519177Y-66390500D01*
X133670613Y-66390500D01*
X133737652Y-66410185D01*
X133758294Y-66426819D01*
X133903181Y-66571706D01*
X133936666Y-66633029D01*
X133939500Y-66659387D01*
X133939500Y-68638164D01*
X133919815Y-68705203D01*
X133867011Y-68750958D01*
X133797853Y-68760902D01*
X133734297Y-68731877D01*
X133712398Y-68707055D01*
X133700601Y-68689399D01*
X133617739Y-68634033D01*
X133617735Y-68634032D01*
X133544677Y-68619500D01*
X133544674Y-68619500D01*
X131695326Y-68619500D01*
X131695323Y-68619500D01*
X131622264Y-68634032D01*
X131622260Y-68634033D01*
X131539399Y-68689399D01*
X131484033Y-68772260D01*
X131484032Y-68772264D01*
X131469500Y-68845321D01*
X131469500Y-69370873D01*
X131449815Y-69437912D01*
X131419812Y-69470139D01*
X131362814Y-69512807D01*
X131362808Y-69512814D01*
X131276649Y-69627906D01*
X131276645Y-69627913D01*
X131226403Y-69762620D01*
X131226401Y-69762627D01*
X131220000Y-69822155D01*
X131220000Y-70020000D01*
X132496000Y-70020000D01*
X132563039Y-70039685D01*
X132608794Y-70092489D01*
X132620000Y-70144000D01*
X132620000Y-70396000D01*
X132600315Y-70463039D01*
X132547511Y-70508794D01*
X132496000Y-70520000D01*
X131220000Y-70520000D01*
X131220000Y-70645500D01*
X131200315Y-70712539D01*
X131147511Y-70758294D01*
X131096000Y-70769500D01*
X130088675Y-70769500D01*
X130021636Y-70749815D01*
X130000994Y-70733181D01*
X128946819Y-69679005D01*
X128913334Y-69617682D01*
X128910500Y-69591324D01*
X128910500Y-65767525D01*
X129799500Y-65767525D01*
X129799500Y-65912475D01*
X129821545Y-65994747D01*
X129837017Y-66052488D01*
X129909488Y-66178011D01*
X129909490Y-66178013D01*
X129909491Y-66178015D01*
X130011985Y-66280509D01*
X130011986Y-66280510D01*
X130011988Y-66280511D01*
X130137511Y-66352982D01*
X130137512Y-66352982D01*
X130137515Y-66352984D01*
X130277525Y-66390500D01*
X130630823Y-66390500D01*
X130697862Y-66410185D01*
X130720475Y-66431382D01*
X130721279Y-66430579D01*
X130727848Y-66437148D01*
X130727849Y-66437148D01*
X130727850Y-66437150D01*
X130837118Y-66517793D01*
X130879845Y-66532744D01*
X130965299Y-66562646D01*
X130995730Y-66565500D01*
X130995734Y-66565500D01*
X131504270Y-66565500D01*
X131534699Y-66562646D01*
X131534701Y-66562646D01*
X131598790Y-66540219D01*
X131662882Y-66517793D01*
X131772150Y-66437150D01*
X131852793Y-66327882D01*
X131877241Y-66258013D01*
X131897646Y-66199701D01*
X131897646Y-66199699D01*
X131900500Y-66169269D01*
X131900500Y-65510730D01*
X131897646Y-65480300D01*
X131897646Y-65480298D01*
X131852793Y-65352119D01*
X131852792Y-65352117D01*
X131845831Y-65342685D01*
X131772150Y-65242850D01*
X131772148Y-65242849D01*
X131772148Y-65242848D01*
X131673130Y-65169770D01*
X131630879Y-65114123D01*
X131625420Y-65044467D01*
X131658487Y-64982917D01*
X131673130Y-64970230D01*
X131739016Y-64921604D01*
X131772150Y-64897150D01*
X131852793Y-64787882D01*
X131894903Y-64667539D01*
X131897646Y-64659701D01*
X131897646Y-64659699D01*
X131900500Y-64629269D01*
X131900500Y-63970730D01*
X131897646Y-63940300D01*
X131897646Y-63940298D01*
X131856814Y-63823609D01*
X131852793Y-63812118D01*
X131772150Y-63702850D01*
X131662882Y-63622207D01*
X131662880Y-63622206D01*
X131534700Y-63577353D01*
X131504270Y-63574500D01*
X131504266Y-63574500D01*
X130995734Y-63574500D01*
X130995730Y-63574500D01*
X130965300Y-63577353D01*
X130965298Y-63577353D01*
X130837119Y-63622206D01*
X130837117Y-63622207D01*
X130727848Y-63702851D01*
X130721279Y-63709421D01*
X130719451Y-63707593D01*
X130674946Y-63741384D01*
X130630823Y-63749500D01*
X130317525Y-63749500D01*
X130217918Y-63776190D01*
X130177511Y-63787017D01*
X130051988Y-63859488D01*
X130051982Y-63859493D01*
X129949493Y-63961982D01*
X129949488Y-63961988D01*
X129877017Y-64087511D01*
X129877016Y-64087515D01*
X129839500Y-64227525D01*
X129839500Y-64372475D01*
X129874432Y-64502842D01*
X129877017Y-64512488D01*
X129949488Y-64638011D01*
X129949490Y-64638013D01*
X129949491Y-64638015D01*
X130051985Y-64740509D01*
X130051986Y-64740510D01*
X130051988Y-64740511D01*
X130177511Y-64812982D01*
X130177512Y-64812982D01*
X130177515Y-64812984D01*
X130317525Y-64850500D01*
X130630823Y-64850500D01*
X130697862Y-64870185D01*
X130707096Y-64876733D01*
X130720498Y-64887188D01*
X130727850Y-64897150D01*
X130828187Y-64971201D01*
X130829509Y-64972233D01*
X130848954Y-64999317D01*
X130869121Y-65025878D01*
X130869255Y-65027592D01*
X130870258Y-65028989D01*
X130871972Y-65062274D01*
X130874579Y-65095534D01*
X130873764Y-65097049D01*
X130873853Y-65098766D01*
X130857300Y-65127694D01*
X130841511Y-65157083D01*
X130839474Y-65158847D01*
X130839153Y-65159410D01*
X130838333Y-65159836D01*
X130826870Y-65169770D01*
X130727848Y-65242851D01*
X130721279Y-65249421D01*
X130719451Y-65247593D01*
X130674946Y-65281384D01*
X130630823Y-65289500D01*
X130277525Y-65289500D01*
X130148993Y-65323940D01*
X130137511Y-65327017D01*
X130011988Y-65399488D01*
X130011982Y-65399493D01*
X129909493Y-65501982D01*
X129909488Y-65501988D01*
X129837017Y-65627511D01*
X129837016Y-65627515D01*
X129799500Y-65767525D01*
X128910500Y-65767525D01*
X128910500Y-65124110D01*
X128910500Y-65124108D01*
X128876392Y-64996814D01*
X128875350Y-64995010D01*
X128857041Y-64963297D01*
X128810500Y-64882686D01*
X128717314Y-64789500D01*
X127637314Y-63709500D01*
X127580130Y-63676485D01*
X127523187Y-63643608D01*
X127459539Y-63626554D01*
X127395892Y-63609500D01*
X127395891Y-63609500D01*
X123178676Y-63609500D01*
X123111637Y-63589815D01*
X123090995Y-63573181D01*
X122046819Y-62529005D01*
X122013334Y-62467682D01*
X122010500Y-62441324D01*
X122010500Y-61243713D01*
X123149500Y-61243713D01*
X123149500Y-61456287D01*
X123155894Y-61496654D01*
X123178638Y-61640259D01*
X123182754Y-61666243D01*
X123247904Y-61866754D01*
X123248444Y-61868414D01*
X123344951Y-62057820D01*
X123469890Y-62229786D01*
X123620213Y-62380109D01*
X123792179Y-62505048D01*
X123792181Y-62505049D01*
X123792184Y-62505051D01*
X123981588Y-62601557D01*
X124183757Y-62667246D01*
X124393713Y-62700500D01*
X124393714Y-62700500D01*
X124606286Y-62700500D01*
X124606287Y-62700500D01*
X124816243Y-62667246D01*
X125018412Y-62601557D01*
X125207816Y-62505051D01*
X125259226Y-62467700D01*
X125379786Y-62380109D01*
X125379788Y-62380106D01*
X125379792Y-62380104D01*
X125530104Y-62229792D01*
X125530106Y-62229788D01*
X125530109Y-62229786D01*
X125640339Y-62078065D01*
X125655051Y-62057816D01*
X125751557Y-61868412D01*
X125817246Y-61666243D01*
X125850500Y-61456287D01*
X125850500Y-61243713D01*
X125817246Y-61033757D01*
X125751557Y-60831588D01*
X125655051Y-60642184D01*
X125655049Y-60642181D01*
X125655048Y-60642179D01*
X125530109Y-60470213D01*
X125379786Y-60319890D01*
X125207820Y-60194951D01*
X125018414Y-60098444D01*
X125018413Y-60098443D01*
X125018412Y-60098443D01*
X124816243Y-60032754D01*
X124816241Y-60032753D01*
X124816240Y-60032753D01*
X124654957Y-60007208D01*
X124606287Y-59999500D01*
X124393713Y-59999500D01*
X124345042Y-60007208D01*
X124183760Y-60032753D01*
X123981585Y-60098444D01*
X123792179Y-60194951D01*
X123620213Y-60319890D01*
X123469890Y-60470213D01*
X123344951Y-60642179D01*
X123248444Y-60831585D01*
X123248443Y-60831587D01*
X123248443Y-60831588D01*
X123247497Y-60834500D01*
X123182753Y-61033760D01*
X123165326Y-61143792D01*
X123149500Y-61243713D01*
X122010500Y-61243713D01*
X122010500Y-61169110D01*
X122010500Y-61169108D01*
X121976392Y-61041814D01*
X121910500Y-60927686D01*
X121817314Y-60834500D01*
X121817313Y-60834499D01*
X121812983Y-60830169D01*
X121812972Y-60830159D01*
X120628661Y-59645847D01*
X120601781Y-59605619D01*
X120598377Y-59597400D01*
X120514603Y-59472022D01*
X120514598Y-59472016D01*
X120407983Y-59365401D01*
X120407979Y-59365398D01*
X120407978Y-59365397D01*
X120329709Y-59313100D01*
X120284907Y-59259491D01*
X120276199Y-59190166D01*
X120306353Y-59127138D01*
X120329706Y-59106901D01*
X120407978Y-59054603D01*
X120514603Y-58947978D01*
X120598377Y-58822600D01*
X120656082Y-58683288D01*
X120685500Y-58535395D01*
X120685500Y-58384605D01*
X120685500Y-58384602D01*
X120656083Y-58236717D01*
X120656082Y-58236716D01*
X120656082Y-58236712D01*
X120598377Y-58097400D01*
X120553334Y-58029988D01*
X120532457Y-57963312D01*
X120550942Y-57895932D01*
X120591341Y-57855560D01*
X120653343Y-57817317D01*
X120777315Y-57693345D01*
X120869356Y-57544124D01*
X120869358Y-57544119D01*
X120924505Y-57377697D01*
X120924506Y-57377690D01*
X120934999Y-57274986D01*
X120935000Y-57274973D01*
X120935000Y-57210000D01*
X119836189Y-57210000D01*
X119862073Y-57184116D01*
X119910126Y-57100885D01*
X119935000Y-57008053D01*
X119935000Y-56911947D01*
X119910126Y-56819115D01*
X119862073Y-56735884D01*
X119836189Y-56710000D01*
X120934999Y-56710000D01*
X120934999Y-56645028D01*
X120934998Y-56645013D01*
X120924505Y-56542302D01*
X120869358Y-56375880D01*
X120869356Y-56375875D01*
X120777315Y-56226654D01*
X120653345Y-56102684D01*
X120504124Y-56010643D01*
X120504119Y-56010641D01*
X120337697Y-55955494D01*
X120337690Y-55955493D01*
X120234986Y-55945000D01*
X119820000Y-55945000D01*
X119820000Y-56693811D01*
X119794116Y-56667927D01*
X119710885Y-56619874D01*
X119618053Y-56595000D01*
X119521947Y-56595000D01*
X119429115Y-56619874D01*
X119345884Y-56667927D01*
X119320000Y-56693811D01*
X119320000Y-55945000D01*
X118905028Y-55945000D01*
X118905012Y-55945001D01*
X118802302Y-55955494D01*
X118635880Y-56010641D01*
X118635875Y-56010643D01*
X118486654Y-56102684D01*
X118362684Y-56226654D01*
X118270643Y-56375875D01*
X118270641Y-56375880D01*
X118215494Y-56542302D01*
X118215493Y-56542309D01*
X118205000Y-56645013D01*
X118205000Y-56710000D01*
X119303811Y-56710000D01*
X119277927Y-56735884D01*
X119229874Y-56819115D01*
X119205000Y-56911947D01*
X119205000Y-57008053D01*
X119229874Y-57100885D01*
X119277927Y-57184116D01*
X119303811Y-57210000D01*
X118205001Y-57210000D01*
X118205001Y-57274986D01*
X118215494Y-57377697D01*
X118270641Y-57544119D01*
X118270643Y-57544124D01*
X118362684Y-57693345D01*
X118486655Y-57817316D01*
X118486657Y-57817317D01*
X118548658Y-57855560D01*
X118595383Y-57907508D01*
X118606606Y-57976470D01*
X118586665Y-58029989D01*
X118541622Y-58097401D01*
X118483918Y-58236711D01*
X118483916Y-58236717D01*
X118454500Y-58384602D01*
X118454500Y-58384605D01*
X118454500Y-58535395D01*
X118454500Y-58535397D01*
X118454499Y-58535397D01*
X118483916Y-58683282D01*
X118483918Y-58683288D01*
X118541623Y-58822602D01*
X118625395Y-58947976D01*
X118625401Y-58947983D01*
X118732016Y-59054598D01*
X118732023Y-59054604D01*
X118810287Y-59106898D01*
X118855093Y-59160510D01*
X118863800Y-59229835D01*
X118833646Y-59292862D01*
X118810287Y-59313102D01*
X118732023Y-59365395D01*
X118732016Y-59365401D01*
X118625401Y-59472016D01*
X118625395Y-59472023D01*
X118541623Y-59597397D01*
X118483918Y-59736711D01*
X118483916Y-59736717D01*
X118454500Y-59884602D01*
X118454500Y-59884605D01*
X118454500Y-60035395D01*
X118454500Y-60035397D01*
X118454499Y-60035397D01*
X118483916Y-60183282D01*
X118483918Y-60183288D01*
X118541623Y-60322602D01*
X118625395Y-60447976D01*
X118625401Y-60447983D01*
X118732016Y-60554598D01*
X118732023Y-60554604D01*
X118810287Y-60606898D01*
X118855093Y-60660510D01*
X118863800Y-60729835D01*
X118833646Y-60792862D01*
X118810287Y-60813102D01*
X118732023Y-60865395D01*
X118732016Y-60865401D01*
X118625401Y-60972016D01*
X118625395Y-60972023D01*
X118541623Y-61097397D01*
X118483918Y-61236711D01*
X118483916Y-61236717D01*
X118454500Y-61384602D01*
X118454500Y-61384605D01*
X118454500Y-61535395D01*
X118454500Y-61535397D01*
X118454499Y-61535397D01*
X118483916Y-61683281D01*
X118483917Y-61683284D01*
X118483918Y-61683288D01*
X118492511Y-61704033D01*
X118497604Y-61716329D01*
X118505071Y-61785799D01*
X118473795Y-61848277D01*
X118470723Y-61851461D01*
X117372686Y-62949500D01*
X117279502Y-63042683D01*
X117279500Y-63042686D01*
X117213608Y-63156812D01*
X117179500Y-63284108D01*
X117179500Y-63677821D01*
X117159815Y-63744860D01*
X117107011Y-63790615D01*
X117037853Y-63800559D01*
X116974297Y-63771534D01*
X116967819Y-63765502D01*
X116878806Y-63676489D01*
X116878801Y-63676485D01*
X116756697Y-63605989D01*
X116756696Y-63605988D01*
X116696336Y-63589815D01*
X116669825Y-63582711D01*
X116610166Y-63546347D01*
X116579637Y-63483500D01*
X116587557Y-63417253D01*
X116587112Y-63417087D01*
X116587797Y-63415249D01*
X116587932Y-63414124D01*
X116589159Y-63411596D01*
X116590208Y-63408783D01*
X116590212Y-63408778D01*
X116639251Y-63277299D01*
X116641956Y-63252137D01*
X116645499Y-63219190D01*
X116645500Y-63219173D01*
X116645500Y-62525826D01*
X116645499Y-62525809D01*
X116639251Y-62467700D01*
X116617543Y-62409500D01*
X116590212Y-62336222D01*
X116523460Y-62247052D01*
X116499043Y-62181590D01*
X116513894Y-62113317D01*
X116557631Y-62067204D01*
X116618037Y-62029945D01*
X116739944Y-61908038D01*
X116739947Y-61908034D01*
X116830448Y-61761311D01*
X116830453Y-61761300D01*
X116884680Y-61597652D01*
X116894999Y-61496654D01*
X116895000Y-61496641D01*
X116895000Y-61397500D01*
X114945001Y-61397500D01*
X114945001Y-61496654D01*
X114955319Y-61597652D01*
X115009546Y-61761300D01*
X115009551Y-61761311D01*
X115100052Y-61908034D01*
X115100055Y-61908038D01*
X115221962Y-62029945D01*
X115282369Y-62067205D01*
X115292137Y-62078065D01*
X115304955Y-62085065D01*
X115315030Y-62103518D01*
X115329093Y-62119153D01*
X115331438Y-62133569D01*
X115338438Y-62146389D01*
X115336937Y-62167362D01*
X115340314Y-62188116D01*
X115334403Y-62202765D01*
X115333451Y-62216081D01*
X115316535Y-62247057D01*
X115305756Y-62261455D01*
X115249821Y-62303324D01*
X115190317Y-62310082D01*
X115185893Y-62309500D01*
X115185892Y-62309500D01*
X115054108Y-62309500D01*
X114926812Y-62343608D01*
X114812686Y-62409500D01*
X114812683Y-62409502D01*
X114719502Y-62502683D01*
X114719500Y-62502686D01*
X114653608Y-62616812D01*
X114619500Y-62744108D01*
X114619500Y-62875891D01*
X114653608Y-63003187D01*
X114676413Y-63042686D01*
X114719500Y-63117314D01*
X114782000Y-63179814D01*
X114875186Y-63273000D01*
X114971379Y-63328537D01*
X114989314Y-63338892D01*
X115033952Y-63350852D01*
X115039971Y-63353158D01*
X115062829Y-63370584D01*
X115087372Y-63385544D01*
X115090266Y-63391502D01*
X115095535Y-63395519D01*
X115105342Y-63422537D01*
X115117902Y-63448391D01*
X115117115Y-63454969D01*
X115119376Y-63461196D01*
X115113020Y-63489225D01*
X115109608Y-63517767D01*
X115105389Y-63522875D01*
X115103925Y-63529336D01*
X115083423Y-63549480D01*
X115065123Y-63571645D01*
X115057169Y-63575277D01*
X115054088Y-63578305D01*
X115047563Y-63579664D01*
X115027713Y-63588730D01*
X114963303Y-63605988D01*
X114963302Y-63605989D01*
X114841198Y-63676485D01*
X114841193Y-63676489D01*
X114741494Y-63776188D01*
X114741493Y-63776190D01*
X114670994Y-63898297D01*
X114670993Y-63898300D01*
X114634500Y-64034495D01*
X114634500Y-64175495D01*
X114669201Y-64305000D01*
X114670993Y-64311689D01*
X114670994Y-64311692D01*
X114741490Y-64433796D01*
X114741494Y-64433801D01*
X114810535Y-64502842D01*
X114844020Y-64564165D01*
X114839036Y-64633857D01*
X114797164Y-64689790D01*
X114791745Y-64693625D01*
X114669592Y-64775245D01*
X114669588Y-64775248D01*
X114560253Y-64884583D01*
X114560250Y-64884587D01*
X114474340Y-65013160D01*
X114423875Y-65134994D01*
X114423875Y-65134995D01*
X115736000Y-65134995D01*
X115803039Y-65154680D01*
X115848794Y-65207484D01*
X115860000Y-65258995D01*
X115860000Y-65510995D01*
X115840315Y-65578034D01*
X115787511Y-65623789D01*
X115736000Y-65634995D01*
X114423875Y-65634995D01*
X114474340Y-65756829D01*
X114560250Y-65885402D01*
X114560253Y-65885406D01*
X114669588Y-65994741D01*
X114669596Y-65994747D01*
X114779755Y-66068353D01*
X114824561Y-66121965D01*
X114833268Y-66191290D01*
X114803114Y-66254317D01*
X114798547Y-66259136D01*
X114741490Y-66316193D01*
X114670994Y-66438297D01*
X114670993Y-66438300D01*
X114634500Y-66574495D01*
X114634500Y-66715495D01*
X114641467Y-66741494D01*
X114670993Y-66851689D01*
X114670994Y-66851692D01*
X114741490Y-66973796D01*
X114741492Y-66973799D01*
X114741493Y-66973800D01*
X114841195Y-67073502D01*
X114963305Y-67144002D01*
X115023833Y-67160220D01*
X115083494Y-67196585D01*
X115114023Y-67259432D01*
X115105728Y-67328807D01*
X115061243Y-67382685D01*
X115023834Y-67399769D01*
X114984645Y-67410270D01*
X114963305Y-67415988D01*
X114963302Y-67415989D01*
X114841198Y-67486485D01*
X114841193Y-67486489D01*
X114741494Y-67586188D01*
X114741490Y-67586193D01*
X114670994Y-67708297D01*
X114670993Y-67708300D01*
X114634500Y-67844495D01*
X114634500Y-67985495D01*
X114665343Y-68100601D01*
X114670993Y-68121689D01*
X114670994Y-68121692D01*
X114741490Y-68243796D01*
X114741492Y-68243799D01*
X114741493Y-68243800D01*
X114841195Y-68343502D01*
X114841196Y-68343503D01*
X114841198Y-68343504D01*
X114902250Y-68378752D01*
X114963305Y-68414002D01*
X115099500Y-68450495D01*
X115099502Y-68450495D01*
X116584532Y-68450495D01*
X116651571Y-68470180D01*
X116697326Y-68522984D01*
X116707270Y-68592142D01*
X116698310Y-68619065D01*
X116699746Y-68619601D01*
X116646403Y-68762620D01*
X116646401Y-68762627D01*
X116640000Y-68822155D01*
X116640000Y-69020000D01*
X119440000Y-69020000D01*
X119440000Y-68822172D01*
X119439999Y-68822155D01*
X119433598Y-68762627D01*
X119433596Y-68762620D01*
X119383354Y-68627913D01*
X119383353Y-68627911D01*
X119315540Y-68537325D01*
X119291123Y-68471861D01*
X119305974Y-68403588D01*
X119352805Y-68355628D01*
X119422319Y-68315495D01*
X120967819Y-66769995D01*
X121029142Y-66736510D01*
X121098834Y-66741494D01*
X121154767Y-66783366D01*
X121179184Y-66848830D01*
X121179500Y-66857676D01*
X121179500Y-67944678D01*
X121194032Y-68017735D01*
X121194033Y-68017739D01*
X121194034Y-68017740D01*
X121249399Y-68100601D01*
X121274388Y-68117298D01*
X121319194Y-68170907D01*
X121329500Y-68220401D01*
X121329500Y-68275892D01*
X121346554Y-68339539D01*
X121363608Y-68403187D01*
X121381687Y-68434500D01*
X121429500Y-68517314D01*
X121429502Y-68517316D01*
X123107089Y-70194903D01*
X123133965Y-70235121D01*
X123137015Y-70242482D01*
X123137016Y-70242485D01*
X123209491Y-70368015D01*
X123311985Y-70470509D01*
X123311986Y-70470510D01*
X123311988Y-70470511D01*
X123437511Y-70542982D01*
X123437512Y-70542982D01*
X123437515Y-70542984D01*
X123577525Y-70580500D01*
X123577528Y-70580500D01*
X123722472Y-70580500D01*
X123722475Y-70580500D01*
X123862485Y-70542984D01*
X123973501Y-70478888D01*
X124041399Y-70462416D01*
X124107426Y-70485268D01*
X124150617Y-70540189D01*
X124159500Y-70586276D01*
X124159500Y-71472710D01*
X124150063Y-71520159D01*
X124147016Y-71527513D01*
X124139234Y-71556558D01*
X124109500Y-71667525D01*
X124109500Y-71812475D01*
X124138446Y-71920500D01*
X124147017Y-71952488D01*
X124219488Y-72078011D01*
X124219490Y-72078013D01*
X124219491Y-72078015D01*
X124321985Y-72180509D01*
X124321986Y-72180510D01*
X124321988Y-72180511D01*
X124447511Y-72252982D01*
X124447512Y-72252982D01*
X124447515Y-72252984D01*
X124587525Y-72290500D01*
X124587528Y-72290500D01*
X124732472Y-72290500D01*
X124732475Y-72290500D01*
X124872485Y-72252984D01*
X124998015Y-72180509D01*
X125100509Y-72078015D01*
X125172984Y-71952485D01*
X125210500Y-71812475D01*
X125210500Y-71667525D01*
X125172984Y-71527515D01*
X125172983Y-71527513D01*
X125169937Y-71520159D01*
X125160500Y-71472710D01*
X125160500Y-70547823D01*
X125180185Y-70480784D01*
X125232989Y-70435029D01*
X125302147Y-70425085D01*
X125346497Y-70440434D01*
X125437515Y-70492984D01*
X125577525Y-70530500D01*
X125577528Y-70530500D01*
X125722472Y-70530500D01*
X125722475Y-70530500D01*
X125862485Y-70492984D01*
X125933501Y-70451982D01*
X126001399Y-70435510D01*
X126067426Y-70458362D01*
X126110617Y-70513283D01*
X126119500Y-70559370D01*
X126119500Y-71556558D01*
X126115275Y-71588650D01*
X126099500Y-71647523D01*
X126099500Y-71647525D01*
X126099500Y-71792475D01*
X126133805Y-71920500D01*
X126137017Y-71932488D01*
X126209488Y-72058011D01*
X126209490Y-72058014D01*
X126209491Y-72058015D01*
X126311985Y-72160509D01*
X126311986Y-72160510D01*
X126311988Y-72160511D01*
X126437511Y-72232982D01*
X126437512Y-72232982D01*
X126437515Y-72232984D01*
X126577525Y-72270500D01*
X126577528Y-72270500D01*
X126722472Y-72270500D01*
X126722475Y-72270500D01*
X126862485Y-72232984D01*
X126988015Y-72160509D01*
X127090509Y-72058015D01*
X127162984Y-71932485D01*
X127200500Y-71792475D01*
X127200500Y-71647525D01*
X127162984Y-71507515D01*
X127137112Y-71462703D01*
X127120500Y-71400704D01*
X127120500Y-69754107D01*
X127115135Y-69734087D01*
X127115134Y-69734083D01*
X127086393Y-69626816D01*
X127086392Y-69626815D01*
X127086392Y-69626814D01*
X127074833Y-69606793D01*
X127020500Y-69512686D01*
X126927314Y-69419500D01*
X126927313Y-69419499D01*
X126922983Y-69415169D01*
X126922972Y-69415159D01*
X125516819Y-68009005D01*
X125483334Y-67947682D01*
X125480500Y-67921324D01*
X125480500Y-66095323D01*
X125480499Y-66095321D01*
X125465967Y-66022262D01*
X125465966Y-66022260D01*
X125410601Y-65939399D01*
X125330000Y-65885544D01*
X125327739Y-65884033D01*
X125327735Y-65884032D01*
X125254677Y-65869500D01*
X125254674Y-65869500D01*
X124405326Y-65869500D01*
X124354190Y-65879671D01*
X124305810Y-65879671D01*
X124254674Y-65869500D01*
X123405326Y-65869500D01*
X123354190Y-65879671D01*
X123305810Y-65879671D01*
X123254674Y-65869500D01*
X122405326Y-65869500D01*
X122354190Y-65879671D01*
X122320439Y-65881684D01*
X122313055Y-65881113D01*
X122254674Y-65869500D01*
X122162887Y-65869500D01*
X122158115Y-65869131D01*
X122129743Y-65858361D01*
X122100637Y-65849815D01*
X122097407Y-65846087D01*
X122092793Y-65844336D01*
X122074747Y-65819936D01*
X122054882Y-65797011D01*
X122054179Y-65792127D01*
X122051246Y-65788161D01*
X122049256Y-65757885D01*
X122044938Y-65727853D01*
X122046987Y-65723365D01*
X122046664Y-65718442D01*
X122061358Y-65691896D01*
X122073963Y-65664297D01*
X122079995Y-65657819D01*
X123090995Y-64646819D01*
X123152318Y-64613334D01*
X123178676Y-64610500D01*
X127071324Y-64610500D01*
X127138363Y-64630185D01*
X127159005Y-64646819D01*
X127873181Y-65360995D01*
X127906666Y-65422318D01*
X127909500Y-65448676D01*
X127909500Y-69784108D01*
X127909500Y-69915892D01*
X127910735Y-69920500D01*
X127943608Y-70043187D01*
X127966637Y-70083074D01*
X128009500Y-70157314D01*
X128717545Y-70865359D01*
X129425159Y-71572972D01*
X129425169Y-71572983D01*
X129429499Y-71577313D01*
X129429500Y-71577314D01*
X129522686Y-71670500D01*
X129624877Y-71729500D01*
X129636814Y-71736392D01*
X129764107Y-71770500D01*
X129764108Y-71770500D01*
X130673723Y-71770500D01*
X130740762Y-71790185D01*
X130786517Y-71842989D01*
X130796461Y-71912147D01*
X130781110Y-71956500D01*
X130722500Y-72058016D01*
X130717016Y-72067513D01*
X130714202Y-72078017D01*
X130679500Y-72207525D01*
X130679500Y-72207527D01*
X130679500Y-72352474D01*
X130700071Y-72429250D01*
X130717013Y-72492478D01*
X130717016Y-72492485D01*
X130789490Y-72618015D01*
X130891985Y-72720510D01*
X130891986Y-72720511D01*
X130891988Y-72720512D01*
X131001274Y-72783608D01*
X131014846Y-72791443D01*
X131017515Y-72792984D01*
X131157525Y-72830500D01*
X131157526Y-72830500D01*
X131157528Y-72830500D01*
X131302473Y-72830500D01*
X131302474Y-72830500D01*
X131302475Y-72830500D01*
X131313405Y-72827571D01*
X131383254Y-72829232D01*
X131441117Y-72868394D01*
X131468623Y-72932622D01*
X131469500Y-72947345D01*
X131469500Y-73694674D01*
X131471585Y-73705159D01*
X131479671Y-73745810D01*
X131479671Y-73794190D01*
X131469500Y-73845326D01*
X131469500Y-74694673D01*
X131479671Y-74745810D01*
X131479671Y-74794190D01*
X131469500Y-74845326D01*
X131469500Y-75694673D01*
X131479671Y-75745810D01*
X131479671Y-75794190D01*
X131469500Y-75845326D01*
X131469500Y-76694673D01*
X131479671Y-76745810D01*
X131479671Y-76794190D01*
X131469500Y-76845326D01*
X131469500Y-77680500D01*
X131449815Y-77747539D01*
X131397011Y-77793294D01*
X131345500Y-77804500D01*
X131307399Y-77804500D01*
X131226775Y-77826103D01*
X131186463Y-77836905D01*
X131078037Y-77899504D01*
X131078034Y-77899506D01*
X130989506Y-77988034D01*
X130989504Y-77988037D01*
X130926905Y-78096463D01*
X130920332Y-78120995D01*
X130894500Y-78217399D01*
X130894500Y-78342601D01*
X130926905Y-78463536D01*
X130989505Y-78571964D01*
X131078036Y-78660495D01*
X131186464Y-78723095D01*
X131307399Y-78755500D01*
X131307401Y-78755500D01*
X131345500Y-78755500D01*
X131412539Y-78775185D01*
X131458294Y-78827989D01*
X131469500Y-78879500D01*
X131469500Y-79694673D01*
X131479671Y-79745810D01*
X131479671Y-79794190D01*
X131469500Y-79845326D01*
X131469500Y-80694678D01*
X131484032Y-80767735D01*
X131484033Y-80767739D01*
X131496635Y-80786599D01*
X131539399Y-80850601D01*
X131591630Y-80885500D01*
X131622260Y-80905966D01*
X131622264Y-80905967D01*
X131695321Y-80920499D01*
X131695324Y-80920500D01*
X131695326Y-80920500D01*
X133544676Y-80920500D01*
X133544677Y-80920499D01*
X133617740Y-80905966D01*
X133700601Y-80850601D01*
X133700600Y-80850601D01*
X133710756Y-80843816D01*
X133712745Y-80846793D01*
X133755707Y-80823334D01*
X133782065Y-80820500D01*
X133992472Y-80820500D01*
X133992475Y-80820500D01*
X134132485Y-80782984D01*
X134258015Y-80710509D01*
X134360509Y-80608015D01*
X134432984Y-80482485D01*
X134470500Y-80342475D01*
X134470500Y-80197525D01*
X134432984Y-80057515D01*
X134429273Y-80051087D01*
X134403531Y-80006500D01*
X134387058Y-79938600D01*
X134409911Y-79872573D01*
X134464832Y-79829382D01*
X134510918Y-79820500D01*
X136332472Y-79820500D01*
X136332474Y-79820500D01*
X136332475Y-79820500D01*
X136472485Y-79782984D01*
X136480789Y-79778189D01*
X136482308Y-79777313D01*
X136585341Y-79717827D01*
X136598015Y-79710510D01*
X137701706Y-78606819D01*
X137763029Y-78573334D01*
X137789387Y-78570500D01*
X139745316Y-78570500D01*
X139812355Y-78590185D01*
X139858110Y-78642989D01*
X139868054Y-78712147D01*
X139839029Y-78775703D01*
X139802942Y-78804296D01*
X139704035Y-78856206D01*
X139704026Y-78856212D01*
X139455078Y-79028047D01*
X139455072Y-79028052D01*
X139228648Y-79228646D01*
X139228646Y-79228648D01*
X139028052Y-79455072D01*
X139028047Y-79455078D01*
X138856212Y-79704026D01*
X138856206Y-79704035D01*
X138715628Y-79971882D01*
X138608358Y-80254727D01*
X138586375Y-80343918D01*
X138535963Y-80548449D01*
X138529439Y-80602180D01*
X138499500Y-80848745D01*
X138499500Y-86518770D01*
X138479815Y-86585809D01*
X138427011Y-86631564D01*
X138357853Y-86641508D01*
X138294297Y-86612483D01*
X138287819Y-86606451D01*
X138268419Y-86587051D01*
X138268415Y-86587048D01*
X138145501Y-86504919D01*
X138145488Y-86504912D01*
X138008917Y-86448343D01*
X138008907Y-86448340D01*
X137863920Y-86419500D01*
X137863918Y-86419500D01*
X137716082Y-86419500D01*
X137716080Y-86419500D01*
X137571092Y-86448340D01*
X137571082Y-86448343D01*
X137434511Y-86504912D01*
X137434498Y-86504919D01*
X137311587Y-86587046D01*
X137197048Y-86701583D01*
X137171713Y-86739499D01*
X137171714Y-86739500D01*
X137114913Y-86824508D01*
X137058343Y-86961082D01*
X137058340Y-86961092D01*
X137029500Y-87106079D01*
X137029500Y-87795579D01*
X137009815Y-87862618D01*
X136957011Y-87908373D01*
X136887853Y-87918317D01*
X136849751Y-87906340D01*
X136747139Y-87854693D01*
X136747138Y-87854692D01*
X136622379Y-87837668D01*
X134445178Y-87902418D01*
X134445168Y-87902419D01*
X134371887Y-87911735D01*
X134255358Y-87959431D01*
X134255357Y-87959432D01*
X134160628Y-88042382D01*
X134097965Y-88151598D01*
X134074159Y-88275243D01*
X133980610Y-92037921D01*
X133959265Y-92104450D01*
X133908541Y-92147458D01*
X132511187Y-92791337D01*
X132499952Y-92793753D01*
X132493269Y-92797973D01*
X132458294Y-92802714D01*
X132376425Y-92802054D01*
X132309547Y-92781830D01*
X132264219Y-92728659D01*
X132254833Y-92659422D01*
X132284198Y-92596298D01*
X132302876Y-92575000D01*
X132291771Y-92490659D01*
X132291770Y-92490654D01*
X132231983Y-92346313D01*
X132234226Y-92345383D01*
X132220655Y-92289452D01*
X132243505Y-92223424D01*
X132298424Y-92180231D01*
X132301329Y-92179111D01*
X133192929Y-91848659D01*
X133267257Y-91811482D01*
X133360413Y-91726767D01*
X133421013Y-91616394D01*
X133442493Y-91492325D01*
X133462493Y-88202325D01*
X133452522Y-88113204D01*
X133404155Y-87996949D01*
X133320661Y-87902698D01*
X133211088Y-87840664D01*
X133087309Y-87817570D01*
X133087304Y-87817569D01*
X130915501Y-87776062D01*
X130848849Y-87755100D01*
X130804112Y-87701432D01*
X130795492Y-87632096D01*
X130798090Y-87620011D01*
X130830500Y-87499057D01*
X130830500Y-87340943D01*
X130789577Y-87188215D01*
X130747043Y-87114546D01*
X130730571Y-87046647D01*
X130753423Y-86980620D01*
X130808344Y-86937429D01*
X130815429Y-86934839D01*
X130851303Y-86922951D01*
X130851311Y-86922948D01*
X130998034Y-86832447D01*
X130998038Y-86832444D01*
X131119944Y-86710538D01*
X131119947Y-86710534D01*
X131210448Y-86563811D01*
X131210453Y-86563800D01*
X131264680Y-86400152D01*
X131274999Y-86299154D01*
X131275000Y-86299141D01*
X131275000Y-86250000D01*
X130424000Y-86250000D01*
X130356961Y-86230315D01*
X130311206Y-86177511D01*
X130300000Y-86126000D01*
X130300000Y-85874000D01*
X130319685Y-85806961D01*
X130372489Y-85761206D01*
X130424000Y-85750000D01*
X131274999Y-85750000D01*
X131274999Y-85700860D01*
X131274998Y-85700845D01*
X131264680Y-85599847D01*
X131210453Y-85436199D01*
X131210448Y-85436188D01*
X131119947Y-85289465D01*
X131119944Y-85289461D01*
X130998038Y-85167555D01*
X130998034Y-85167552D01*
X130851311Y-85077051D01*
X130851302Y-85077047D01*
X130819850Y-85066625D01*
X130811942Y-85061150D01*
X130802491Y-85059369D01*
X130783683Y-85041584D01*
X130762406Y-85026852D01*
X130758714Y-85017972D01*
X130751725Y-85011363D01*
X130745518Y-84986233D01*
X130735583Y-84962336D01*
X130737278Y-84952868D01*
X130734972Y-84943531D01*
X130743335Y-84919037D01*
X130747898Y-84893560D01*
X130755044Y-84884750D01*
X130757551Y-84877410D01*
X130778343Y-84856028D01*
X130781801Y-84851766D01*
X130783148Y-84850697D01*
X130886116Y-84773616D01*
X130894564Y-84762330D01*
X130907152Y-84752347D01*
X130925250Y-84745014D01*
X130940880Y-84733316D01*
X130964757Y-84729008D01*
X130971909Y-84726111D01*
X130976266Y-84726932D01*
X130984206Y-84725500D01*
X131311006Y-84725500D01*
X131378045Y-84745185D01*
X131385317Y-84750233D01*
X131427419Y-84781751D01*
X131438722Y-84790212D01*
X131531094Y-84824665D01*
X131570200Y-84839251D01*
X131628309Y-84845499D01*
X131628326Y-84845500D01*
X132321674Y-84845500D01*
X132321690Y-84845499D01*
X132379799Y-84839251D01*
X132384933Y-84837336D01*
X132511278Y-84790212D01*
X132533445Y-84773618D01*
X132600445Y-84723462D01*
X132665909Y-84699044D01*
X132734182Y-84713895D01*
X132780294Y-84757630D01*
X132817554Y-84818037D01*
X132939461Y-84939944D01*
X132939465Y-84939947D01*
X133086188Y-85030448D01*
X133086199Y-85030453D01*
X133249847Y-85084680D01*
X133350851Y-85094999D01*
X133950000Y-85094999D01*
X134049140Y-85094999D01*
X134049154Y-85094998D01*
X134150152Y-85084680D01*
X134313800Y-85030453D01*
X134313811Y-85030448D01*
X134460534Y-84939947D01*
X134460538Y-84939944D01*
X134582444Y-84818038D01*
X134582447Y-84818034D01*
X134672948Y-84671311D01*
X134672953Y-84671300D01*
X134727180Y-84507652D01*
X134737499Y-84406654D01*
X134737500Y-84406641D01*
X134737500Y-84370000D01*
X133950000Y-84370000D01*
X133950000Y-85094999D01*
X133350851Y-85094999D01*
X133450000Y-85094998D01*
X133450000Y-83870000D01*
X133950000Y-83870000D01*
X134737499Y-83870000D01*
X134737499Y-83833360D01*
X134737498Y-83833345D01*
X134727180Y-83732347D01*
X134672953Y-83568699D01*
X134672948Y-83568688D01*
X134582447Y-83421965D01*
X134582444Y-83421961D01*
X134460538Y-83300055D01*
X134460534Y-83300052D01*
X134313811Y-83209551D01*
X134313800Y-83209546D01*
X134150152Y-83155319D01*
X134049154Y-83145000D01*
X133950000Y-83145000D01*
X133950000Y-83870000D01*
X133450000Y-83870000D01*
X133450000Y-83144999D01*
X133350860Y-83145000D01*
X133350844Y-83145001D01*
X133249847Y-83155319D01*
X133086199Y-83209546D01*
X133086188Y-83209551D01*
X132939465Y-83300052D01*
X132939461Y-83300055D01*
X132817554Y-83421962D01*
X132780294Y-83482370D01*
X132728345Y-83529094D01*
X132659383Y-83540315D01*
X132600445Y-83516538D01*
X132511282Y-83449790D01*
X132511279Y-83449789D01*
X132511278Y-83449788D01*
X132444516Y-83424887D01*
X132379799Y-83400748D01*
X132321690Y-83394500D01*
X132321674Y-83394500D01*
X131628326Y-83394500D01*
X131628309Y-83394500D01*
X131570200Y-83400748D01*
X131438719Y-83449789D01*
X131326383Y-83533884D01*
X131295745Y-83574812D01*
X131292089Y-83577548D01*
X131290192Y-83581703D01*
X131264374Y-83598294D01*
X131239811Y-83616682D01*
X131234183Y-83617697D01*
X131231414Y-83619477D01*
X131196479Y-83624500D01*
X130984206Y-83624500D01*
X130917167Y-83604815D01*
X130892860Y-83582187D01*
X130892390Y-83582658D01*
X130886118Y-83576387D01*
X130886116Y-83576384D01*
X130784748Y-83500500D01*
X130773780Y-83492289D01*
X130773778Y-83492288D01*
X130747144Y-83482354D01*
X130642299Y-83443248D01*
X130584190Y-83437000D01*
X130584174Y-83437000D01*
X130015826Y-83437000D01*
X130015809Y-83437000D01*
X129957700Y-83443248D01*
X129826219Y-83492289D01*
X129713883Y-83576385D01*
X129710298Y-83579969D01*
X129709507Y-83581703D01*
X129683684Y-83598298D01*
X129659120Y-83616684D01*
X129653496Y-83617698D01*
X129650729Y-83619477D01*
X129615794Y-83624500D01*
X129504500Y-83624500D01*
X129437461Y-83604815D01*
X129391706Y-83552011D01*
X129380500Y-83500500D01*
X129380500Y-83322064D01*
X129400185Y-83255025D01*
X129404736Y-83249376D01*
X129410597Y-83240603D01*
X129410601Y-83240601D01*
X129465966Y-83157740D01*
X129480500Y-83084674D01*
X129480500Y-81235326D01*
X129480500Y-81235323D01*
X129480499Y-81235321D01*
X129465967Y-81162264D01*
X129465966Y-81162260D01*
X129410601Y-81079399D01*
X129327740Y-81024034D01*
X129327739Y-81024033D01*
X129327735Y-81024032D01*
X129254677Y-81009500D01*
X129254674Y-81009500D01*
X128405326Y-81009500D01*
X128354190Y-81019671D01*
X128305810Y-81019671D01*
X128254674Y-81009500D01*
X127454500Y-81009500D01*
X127387461Y-80989815D01*
X127341706Y-80937011D01*
X127330500Y-80885500D01*
X127330500Y-79194109D01*
X127330500Y-79194108D01*
X127323257Y-79167078D01*
X127296392Y-79066814D01*
X127282428Y-79042628D01*
X127276468Y-79032305D01*
X127250882Y-78987988D01*
X127238494Y-78958083D01*
X127232984Y-78937515D01*
X127160509Y-78811985D01*
X127058015Y-78709491D01*
X127058013Y-78709490D01*
X127058011Y-78709488D01*
X126932488Y-78637017D01*
X126932489Y-78637017D01*
X126912836Y-78631751D01*
X126792475Y-78599500D01*
X126647525Y-78599500D01*
X126549108Y-78625870D01*
X126507510Y-78637017D01*
X126501944Y-78639323D01*
X126432474Y-78646786D01*
X126369997Y-78615506D01*
X126334349Y-78555415D01*
X126330500Y-78524758D01*
X126330500Y-77884110D01*
X126330500Y-77884108D01*
X126296392Y-77756814D01*
X126230500Y-77642686D01*
X126226819Y-77639005D01*
X126212115Y-77612077D01*
X126195523Y-77586259D01*
X126194631Y-77580058D01*
X126193334Y-77577682D01*
X126190500Y-77551324D01*
X126190500Y-77547288D01*
X126199941Y-77499831D01*
X126202982Y-77492488D01*
X126202981Y-77492488D01*
X126202984Y-77492485D01*
X126240500Y-77352475D01*
X126240500Y-77207525D01*
X126202984Y-77067515D01*
X126166555Y-77004419D01*
X126130511Y-76941988D01*
X126130506Y-76941982D01*
X126028017Y-76839493D01*
X126028011Y-76839488D01*
X125902488Y-76767017D01*
X125902489Y-76767017D01*
X125891006Y-76763940D01*
X125762475Y-76729500D01*
X125617525Y-76729500D01*
X125488993Y-76763940D01*
X125477511Y-76767017D01*
X125351988Y-76839488D01*
X125351982Y-76839493D01*
X125249493Y-76941982D01*
X125249488Y-76941988D01*
X125177017Y-77067511D01*
X125176486Y-77069493D01*
X125139500Y-77207525D01*
X125139500Y-77352475D01*
X125177016Y-77492485D01*
X125177017Y-77492488D01*
X125180059Y-77499831D01*
X125189500Y-77547288D01*
X125189500Y-77744108D01*
X125189500Y-77875892D01*
X125191702Y-77884110D01*
X125223608Y-78003187D01*
X125256554Y-78060250D01*
X125289500Y-78117314D01*
X125289502Y-78117316D01*
X125293181Y-78120995D01*
X125326666Y-78182318D01*
X125329500Y-78208676D01*
X125329500Y-78890475D01*
X125309815Y-78957514D01*
X125257011Y-79003269D01*
X125187853Y-79013213D01*
X125124297Y-78984188D01*
X125098114Y-78952476D01*
X125080513Y-78921991D01*
X125080510Y-78921988D01*
X125080509Y-78921985D01*
X124978015Y-78819491D01*
X124978013Y-78819490D01*
X124978011Y-78819488D01*
X124852488Y-78747017D01*
X124852489Y-78747017D01*
X124837628Y-78743035D01*
X124712475Y-78709500D01*
X124567525Y-78709500D01*
X124442372Y-78743035D01*
X124427511Y-78747017D01*
X124356500Y-78788016D01*
X124288600Y-78804489D01*
X124222573Y-78781636D01*
X124179382Y-78726715D01*
X124170500Y-78680629D01*
X124170500Y-77777288D01*
X124179941Y-77729831D01*
X124182982Y-77722488D01*
X124182981Y-77722488D01*
X124182984Y-77722485D01*
X124220500Y-77582475D01*
X124220500Y-77437525D01*
X124182984Y-77297515D01*
X124131029Y-77207527D01*
X124110511Y-77171988D01*
X124110506Y-77171982D01*
X124008017Y-77069493D01*
X124008011Y-77069488D01*
X123882488Y-76997017D01*
X123882489Y-76997017D01*
X123871006Y-76993940D01*
X123742475Y-76959500D01*
X123597525Y-76959500D01*
X123468993Y-76993940D01*
X123457511Y-76997017D01*
X123331988Y-77069488D01*
X123331982Y-77069493D01*
X123229493Y-77171982D01*
X123229488Y-77171988D01*
X123157017Y-77297511D01*
X123157016Y-77297515D01*
X123119500Y-77437525D01*
X123119500Y-77582475D01*
X123157016Y-77722485D01*
X123157017Y-77722488D01*
X123160059Y-77729831D01*
X123169500Y-77777288D01*
X123169500Y-78489497D01*
X123149815Y-78556536D01*
X123097011Y-78602291D01*
X123027853Y-78612235D01*
X122983500Y-78596884D01*
X122862488Y-78527017D01*
X122862489Y-78527017D01*
X122851006Y-78523940D01*
X122722475Y-78489500D01*
X122577525Y-78489500D01*
X122448993Y-78523940D01*
X122437511Y-78527017D01*
X122311988Y-78599488D01*
X122311982Y-78599493D01*
X122209493Y-78701982D01*
X122209488Y-78701988D01*
X122137017Y-78827511D01*
X122137016Y-78827515D01*
X122099500Y-78967525D01*
X122099500Y-78967527D01*
X122099500Y-79120602D01*
X122096124Y-79120602D01*
X122087686Y-79174238D01*
X122063264Y-79208920D01*
X121522686Y-79749500D01*
X121429502Y-79842683D01*
X121429500Y-79842686D01*
X121363608Y-79956812D01*
X121329500Y-80084108D01*
X121329500Y-80959598D01*
X121309815Y-81026637D01*
X121274391Y-81062700D01*
X121249399Y-81079398D01*
X121194033Y-81162260D01*
X121194032Y-81162264D01*
X121179500Y-81235321D01*
X121179500Y-83084678D01*
X121194032Y-83157735D01*
X121194033Y-83157739D01*
X121202868Y-83170961D01*
X121223745Y-83237639D01*
X121205260Y-83305019D01*
X121165138Y-83345219D01*
X121154652Y-83351724D01*
X121106222Y-83369788D01*
X121012718Y-83439784D01*
X121008116Y-83442640D01*
X120979455Y-83450562D01*
X120951590Y-83460956D01*
X120946143Y-83459771D01*
X120940772Y-83461256D01*
X120912372Y-83452424D01*
X120883317Y-83446104D01*
X120879058Y-83442065D01*
X120874054Y-83440509D01*
X120860946Y-83424887D01*
X120837204Y-83402369D01*
X120799943Y-83341960D01*
X120678038Y-83220055D01*
X120678034Y-83220052D01*
X120531311Y-83129551D01*
X120531300Y-83129546D01*
X120367652Y-83075319D01*
X120266654Y-83065000D01*
X120167500Y-83065000D01*
X120167500Y-85014999D01*
X120266640Y-85014999D01*
X120266654Y-85014998D01*
X120367652Y-85004680D01*
X120531300Y-84950453D01*
X120531311Y-84950448D01*
X120678034Y-84859947D01*
X120678038Y-84859944D01*
X120799945Y-84738037D01*
X120837204Y-84677631D01*
X120889152Y-84630906D01*
X120958114Y-84619683D01*
X121017052Y-84643460D01*
X121106222Y-84710212D01*
X121180816Y-84738034D01*
X121237700Y-84759251D01*
X121295809Y-84765499D01*
X121295826Y-84765500D01*
X121989174Y-84765500D01*
X121989190Y-84765499D01*
X122047299Y-84759251D01*
X122071477Y-84750233D01*
X122178778Y-84710212D01*
X122291116Y-84626116D01*
X122291116Y-84626115D01*
X122292295Y-84625233D01*
X122313043Y-84617494D01*
X122331671Y-84605523D01*
X122353587Y-84602371D01*
X122357759Y-84600816D01*
X122366606Y-84600500D01*
X122585794Y-84600500D01*
X122652833Y-84620185D01*
X122677139Y-84642812D01*
X122677610Y-84642342D01*
X122683881Y-84648612D01*
X122683884Y-84648616D01*
X122766163Y-84710210D01*
X122785456Y-84724653D01*
X122796222Y-84732712D01*
X122868714Y-84759750D01*
X122927700Y-84781751D01*
X122985809Y-84787999D01*
X122985826Y-84788000D01*
X123554174Y-84788000D01*
X123554190Y-84787999D01*
X123612299Y-84781751D01*
X123634104Y-84773618D01*
X123743778Y-84732712D01*
X123856116Y-84648616D01*
X123856121Y-84648608D01*
X123859701Y-84645030D01*
X123860493Y-84643297D01*
X123886315Y-84626701D01*
X123910880Y-84608316D01*
X123916503Y-84607301D01*
X123919271Y-84605523D01*
X123954206Y-84600500D01*
X124125794Y-84600500D01*
X124192833Y-84620185D01*
X124217139Y-84642812D01*
X124217610Y-84642342D01*
X124223881Y-84648612D01*
X124223884Y-84648616D01*
X124223887Y-84648618D01*
X124325455Y-84724653D01*
X124367326Y-84780587D01*
X124372310Y-84850278D01*
X124338824Y-84911601D01*
X124290150Y-84941624D01*
X124258703Y-84952045D01*
X124258688Y-84952051D01*
X124111965Y-85042552D01*
X124111961Y-85042555D01*
X123990055Y-85164461D01*
X123971746Y-85194144D01*
X123919797Y-85240867D01*
X123850834Y-85252087D01*
X123791898Y-85228310D01*
X123743782Y-85192290D01*
X123743779Y-85192289D01*
X123743778Y-85192288D01*
X123699484Y-85175767D01*
X123612299Y-85143248D01*
X123554190Y-85137000D01*
X123554174Y-85137000D01*
X122985826Y-85137000D01*
X122985809Y-85137000D01*
X122927700Y-85143248D01*
X122796219Y-85192289D01*
X122683883Y-85276385D01*
X122677610Y-85282658D01*
X122676313Y-85281360D01*
X122629120Y-85316684D01*
X122585794Y-85324500D01*
X121827459Y-85324500D01*
X121795371Y-85320276D01*
X121792474Y-85319500D01*
X121647526Y-85319500D01*
X121542517Y-85347637D01*
X121507514Y-85357016D01*
X121381986Y-85429489D01*
X121381983Y-85429491D01*
X121279491Y-85531983D01*
X121279489Y-85531986D01*
X121207016Y-85657514D01*
X121207016Y-85657515D01*
X121169500Y-85797526D01*
X121169500Y-85942474D01*
X121207016Y-86082485D01*
X121279490Y-86208015D01*
X121386985Y-86315510D01*
X121512515Y-86387984D01*
X121652525Y-86425500D01*
X121652526Y-86425500D01*
X121797474Y-86425500D01*
X122585794Y-86425500D01*
X122652833Y-86445185D01*
X122655948Y-86447253D01*
X122672808Y-86458821D01*
X122683884Y-86473616D01*
X122796222Y-86557712D01*
X122841608Y-86574640D01*
X122854161Y-86583253D01*
X122867002Y-86599009D01*
X122883274Y-86611190D01*
X122888626Y-86625540D01*
X122898303Y-86637413D01*
X122900587Y-86657609D01*
X122907691Y-86676654D01*
X122904435Y-86691620D01*
X122906157Y-86706840D01*
X122897159Y-86725066D01*
X122892839Y-86744927D01*
X122882009Y-86755756D01*
X122875229Y-86769492D01*
X122857805Y-86779960D01*
X122843434Y-86794332D01*
X122826833Y-86798568D01*
X122815338Y-86805476D01*
X122801417Y-86805056D01*
X122784007Y-86809500D01*
X119930941Y-86809500D01*
X119846592Y-86832101D01*
X119776743Y-86830438D01*
X119718880Y-86791275D01*
X119691377Y-86727046D01*
X119690500Y-86712326D01*
X119690500Y-86615323D01*
X119690499Y-86615321D01*
X119675967Y-86542264D01*
X119675966Y-86542260D01*
X119620601Y-86459399D01*
X119537740Y-86404034D01*
X119537739Y-86404033D01*
X119537735Y-86404032D01*
X119464677Y-86389500D01*
X119464674Y-86389500D01*
X117715326Y-86389500D01*
X117715323Y-86389500D01*
X117642264Y-86404032D01*
X117642260Y-86404033D01*
X117559399Y-86459399D01*
X117504033Y-86542260D01*
X117504032Y-86542264D01*
X117489500Y-86615321D01*
X117489500Y-88364678D01*
X117504032Y-88437735D01*
X117504033Y-88437739D01*
X117522405Y-88465235D01*
X117559399Y-88520601D01*
X117642260Y-88575966D01*
X117642264Y-88575967D01*
X117715321Y-88590499D01*
X117715324Y-88590500D01*
X117715326Y-88590500D01*
X119464676Y-88590500D01*
X119464677Y-88590499D01*
X119537740Y-88575966D01*
X119620601Y-88520601D01*
X119675966Y-88437740D01*
X119690500Y-88364674D01*
X119690500Y-88214500D01*
X119693050Y-88205814D01*
X119691762Y-88196853D01*
X119702740Y-88172812D01*
X119710185Y-88147461D01*
X119717025Y-88141533D01*
X119720787Y-88133297D01*
X119743021Y-88119007D01*
X119762989Y-88101706D01*
X119773503Y-88099418D01*
X119779565Y-88095523D01*
X119814500Y-88090500D01*
X119843331Y-88090500D01*
X119843347Y-88090501D01*
X119850943Y-88090501D01*
X120009054Y-88090501D01*
X120009057Y-88090501D01*
X120161785Y-88049577D01*
X120200694Y-88027112D01*
X120262694Y-88010500D01*
X126795006Y-88010500D01*
X126862045Y-88030185D01*
X126907800Y-88082989D01*
X126917744Y-88152147D01*
X126916260Y-88160453D01*
X126915318Y-88164849D01*
X126905000Y-88265845D01*
X126905000Y-88365000D01*
X128931138Y-88365000D01*
X128939652Y-88367500D01*
X129286000Y-88367500D01*
X129353039Y-88387185D01*
X129398794Y-88439989D01*
X129410000Y-88491500D01*
X129410000Y-88743500D01*
X129390315Y-88810539D01*
X129337511Y-88856294D01*
X129286000Y-88867500D01*
X128358862Y-88867500D01*
X128350348Y-88865000D01*
X126905001Y-88865000D01*
X126905001Y-88914674D01*
X126919914Y-89079021D01*
X126969546Y-89228800D01*
X126969551Y-89228811D01*
X127060052Y-89375534D01*
X127060055Y-89375538D01*
X127181960Y-89497443D01*
X127242369Y-89534704D01*
X127252135Y-89545562D01*
X127264953Y-89552561D01*
X127275031Y-89571018D01*
X127289093Y-89586652D01*
X127291438Y-89601065D01*
X127298438Y-89613884D01*
X127296937Y-89634861D01*
X127300315Y-89655615D01*
X127294406Y-89670263D01*
X127293454Y-89683576D01*
X127276540Y-89714551D01*
X127227686Y-89779812D01*
X127171756Y-89821681D01*
X127128422Y-89829500D01*
X127122475Y-89829500D01*
X126977525Y-89829500D01*
X126843165Y-89865501D01*
X126773316Y-89863839D01*
X126715453Y-89824677D01*
X126687949Y-89760448D01*
X126687099Y-89748321D01*
X126672260Y-89036001D01*
X126661174Y-88952211D01*
X126611261Y-88836611D01*
X126526517Y-88743482D01*
X126416126Y-88682916D01*
X126292050Y-88661474D01*
X123476613Y-88645228D01*
X123476148Y-88645224D01*
X123083487Y-88641485D01*
X123083486Y-88641485D01*
X123071794Y-88642886D01*
X122985922Y-88653177D01*
X122870613Y-88703765D01*
X122777982Y-88789049D01*
X122718060Y-88899794D01*
X122718058Y-88899798D01*
X122697343Y-89023989D01*
X122697499Y-91480018D01*
X122708045Y-91569195D01*
X122708046Y-91569197D01*
X122757161Y-91685138D01*
X122841262Y-91778848D01*
X122951233Y-91840174D01*
X123013972Y-91851461D01*
X123076465Y-91882704D01*
X123112148Y-91942775D01*
X123109689Y-92012601D01*
X123069870Y-92070013D01*
X123039946Y-92087863D01*
X122958819Y-92121864D01*
X122864785Y-92205603D01*
X122803036Y-92315338D01*
X122780265Y-92439172D01*
X122759575Y-93692567D01*
X122738787Y-93759272D01*
X122723273Y-93778201D01*
X122291991Y-94209483D01*
X122291989Y-94209486D01*
X122228699Y-94319110D01*
X122228698Y-94319111D01*
X122219516Y-94335013D01*
X122214476Y-94353824D01*
X122182000Y-94475025D01*
X122182000Y-94475027D01*
X122182000Y-94547177D01*
X122172391Y-94579900D01*
X122163229Y-94612773D01*
X122162508Y-94613557D01*
X122162315Y-94614216D01*
X122140486Y-94639763D01*
X122136542Y-94643276D01*
X122037454Y-94717454D01*
X122005757Y-94759794D01*
X121996451Y-94768086D01*
X121975688Y-94777915D01*
X121957299Y-94791682D01*
X121940029Y-94794797D01*
X121933301Y-94797983D01*
X121926944Y-94797158D01*
X121913965Y-94799500D01*
X121382229Y-94799500D01*
X121315190Y-94779815D01*
X121294548Y-94763181D01*
X118908421Y-92377052D01*
X118908414Y-92377046D01*
X118834729Y-92327812D01*
X118834729Y-92327813D01*
X118785491Y-92294913D01*
X118648917Y-92238343D01*
X118648907Y-92238340D01*
X118503920Y-92209500D01*
X118503918Y-92209500D01*
X115266439Y-92209500D01*
X115199400Y-92189815D01*
X115192128Y-92184767D01*
X115167331Y-92166204D01*
X115167328Y-92166202D01*
X115032482Y-92115908D01*
X115032483Y-92115908D01*
X114972883Y-92109501D01*
X114972881Y-92109500D01*
X114972873Y-92109500D01*
X114972864Y-92109500D01*
X113627129Y-92109500D01*
X113627123Y-92109501D01*
X113567516Y-92115908D01*
X113432671Y-92166202D01*
X113432664Y-92166206D01*
X113317455Y-92252452D01*
X113317452Y-92252455D01*
X113231206Y-92367664D01*
X113231202Y-92367671D01*
X113180908Y-92502517D01*
X113174501Y-92562116D01*
X113174500Y-92562135D01*
X113174500Y-93357870D01*
X113174501Y-93357876D01*
X113180908Y-93417483D01*
X113231202Y-93552328D01*
X113231206Y-93552335D01*
X113317452Y-93667544D01*
X113317455Y-93667547D01*
X113432664Y-93753793D01*
X113432673Y-93753798D01*
X113478199Y-93770778D01*
X113534133Y-93812649D01*
X113558551Y-93878113D01*
X113543700Y-93946386D01*
X113494295Y-93995792D01*
X113491164Y-93997444D01*
X113448475Y-94019195D01*
X113308397Y-94120967D01*
X113185967Y-94243397D01*
X113084195Y-94383475D01*
X113005591Y-94537744D01*
X112952085Y-94702415D01*
X112950884Y-94709999D01*
X112950885Y-94710000D01*
X114019670Y-94710000D01*
X113999925Y-94729745D01*
X113950556Y-94815255D01*
X113925000Y-94910630D01*
X113925000Y-95009370D01*
X113950556Y-95104745D01*
X113999925Y-95190255D01*
X114019670Y-95210000D01*
X112950885Y-95210000D01*
X112952085Y-95217584D01*
X113005591Y-95382255D01*
X113084195Y-95536524D01*
X113185967Y-95676602D01*
X113308397Y-95799032D01*
X113448475Y-95900804D01*
X113602742Y-95979408D01*
X113767415Y-96032914D01*
X113938429Y-96060000D01*
X114050000Y-96060000D01*
X114050000Y-95240330D01*
X114069745Y-95260075D01*
X114155255Y-95309444D01*
X114250630Y-95335000D01*
X114349370Y-95335000D01*
X114444745Y-95309444D01*
X114530255Y-95260075D01*
X114550000Y-95240330D01*
X114550000Y-96060000D01*
X114661571Y-96060000D01*
X114832584Y-96032914D01*
X114997257Y-95979408D01*
X115151524Y-95900804D01*
X115291602Y-95799032D01*
X115414032Y-95676602D01*
X115515804Y-95536524D01*
X115594408Y-95382255D01*
X115647914Y-95217584D01*
X115649115Y-95210000D01*
X114580330Y-95210000D01*
X114600075Y-95190255D01*
X114649444Y-95104745D01*
X114675000Y-95009370D01*
X114675000Y-94910630D01*
X114649444Y-94815255D01*
X114600075Y-94729745D01*
X114580330Y-94710000D01*
X115649115Y-94710000D01*
X115649115Y-94709999D01*
X115647914Y-94702415D01*
X115594408Y-94537744D01*
X115515804Y-94383475D01*
X115414032Y-94243397D01*
X115291602Y-94120967D01*
X115151521Y-94019194D01*
X115108836Y-93997444D01*
X115099977Y-93989077D01*
X115088657Y-93984569D01*
X115075051Y-93965535D01*
X115058041Y-93949470D01*
X115055111Y-93937641D01*
X115048026Y-93927729D01*
X115046870Y-93904360D01*
X115041246Y-93881648D01*
X115045176Y-93870113D01*
X115044575Y-93857944D01*
X115056236Y-93837660D01*
X115063784Y-93815514D01*
X115074186Y-93806440D01*
X115079400Y-93797372D01*
X115097847Y-93785801D01*
X115108112Y-93776848D01*
X115114772Y-93773399D01*
X115167331Y-93753796D01*
X115200323Y-93729098D01*
X115209419Y-93724388D01*
X115234064Y-93719591D01*
X115257592Y-93710816D01*
X115266439Y-93710500D01*
X118067770Y-93710500D01*
X118134809Y-93730185D01*
X118155451Y-93746819D01*
X120452707Y-96044074D01*
X120452717Y-96044085D01*
X120457047Y-96048415D01*
X120457048Y-96048416D01*
X120561584Y-96152952D01*
X120561587Y-96152954D01*
X120561589Y-96152956D01*
X120561590Y-96152957D01*
X120615868Y-96189222D01*
X120615871Y-96189225D01*
X120615872Y-96189225D01*
X120684505Y-96235084D01*
X120684507Y-96235085D01*
X120684511Y-96235087D01*
X120821082Y-96291656D01*
X120821087Y-96291658D01*
X120821091Y-96291658D01*
X120821092Y-96291659D01*
X120966079Y-96320500D01*
X120966082Y-96320500D01*
X121113918Y-96320500D01*
X121202481Y-96302883D01*
X121226673Y-96300500D01*
X121686082Y-96300500D01*
X121913965Y-96300500D01*
X121981004Y-96320185D01*
X122013232Y-96350190D01*
X122037449Y-96382541D01*
X122037452Y-96382544D01*
X122037454Y-96382546D01*
X122037457Y-96382548D01*
X122152664Y-96468793D01*
X122152671Y-96468797D01*
X122167962Y-96474500D01*
X122287517Y-96519091D01*
X122347127Y-96525500D01*
X123117872Y-96525499D01*
X123177483Y-96519091D01*
X123312331Y-96468796D01*
X123427546Y-96382546D01*
X123513796Y-96267331D01*
X123521180Y-96247532D01*
X123563050Y-96191598D01*
X123628514Y-96167179D01*
X123696787Y-96182029D01*
X123746194Y-96231433D01*
X123755069Y-96251859D01*
X123785641Y-96344119D01*
X123785643Y-96344124D01*
X123877684Y-96493345D01*
X124001654Y-96617315D01*
X124150875Y-96709356D01*
X124150880Y-96709358D01*
X124317302Y-96764505D01*
X124317309Y-96764506D01*
X124420019Y-96774999D01*
X124557499Y-96774999D01*
X124557500Y-96774998D01*
X124557500Y-95674000D01*
X124577185Y-95606961D01*
X124629989Y-95561206D01*
X124681500Y-95550000D01*
X124933500Y-95550000D01*
X125000539Y-95569685D01*
X125046294Y-95622489D01*
X125057500Y-95674000D01*
X125057500Y-96774999D01*
X125194972Y-96774999D01*
X125194986Y-96774998D01*
X125297699Y-96764505D01*
X125341995Y-96749827D01*
X125411823Y-96747424D01*
X125471865Y-96783155D01*
X125490494Y-96820494D01*
X125505000Y-96835000D01*
X127454999Y-96835000D01*
X127454999Y-96735860D01*
X127454998Y-96735845D01*
X127444680Y-96634847D01*
X127396919Y-96490712D01*
X127394517Y-96420884D01*
X127430249Y-96360842D01*
X127492769Y-96329649D01*
X127562229Y-96337210D01*
X127576620Y-96344318D01*
X127626464Y-96373095D01*
X127747399Y-96405500D01*
X127747401Y-96405500D01*
X127872599Y-96405500D01*
X127872601Y-96405500D01*
X127993536Y-96373095D01*
X128078378Y-96324111D01*
X128093866Y-96319961D01*
X128105442Y-96312523D01*
X128140377Y-96307500D01*
X128390281Y-96307500D01*
X128457320Y-96327185D01*
X128497668Y-96369501D01*
X128539500Y-96441957D01*
X128539504Y-96441962D01*
X128539505Y-96441964D01*
X128628036Y-96530495D01*
X128736464Y-96593095D01*
X128857399Y-96625500D01*
X128857401Y-96625500D01*
X128982599Y-96625500D01*
X128982601Y-96625500D01*
X129103536Y-96593095D01*
X129128500Y-96578681D01*
X129196400Y-96562209D01*
X129262427Y-96585061D01*
X129305618Y-96639983D01*
X129311985Y-96661220D01*
X129314500Y-96673516D01*
X129314500Y-96689436D01*
X129327295Y-96737186D01*
X129339612Y-96783155D01*
X129340091Y-96784940D01*
X129340093Y-96784944D01*
X129377326Y-96849434D01*
X129377327Y-96849434D01*
X129377328Y-96849436D01*
X129389526Y-96870563D01*
X129669437Y-97150475D01*
X129712250Y-97175192D01*
X129755062Y-97199910D01*
X129802813Y-97212705D01*
X129850564Y-97225500D01*
X129850565Y-97225500D01*
X133382763Y-97225500D01*
X133438740Y-97240499D01*
X133438954Y-97239984D01*
X133442868Y-97241605D01*
X133444763Y-97242113D01*
X133446464Y-97243095D01*
X133567399Y-97275500D01*
X133567401Y-97275500D01*
X133692599Y-97275500D01*
X133692601Y-97275500D01*
X133813536Y-97243095D01*
X133921964Y-97180495D01*
X134010495Y-97091964D01*
X134073095Y-96983536D01*
X134105500Y-96862601D01*
X134105500Y-96737399D01*
X134073095Y-96616464D01*
X134010495Y-96508036D01*
X133921964Y-96419505D01*
X133813536Y-96356905D01*
X133813537Y-96356905D01*
X133765819Y-96344119D01*
X133692601Y-96324500D01*
X133567399Y-96324500D01*
X133494181Y-96344119D01*
X133446463Y-96356905D01*
X133385043Y-96392366D01*
X133317143Y-96408837D01*
X133251116Y-96385985D01*
X133207926Y-96331063D01*
X133201285Y-96261510D01*
X133203264Y-96252902D01*
X133235500Y-96132601D01*
X133235500Y-96007399D01*
X133203095Y-95886464D01*
X133140495Y-95778036D01*
X133051964Y-95689505D01*
X132943536Y-95626905D01*
X132943537Y-95626905D01*
X132901189Y-95615558D01*
X132822601Y-95594500D01*
X132697399Y-95594500D01*
X132612604Y-95617220D01*
X132542756Y-95615558D01*
X132484893Y-95576396D01*
X132457389Y-95512168D01*
X132468975Y-95443265D01*
X132473125Y-95435446D01*
X132478867Y-95425500D01*
X132503095Y-95383536D01*
X132535500Y-95262601D01*
X132535500Y-95137399D01*
X132503095Y-95016464D01*
X132467725Y-94955201D01*
X132452112Y-94928157D01*
X132448964Y-94918452D01*
X132444779Y-94913223D01*
X132440921Y-94893655D01*
X132436166Y-94878995D01*
X132435500Y-94872596D01*
X132435500Y-94780565D01*
X132429986Y-94759985D01*
X132419835Y-94722101D01*
X132418819Y-94712337D01*
X132423433Y-94687246D01*
X132424041Y-94661744D01*
X132429648Y-94653459D01*
X132431458Y-94643620D01*
X132448903Y-94625009D01*
X132463203Y-94603881D01*
X132472400Y-94599942D01*
X132479241Y-94592645D01*
X132503977Y-94586420D01*
X132527431Y-94576377D01*
X132542153Y-94575500D01*
X133793101Y-94575500D01*
X133860140Y-94595185D01*
X133880782Y-94611819D01*
X134248420Y-94979457D01*
X134280513Y-95035042D01*
X134306905Y-95133536D01*
X134369505Y-95241964D01*
X134458036Y-95330495D01*
X134566464Y-95393095D01*
X134687399Y-95425500D01*
X134687401Y-95425500D01*
X134812599Y-95425500D01*
X134812601Y-95425500D01*
X134933536Y-95393095D01*
X135041964Y-95330495D01*
X135130495Y-95241964D01*
X135193095Y-95133536D01*
X135225500Y-95012601D01*
X135225500Y-94887399D01*
X135193095Y-94766464D01*
X135130495Y-94658036D01*
X135041964Y-94569505D01*
X134933536Y-94506905D01*
X134933537Y-94506905D01*
X134872906Y-94490659D01*
X134835042Y-94480513D01*
X134779457Y-94448420D01*
X134230562Y-93899525D01*
X134140922Y-93847770D01*
X134092707Y-93797203D01*
X134079485Y-93728596D01*
X134105453Y-93663731D01*
X134162368Y-93623203D01*
X134201901Y-93616389D01*
X136606915Y-93596706D01*
X136695457Y-93585571D01*
X136811068Y-93535685D01*
X136904216Y-93450962D01*
X136964808Y-93340585D01*
X136986278Y-93216514D01*
X136988691Y-92814228D01*
X137008778Y-92747311D01*
X137061855Y-92701874D01*
X137131072Y-92692345D01*
X137138657Y-92693725D01*
X137142304Y-92694506D01*
X137245019Y-92704999D01*
X137519999Y-92704999D01*
X137520000Y-92704998D01*
X137520000Y-91741500D01*
X137539685Y-91674461D01*
X137592489Y-91628706D01*
X137644000Y-91617500D01*
X137896000Y-91617500D01*
X137963039Y-91637185D01*
X138008794Y-91689989D01*
X138020000Y-91741500D01*
X138020000Y-92704999D01*
X138294972Y-92704999D01*
X138294984Y-92704998D01*
X138362897Y-92698060D01*
X138431590Y-92710829D01*
X138482475Y-92758709D01*
X138499500Y-92821418D01*
X138499500Y-97995572D01*
X138499184Y-98004418D01*
X138499184Y-98004419D01*
X138484869Y-98204557D01*
X138482351Y-98222068D01*
X138440646Y-98413787D01*
X138435662Y-98430763D01*
X138367090Y-98614609D01*
X138359740Y-98630701D01*
X138265711Y-98802904D01*
X138256146Y-98817789D01*
X138138558Y-98974867D01*
X138126972Y-98988237D01*
X137988237Y-99126972D01*
X137974867Y-99138558D01*
X137817789Y-99256146D01*
X137802904Y-99265711D01*
X137630701Y-99359740D01*
X137614609Y-99367090D01*
X137430763Y-99435662D01*
X137413787Y-99440646D01*
X137222068Y-99482351D01*
X137204557Y-99484869D01*
X137023779Y-99497799D01*
X137004417Y-99499184D01*
X136995572Y-99499500D01*
X112004428Y-99499500D01*
X111995582Y-99499184D01*
X111973622Y-99497613D01*
X111795442Y-99484869D01*
X111777931Y-99482351D01*
X111586212Y-99440646D01*
X111569236Y-99435662D01*
X111385390Y-99367090D01*
X111369298Y-99359740D01*
X111197095Y-99265711D01*
X111182210Y-99256146D01*
X111025132Y-99138558D01*
X111011762Y-99126972D01*
X110873027Y-98988237D01*
X110861441Y-98974867D01*
X110743849Y-98817784D01*
X110734288Y-98802904D01*
X110640259Y-98630701D01*
X110632909Y-98614609D01*
X110572091Y-98451551D01*
X110564334Y-98430755D01*
X110559355Y-98413797D01*
X110517647Y-98222063D01*
X110515130Y-98204556D01*
X110500816Y-98004418D01*
X110500500Y-97995572D01*
X110500500Y-97434154D01*
X125505001Y-97434154D01*
X125515319Y-97535152D01*
X125569546Y-97698800D01*
X125569551Y-97698811D01*
X125660052Y-97845534D01*
X125660055Y-97845538D01*
X125781961Y-97967444D01*
X125781965Y-97967447D01*
X125928688Y-98057948D01*
X125928699Y-98057953D01*
X126092347Y-98112180D01*
X126193352Y-98122499D01*
X126230000Y-98122499D01*
X126730000Y-98122499D01*
X126766640Y-98122499D01*
X126766654Y-98122498D01*
X126867652Y-98112180D01*
X127031300Y-98057953D01*
X127031311Y-98057948D01*
X127178034Y-97967447D01*
X127178038Y-97967444D01*
X127299944Y-97845538D01*
X127299947Y-97845534D01*
X127390448Y-97698811D01*
X127390453Y-97698800D01*
X127444680Y-97535152D01*
X127454999Y-97434154D01*
X127455000Y-97434141D01*
X127455000Y-97335000D01*
X126730000Y-97335000D01*
X126730000Y-98122499D01*
X126230000Y-98122499D01*
X126230000Y-97335000D01*
X125505001Y-97335000D01*
X125505001Y-97434154D01*
X110500500Y-97434154D01*
X110500500Y-90848745D01*
X110492235Y-90780680D01*
X110464037Y-90548449D01*
X110391643Y-90254734D01*
X110391642Y-90254731D01*
X110391641Y-90254727D01*
X110284371Y-89971882D01*
X110143793Y-89704035D01*
X110143787Y-89704026D01*
X110129671Y-89683576D01*
X110072719Y-89601065D01*
X109971952Y-89455078D01*
X109971947Y-89455072D01*
X109771353Y-89228648D01*
X109771351Y-89228646D01*
X109544927Y-89028052D01*
X109544921Y-89028047D01*
X109295973Y-88856212D01*
X109295964Y-88856206D01*
X109028117Y-88715628D01*
X108745272Y-88608358D01*
X108613850Y-88575966D01*
X108451551Y-88535963D01*
X108271371Y-88514085D01*
X108151254Y-88499500D01*
X108151252Y-88499500D01*
X108065892Y-88499500D01*
X103004428Y-88499500D01*
X102995582Y-88499184D01*
X102973622Y-88497613D01*
X102795442Y-88484869D01*
X102777931Y-88482351D01*
X102586212Y-88440646D01*
X102569236Y-88435662D01*
X102385390Y-88367090D01*
X102369298Y-88359740D01*
X102197095Y-88265711D01*
X102182210Y-88256146D01*
X102103004Y-88196853D01*
X102025132Y-88138558D01*
X102011762Y-88126972D01*
X101873027Y-87988237D01*
X101861441Y-87974867D01*
X101849887Y-87959433D01*
X101743849Y-87817784D01*
X101734288Y-87802904D01*
X101640259Y-87630701D01*
X101632909Y-87614609D01*
X101572091Y-87451551D01*
X101564334Y-87430755D01*
X101559355Y-87413797D01*
X101517647Y-87222063D01*
X101515130Y-87204556D01*
X101513961Y-87188215D01*
X101500816Y-87004418D01*
X101500500Y-86995572D01*
X101500500Y-84354930D01*
X101760000Y-84354930D01*
X101775122Y-84489141D01*
X101834663Y-84659301D01*
X101930577Y-84811948D01*
X102058051Y-84939422D01*
X102210698Y-85035336D01*
X102380858Y-85094877D01*
X102515069Y-85109999D01*
X102515070Y-85110000D01*
X105010000Y-85110000D01*
X105510000Y-85110000D01*
X108004930Y-85110000D01*
X108004930Y-85109999D01*
X108139141Y-85094877D01*
X108309301Y-85035336D01*
X108461948Y-84939422D01*
X108589422Y-84811948D01*
X108685336Y-84659301D01*
X108744877Y-84489141D01*
X108759999Y-84354930D01*
X108760000Y-84354930D01*
X108760000Y-83860000D01*
X105510000Y-83860000D01*
X105510000Y-85110000D01*
X105010000Y-85110000D01*
X105010000Y-83860000D01*
X101760000Y-83860000D01*
X101760000Y-84354930D01*
X101500500Y-84354930D01*
X101500500Y-82865069D01*
X101760000Y-82865069D01*
X101760000Y-83360000D01*
X105010000Y-83360000D01*
X105510000Y-83360000D01*
X108760000Y-83360000D01*
X108760000Y-82865070D01*
X108759999Y-82865069D01*
X108744877Y-82730858D01*
X108685336Y-82560698D01*
X108589422Y-82408051D01*
X108461948Y-82280577D01*
X108309301Y-82184663D01*
X108139141Y-82125122D01*
X108004930Y-82110000D01*
X105510000Y-82110000D01*
X105510000Y-83360000D01*
X105010000Y-83360000D01*
X105010000Y-82110000D01*
X102515070Y-82110000D01*
X102380858Y-82125122D01*
X102210698Y-82184663D01*
X102058051Y-82280577D01*
X101930577Y-82408051D01*
X101834663Y-82560698D01*
X101775122Y-82730858D01*
X101760000Y-82865069D01*
X101500500Y-82865069D01*
X101500500Y-79516898D01*
X102009500Y-79516898D01*
X102009500Y-81003102D01*
X102014583Y-81045433D01*
X102020122Y-81091561D01*
X102075639Y-81232343D01*
X102167077Y-81352922D01*
X102287656Y-81444360D01*
X102287657Y-81444360D01*
X102287658Y-81444361D01*
X102428436Y-81499877D01*
X102516898Y-81510500D01*
X102516903Y-81510500D01*
X108003097Y-81510500D01*
X108003102Y-81510500D01*
X108091564Y-81499877D01*
X108232342Y-81444361D01*
X108352922Y-81352922D01*
X108444361Y-81232342D01*
X108487177Y-81123768D01*
X108530081Y-81068627D01*
X108595988Y-81045433D01*
X108663973Y-81061553D01*
X108690211Y-81081579D01*
X108840975Y-81232342D01*
X108977049Y-81368416D01*
X109081584Y-81472951D01*
X109081587Y-81472953D01*
X109081588Y-81472954D01*
X109204503Y-81555083D01*
X109204504Y-81555083D01*
X109204505Y-81555084D01*
X109255199Y-81576082D01*
X109341088Y-81611659D01*
X109457241Y-81634763D01*
X109481493Y-81639587D01*
X109486081Y-81640500D01*
X109486082Y-81640500D01*
X109486083Y-81640500D01*
X109633918Y-81640500D01*
X110743561Y-81640500D01*
X110800581Y-81654388D01*
X110809677Y-81659098D01*
X110842669Y-81683796D01*
X110895224Y-81703397D01*
X110901887Y-81706848D01*
X110921930Y-81726028D01*
X110944133Y-81742649D01*
X110946816Y-81749843D01*
X110952367Y-81755155D01*
X110958858Y-81782128D01*
X110968551Y-81808113D01*
X110966918Y-81815617D01*
X110968716Y-81823085D01*
X110959595Y-81849282D01*
X110953700Y-81876386D01*
X110948269Y-81881817D01*
X110945744Y-81889070D01*
X110923911Y-81906175D01*
X110904295Y-81925792D01*
X110901164Y-81927444D01*
X110858475Y-81949195D01*
X110718397Y-82050967D01*
X110595967Y-82173397D01*
X110494195Y-82313475D01*
X110415591Y-82467744D01*
X110362085Y-82632415D01*
X110360884Y-82639999D01*
X110360885Y-82640000D01*
X111429670Y-82640000D01*
X111409925Y-82659745D01*
X111360556Y-82745255D01*
X111335000Y-82840630D01*
X111335000Y-82939370D01*
X111360556Y-83034745D01*
X111409925Y-83120255D01*
X111429670Y-83140000D01*
X110360885Y-83140000D01*
X110362085Y-83147584D01*
X110415591Y-83312255D01*
X110494195Y-83466524D01*
X110595967Y-83606602D01*
X110718397Y-83729032D01*
X110858475Y-83830804D01*
X111012742Y-83909408D01*
X111177415Y-83962914D01*
X111348429Y-83990000D01*
X111460000Y-83990000D01*
X111460000Y-83170330D01*
X111479745Y-83190075D01*
X111565255Y-83239444D01*
X111660630Y-83265000D01*
X111759370Y-83265000D01*
X111854745Y-83239444D01*
X111940255Y-83190075D01*
X111960000Y-83170330D01*
X111960000Y-83990000D01*
X112071571Y-83990000D01*
X112242584Y-83962914D01*
X112407257Y-83909408D01*
X112561524Y-83830804D01*
X112701602Y-83729032D01*
X112824032Y-83606602D01*
X112925804Y-83466524D01*
X113004408Y-83312257D01*
X113057913Y-83147584D01*
X113073027Y-83052165D01*
X113102956Y-82989030D01*
X113162268Y-82952099D01*
X113232130Y-82953097D01*
X113290363Y-82991707D01*
X113318477Y-83055670D01*
X113319500Y-83071563D01*
X113319500Y-86153918D01*
X113319500Y-86153920D01*
X113319499Y-86153920D01*
X113348340Y-86298907D01*
X113348343Y-86298917D01*
X113404913Y-86435490D01*
X113404914Y-86435492D01*
X113430388Y-86473616D01*
X113430389Y-86473618D01*
X113487043Y-86558410D01*
X113487047Y-86558415D01*
X114921578Y-87992947D01*
X114921581Y-87992949D01*
X114921584Y-87992952D01*
X114995563Y-88042382D01*
X115044507Y-88075085D01*
X115112745Y-88103350D01*
X115165609Y-88145024D01*
X115210585Y-88206927D01*
X115210586Y-88206928D01*
X115333072Y-88329414D01*
X115473212Y-88431232D01*
X115627555Y-88509873D01*
X115792299Y-88563402D01*
X115963389Y-88590500D01*
X115963390Y-88590500D01*
X116136610Y-88590500D01*
X116136611Y-88590500D01*
X116307701Y-88563402D01*
X116472445Y-88509873D01*
X116626788Y-88431232D01*
X116766928Y-88329414D01*
X116889414Y-88206928D01*
X116991232Y-88066788D01*
X117069873Y-87912445D01*
X117123402Y-87747701D01*
X117150500Y-87576611D01*
X117150500Y-87403389D01*
X117123402Y-87232299D01*
X117069873Y-87067555D01*
X116991232Y-86913212D01*
X116889414Y-86773072D01*
X116766928Y-86650586D01*
X116626788Y-86548768D01*
X116472445Y-86470127D01*
X116307701Y-86416598D01*
X116307699Y-86416597D01*
X116307698Y-86416597D01*
X116176271Y-86395781D01*
X116136611Y-86389500D01*
X115963389Y-86389500D01*
X115923728Y-86395781D01*
X115792302Y-86416597D01*
X115792299Y-86416598D01*
X115627555Y-86470127D01*
X115627553Y-86470127D01*
X115622921Y-86471633D01*
X115622457Y-86470206D01*
X115559604Y-86476947D01*
X115497133Y-86445655D01*
X115493972Y-86442604D01*
X114856819Y-85805451D01*
X114823334Y-85744128D01*
X114820500Y-85717770D01*
X114820500Y-84326654D01*
X118880001Y-84326654D01*
X118890319Y-84427652D01*
X118944546Y-84591300D01*
X118944551Y-84591311D01*
X119035052Y-84738034D01*
X119035055Y-84738038D01*
X119156961Y-84859944D01*
X119156965Y-84859947D01*
X119303688Y-84950448D01*
X119303699Y-84950453D01*
X119467347Y-85004680D01*
X119568351Y-85014999D01*
X119667500Y-85014998D01*
X119667500Y-84290000D01*
X118880001Y-84290000D01*
X118880001Y-84326654D01*
X114820500Y-84326654D01*
X114820500Y-83753345D01*
X118880000Y-83753345D01*
X118880000Y-83790000D01*
X119667500Y-83790000D01*
X119667500Y-83064999D01*
X119568360Y-83065000D01*
X119568344Y-83065001D01*
X119467347Y-83075319D01*
X119303699Y-83129546D01*
X119303688Y-83129551D01*
X119156965Y-83220052D01*
X119156961Y-83220055D01*
X119035055Y-83341961D01*
X119035052Y-83341965D01*
X118944551Y-83488688D01*
X118944546Y-83488699D01*
X118890319Y-83652347D01*
X118880000Y-83753345D01*
X114820500Y-83753345D01*
X114820500Y-81576079D01*
X114791659Y-81431092D01*
X114791658Y-81431091D01*
X114791658Y-81431087D01*
X114752306Y-81336082D01*
X114735087Y-81294511D01*
X114735080Y-81294498D01*
X114652952Y-81171585D01*
X114605138Y-81123771D01*
X114548416Y-81067049D01*
X114366867Y-80885500D01*
X113788421Y-80307052D01*
X113788414Y-80307046D01*
X113694317Y-80244173D01*
X113694218Y-80244108D01*
X113665495Y-80224916D01*
X113665494Y-80224915D01*
X113665492Y-80224914D01*
X113528917Y-80168343D01*
X113528907Y-80168340D01*
X113383920Y-80139500D01*
X113383918Y-80139500D01*
X112676439Y-80139500D01*
X112609400Y-80119815D01*
X112602128Y-80114767D01*
X112577331Y-80096204D01*
X112577328Y-80096202D01*
X112442482Y-80045908D01*
X112442483Y-80045908D01*
X112382883Y-80039501D01*
X112382881Y-80039500D01*
X112382873Y-80039500D01*
X112382864Y-80039500D01*
X111037129Y-80039500D01*
X111037123Y-80039501D01*
X110977516Y-80045908D01*
X110842671Y-80096202D01*
X110842668Y-80096204D01*
X110817872Y-80114767D01*
X110752408Y-80139184D01*
X110743561Y-80139500D01*
X109922229Y-80139500D01*
X109855190Y-80119815D01*
X109834548Y-80103181D01*
X109655522Y-79924154D01*
X114105001Y-79924154D01*
X114115319Y-80025152D01*
X114169546Y-80188800D01*
X114169551Y-80188811D01*
X114260052Y-80335534D01*
X114260055Y-80335538D01*
X114381961Y-80457444D01*
X114381965Y-80457447D01*
X114528688Y-80547948D01*
X114528699Y-80547953D01*
X114692347Y-80602180D01*
X114793352Y-80612499D01*
X114830000Y-80612499D01*
X114830000Y-79825000D01*
X115330000Y-79825000D01*
X115330000Y-80612499D01*
X115366640Y-80612499D01*
X115366654Y-80612498D01*
X115467652Y-80602180D01*
X115631300Y-80547953D01*
X115631311Y-80547948D01*
X115755474Y-80471363D01*
X115768610Y-80467768D01*
X115779684Y-80459836D01*
X115801650Y-80458727D01*
X115822866Y-80452922D01*
X115835861Y-80457000D01*
X115849464Y-80456314D01*
X115868543Y-80467257D01*
X115889529Y-80473844D01*
X115899550Y-80485042D01*
X115910072Y-80491078D01*
X115923907Y-80512262D01*
X115930626Y-80519770D01*
X115933087Y-80524511D01*
X115974916Y-80625495D01*
X116022403Y-80696565D01*
X116025555Y-80702636D01*
X116031002Y-80730480D01*
X116039480Y-80757553D01*
X116039500Y-80759767D01*
X116039500Y-80890300D01*
X116019815Y-80957339D01*
X116018602Y-80959191D01*
X115954919Y-81054498D01*
X115954912Y-81054511D01*
X115898343Y-81191082D01*
X115898340Y-81191092D01*
X115869500Y-81336079D01*
X115869500Y-81336082D01*
X115869500Y-81483918D01*
X115869500Y-81483920D01*
X115869499Y-81483920D01*
X115898340Y-81628907D01*
X115898343Y-81628917D01*
X115954912Y-81765488D01*
X115954919Y-81765501D01*
X116037048Y-81888415D01*
X116037051Y-81888419D01*
X116141580Y-81992948D01*
X116141584Y-81992951D01*
X116264498Y-82075080D01*
X116264511Y-82075087D01*
X116401082Y-82131656D01*
X116401087Y-82131658D01*
X116401091Y-82131658D01*
X116401092Y-82131659D01*
X116546079Y-82160500D01*
X116546082Y-82160500D01*
X116693920Y-82160500D01*
X116795392Y-82140315D01*
X116838913Y-82131658D01*
X116975495Y-82075084D01*
X117098416Y-81992951D01*
X117202951Y-81888416D01*
X117285084Y-81765495D01*
X117341658Y-81628913D01*
X117356344Y-81555083D01*
X117370500Y-81483920D01*
X117370500Y-81336079D01*
X117341659Y-81191092D01*
X117341658Y-81191091D01*
X117341658Y-81191087D01*
X117329719Y-81162264D01*
X117300596Y-81091952D01*
X117293127Y-81022483D01*
X117324403Y-80960004D01*
X117384492Y-80924352D01*
X117415157Y-80920500D01*
X118964676Y-80920500D01*
X118964677Y-80920499D01*
X119037740Y-80905966D01*
X119120601Y-80850601D01*
X119175966Y-80767740D01*
X119190500Y-80694674D01*
X119190500Y-80169125D01*
X119210185Y-80102086D01*
X119240189Y-80069858D01*
X119297189Y-80027187D01*
X119297190Y-80027186D01*
X119383352Y-79912088D01*
X119383354Y-79912086D01*
X119433596Y-79777379D01*
X119433598Y-79777372D01*
X119439999Y-79717844D01*
X119440000Y-79717827D01*
X119440000Y-79520000D01*
X116725086Y-79520000D01*
X116714908Y-79519500D01*
X116713918Y-79519500D01*
X116566082Y-79519500D01*
X116566080Y-79519500D01*
X116421092Y-79548340D01*
X116421082Y-79548343D01*
X116284511Y-79604912D01*
X116284498Y-79604919D01*
X116161584Y-79687048D01*
X116161580Y-79687051D01*
X116059951Y-79788681D01*
X115998628Y-79822166D01*
X115972270Y-79825000D01*
X115330000Y-79825000D01*
X114830000Y-79825000D01*
X114105001Y-79825000D01*
X114105001Y-79924154D01*
X109655522Y-79924154D01*
X109592687Y-79861319D01*
X109408421Y-79677052D01*
X109408414Y-79677046D01*
X109334729Y-79627812D01*
X109334729Y-79627813D01*
X109285491Y-79594913D01*
X109148917Y-79538343D01*
X109148907Y-79538340D01*
X109003920Y-79509500D01*
X109003918Y-79509500D01*
X108616239Y-79509500D01*
X108549200Y-79489815D01*
X108503445Y-79437011D01*
X108500885Y-79430990D01*
X108444362Y-79287660D01*
X108444361Y-79287658D01*
X108352922Y-79167077D01*
X108232343Y-79075639D01*
X108111665Y-79028050D01*
X108091564Y-79020123D01*
X108091563Y-79020122D01*
X108091561Y-79020122D01*
X108045926Y-79014642D01*
X108003102Y-79009500D01*
X102516898Y-79009500D01*
X102477853Y-79014188D01*
X102428438Y-79020122D01*
X102287656Y-79075639D01*
X102167077Y-79167077D01*
X102075639Y-79287656D01*
X102020122Y-79428438D01*
X102015848Y-79464037D01*
X102009500Y-79516898D01*
X101500500Y-79516898D01*
X101500500Y-75397844D01*
X102520000Y-75397844D01*
X102526401Y-75457372D01*
X102526403Y-75457379D01*
X102576645Y-75592086D01*
X102576649Y-75592093D01*
X102662809Y-75707187D01*
X102662812Y-75707190D01*
X102777906Y-75793350D01*
X102777913Y-75793354D01*
X102912620Y-75843596D01*
X102912627Y-75843598D01*
X102972155Y-75849999D01*
X102972172Y-75850000D01*
X103170000Y-75850000D01*
X103670000Y-75850000D01*
X103867828Y-75850000D01*
X103867844Y-75849999D01*
X103927372Y-75843598D01*
X103927379Y-75843596D01*
X104062086Y-75793354D01*
X104062093Y-75793350D01*
X104177187Y-75707190D01*
X104177190Y-75707187D01*
X104263350Y-75592093D01*
X104263354Y-75592086D01*
X104313596Y-75457379D01*
X104313598Y-75457372D01*
X104319999Y-75397844D01*
X104720000Y-75397844D01*
X104726401Y-75457372D01*
X104726403Y-75457379D01*
X104776645Y-75592086D01*
X104776649Y-75592093D01*
X104862809Y-75707187D01*
X104862812Y-75707190D01*
X104977906Y-75793350D01*
X104977913Y-75793354D01*
X105112620Y-75843596D01*
X105112627Y-75843598D01*
X105172155Y-75849999D01*
X105172172Y-75850000D01*
X105370000Y-75850000D01*
X105870000Y-75850000D01*
X106067828Y-75850000D01*
X106067844Y-75849999D01*
X106127372Y-75843598D01*
X106127379Y-75843596D01*
X106262086Y-75793354D01*
X106262093Y-75793350D01*
X106377187Y-75707190D01*
X106377190Y-75707187D01*
X106463350Y-75592093D01*
X106463354Y-75592086D01*
X106513596Y-75457379D01*
X106513598Y-75457372D01*
X106519999Y-75397844D01*
X106520000Y-75397827D01*
X106520000Y-75100000D01*
X105870000Y-75100000D01*
X105870000Y-75850000D01*
X105370000Y-75850000D01*
X105370000Y-75100000D01*
X104720000Y-75100000D01*
X104720000Y-75397844D01*
X104319999Y-75397844D01*
X104320000Y-75397827D01*
X104320000Y-75100000D01*
X103670000Y-75100000D01*
X103670000Y-75850000D01*
X103170000Y-75850000D01*
X103170000Y-75100000D01*
X102520000Y-75100000D01*
X102520000Y-75397844D01*
X101500500Y-75397844D01*
X101500500Y-74302155D01*
X102520000Y-74302155D01*
X102520000Y-74600000D01*
X103170000Y-74600000D01*
X103670000Y-74600000D01*
X104320000Y-74600000D01*
X104320000Y-74302172D01*
X104319999Y-74302155D01*
X104720000Y-74302155D01*
X104720000Y-74600000D01*
X106520000Y-74600000D01*
X106520000Y-74430000D01*
X106394000Y-74430000D01*
X106326961Y-74410315D01*
X106281206Y-74357511D01*
X106270000Y-74306000D01*
X106270000Y-74300000D01*
X106770000Y-74300000D01*
X107317828Y-74300000D01*
X107317844Y-74299999D01*
X107377372Y-74293598D01*
X107377379Y-74293596D01*
X107512086Y-74243354D01*
X107512093Y-74243350D01*
X107627187Y-74157190D01*
X107627190Y-74157187D01*
X107713350Y-74042093D01*
X107713354Y-74042086D01*
X107763596Y-73907379D01*
X107763598Y-73907372D01*
X107769999Y-73847844D01*
X107770000Y-73847827D01*
X107770000Y-73700000D01*
X106770000Y-73700000D01*
X106770000Y-74300000D01*
X106270000Y-74300000D01*
X106270000Y-73700000D01*
X105270000Y-73700000D01*
X105270000Y-73728098D01*
X105250315Y-73795137D01*
X105197511Y-73840892D01*
X105159258Y-73851387D01*
X105112626Y-73856401D01*
X105112620Y-73856403D01*
X104977913Y-73906645D01*
X104977906Y-73906649D01*
X104862812Y-73992809D01*
X104862809Y-73992812D01*
X104776649Y-74107906D01*
X104776645Y-74107913D01*
X104726403Y-74242620D01*
X104726401Y-74242627D01*
X104720000Y-74302155D01*
X104319999Y-74302155D01*
X104313598Y-74242627D01*
X104313596Y-74242620D01*
X104263354Y-74107913D01*
X104263350Y-74107906D01*
X104177190Y-73992812D01*
X104177187Y-73992809D01*
X104062093Y-73906649D01*
X104062086Y-73906645D01*
X103927379Y-73856403D01*
X103927372Y-73856401D01*
X103867844Y-73850000D01*
X103670000Y-73850000D01*
X103670000Y-74600000D01*
X103170000Y-74600000D01*
X103170000Y-73850000D01*
X102972155Y-73850000D01*
X102912627Y-73856401D01*
X102912620Y-73856403D01*
X102777913Y-73906645D01*
X102777906Y-73906649D01*
X102662812Y-73992809D01*
X102662809Y-73992812D01*
X102576649Y-74107906D01*
X102576645Y-74107913D01*
X102526403Y-74242620D01*
X102526401Y-74242627D01*
X102520000Y-74302155D01*
X101500500Y-74302155D01*
X101500500Y-72768995D01*
X103819499Y-72768995D01*
X103846418Y-72904322D01*
X103846421Y-72904332D01*
X103899221Y-73031804D01*
X103899228Y-73031817D01*
X103975885Y-73146541D01*
X103975888Y-73146545D01*
X104073454Y-73244111D01*
X104073458Y-73244114D01*
X104188182Y-73320771D01*
X104188195Y-73320778D01*
X104276916Y-73357527D01*
X104315672Y-73373580D01*
X104315676Y-73373580D01*
X104315677Y-73373581D01*
X104451004Y-73400500D01*
X104451007Y-73400500D01*
X104588995Y-73400500D01*
X104680041Y-73382389D01*
X104724328Y-73373580D01*
X104851811Y-73320775D01*
X104966542Y-73244114D01*
X105010656Y-73200000D01*
X105058319Y-73152338D01*
X105119642Y-73118853D01*
X105189334Y-73123837D01*
X105245267Y-73165709D01*
X105250952Y-73180952D01*
X105270000Y-73200000D01*
X107770000Y-73200000D01*
X107770000Y-73052172D01*
X107769999Y-73052155D01*
X107763598Y-72992627D01*
X107763596Y-72992620D01*
X107713354Y-72857913D01*
X107713350Y-72857906D01*
X107627190Y-72742812D01*
X107627187Y-72742809D01*
X107534958Y-72673766D01*
X107493087Y-72617832D01*
X107488103Y-72548141D01*
X107521589Y-72486818D01*
X107582912Y-72453334D01*
X107609269Y-72450500D01*
X107951324Y-72450500D01*
X108018363Y-72470185D01*
X108039004Y-72486818D01*
X110669500Y-75117314D01*
X110762686Y-75210500D01*
X110876814Y-75276392D01*
X111004108Y-75310500D01*
X111342722Y-75310500D01*
X111409761Y-75330185D01*
X111441988Y-75360188D01*
X111466539Y-75392984D01*
X111468884Y-75396116D01*
X111488733Y-75410975D01*
X111550711Y-75457372D01*
X111581222Y-75480212D01*
X111673594Y-75514665D01*
X111712700Y-75529251D01*
X111770809Y-75535499D01*
X111770826Y-75535500D01*
X112364174Y-75535500D01*
X112364190Y-75535499D01*
X112422299Y-75529251D01*
X112553778Y-75480212D01*
X112666116Y-75396116D01*
X112750212Y-75283778D01*
X112799251Y-75152299D01*
X112805499Y-75094190D01*
X112805500Y-75094173D01*
X112805500Y-74525826D01*
X112805499Y-74525809D01*
X112799251Y-74467700D01*
X112777543Y-74409500D01*
X112750212Y-74336222D01*
X112666116Y-74223884D01*
X112634879Y-74200500D01*
X112548941Y-74136166D01*
X112507070Y-74080233D01*
X112502086Y-74010541D01*
X112535572Y-73949218D01*
X112573653Y-73924745D01*
X112573498Y-73924460D01*
X112577484Y-73922283D01*
X112579919Y-73920718D01*
X112581278Y-73920212D01*
X112693616Y-73836116D01*
X112777712Y-73723778D01*
X112826751Y-73592299D01*
X112832999Y-73534190D01*
X112833000Y-73534173D01*
X112833000Y-72965826D01*
X112832999Y-72965809D01*
X112826751Y-72907700D01*
X112803486Y-72845326D01*
X112777712Y-72776222D01*
X112772300Y-72768993D01*
X112756500Y-72747886D01*
X112693616Y-72663884D01*
X112649694Y-72631004D01*
X112581831Y-72580201D01*
X112539960Y-72524268D01*
X112534976Y-72454576D01*
X112568461Y-72393253D01*
X112581832Y-72381668D01*
X112583775Y-72380212D01*
X112583778Y-72380212D01*
X112696116Y-72296116D01*
X112780212Y-72183778D01*
X112829251Y-72052299D01*
X112832033Y-72026421D01*
X112835499Y-71994190D01*
X112835500Y-71994173D01*
X112835500Y-71425826D01*
X112835499Y-71425809D01*
X112829251Y-71367700D01*
X112801540Y-71293406D01*
X112780212Y-71236222D01*
X112696116Y-71123884D01*
X112656341Y-71094108D01*
X112647688Y-71087630D01*
X112644951Y-71083974D01*
X112640797Y-71082077D01*
X112624205Y-71056259D01*
X112605818Y-71031696D01*
X112604802Y-71026068D01*
X112603023Y-71023299D01*
X112598000Y-70988364D01*
X112598000Y-70859120D01*
X112617685Y-70792081D01*
X112647690Y-70759853D01*
X112661100Y-70749815D01*
X112706116Y-70716116D01*
X112706116Y-70716115D01*
X112713216Y-70710801D01*
X112714635Y-70712697D01*
X112764709Y-70685346D01*
X112834401Y-70690321D01*
X112890341Y-70732185D01*
X112896622Y-70741411D01*
X112950054Y-70828037D01*
X113071961Y-70949944D01*
X113071965Y-70949947D01*
X113217902Y-71039963D01*
X113264627Y-71091911D01*
X113275848Y-71160873D01*
X113252073Y-71219810D01*
X113239790Y-71236218D01*
X113239790Y-71236219D01*
X113239788Y-71236222D01*
X113235764Y-71247011D01*
X113190748Y-71367700D01*
X113184500Y-71425809D01*
X113184500Y-71994190D01*
X113190748Y-72052299D01*
X113229384Y-72155885D01*
X113239788Y-72183778D01*
X113323884Y-72296116D01*
X113435668Y-72379797D01*
X113477539Y-72435731D01*
X113482523Y-72505423D01*
X113449038Y-72566746D01*
X113435668Y-72578330D01*
X113321386Y-72663882D01*
X113321385Y-72663883D01*
X113321384Y-72663884D01*
X113309458Y-72679815D01*
X113237289Y-72776219D01*
X113188248Y-72907700D01*
X113182000Y-72965809D01*
X113182000Y-73534190D01*
X113188248Y-73592299D01*
X113237289Y-73723780D01*
X113262955Y-73758065D01*
X113321384Y-73836116D01*
X113433722Y-73920212D01*
X113438558Y-73923832D01*
X113480429Y-73979766D01*
X113485413Y-74049458D01*
X113451928Y-74110781D01*
X113413847Y-74135256D01*
X113414002Y-74135540D01*
X113410037Y-74137704D01*
X113407591Y-74139277D01*
X113406222Y-74139787D01*
X113293884Y-74223884D01*
X113209789Y-74336219D01*
X113160748Y-74467700D01*
X113154500Y-74525809D01*
X113154500Y-75094190D01*
X113160748Y-75152299D01*
X113209789Y-75283780D01*
X113237285Y-75320509D01*
X113293884Y-75396116D01*
X113406222Y-75480212D01*
X113498594Y-75514665D01*
X113537700Y-75529251D01*
X113595809Y-75535499D01*
X113595826Y-75535500D01*
X114189174Y-75535500D01*
X114189190Y-75535499D01*
X114247299Y-75529251D01*
X114378778Y-75480212D01*
X114491116Y-75396116D01*
X114518012Y-75360188D01*
X114573946Y-75318317D01*
X114617278Y-75310500D01*
X115061324Y-75310500D01*
X115128363Y-75330185D01*
X115149005Y-75346819D01*
X115483181Y-75680995D01*
X115516666Y-75742318D01*
X115519500Y-75768676D01*
X115519500Y-76290616D01*
X115499815Y-76357655D01*
X115447011Y-76403410D01*
X115377853Y-76413354D01*
X115360474Y-76408589D01*
X115360333Y-76409119D01*
X115324436Y-76399499D01*
X115324436Y-76399500D01*
X115268455Y-76384500D01*
X115212475Y-76369500D01*
X115067525Y-76369500D01*
X114955564Y-76399500D01*
X114955563Y-76399499D01*
X114927517Y-76407015D01*
X114927514Y-76407016D01*
X114801986Y-76479489D01*
X114801983Y-76479491D01*
X114639489Y-76641985D01*
X114632446Y-76654185D01*
X114595335Y-76718466D01*
X114584986Y-76736391D01*
X114584984Y-76736394D01*
X114567017Y-76767512D01*
X114567016Y-76767514D01*
X114567016Y-76767515D01*
X114529500Y-76907525D01*
X114529500Y-76907527D01*
X114529500Y-77114405D01*
X114509815Y-77181444D01*
X114495672Y-77198996D01*
X114493884Y-77201383D01*
X114493884Y-77201384D01*
X114484888Y-77213401D01*
X114409789Y-77313719D01*
X114360748Y-77445200D01*
X114354500Y-77503309D01*
X114354500Y-78196690D01*
X114360748Y-78254799D01*
X114393267Y-78341984D01*
X114409788Y-78386278D01*
X114409789Y-78386279D01*
X114409790Y-78386282D01*
X114476538Y-78475445D01*
X114500956Y-78540909D01*
X114486105Y-78609182D01*
X114442370Y-78655294D01*
X114381962Y-78692554D01*
X114260055Y-78814461D01*
X114260052Y-78814465D01*
X114169551Y-78961188D01*
X114169546Y-78961199D01*
X114115319Y-79124847D01*
X114105001Y-79225843D01*
X114105000Y-79225858D01*
X114105000Y-79325000D01*
X116054999Y-79325000D01*
X116054999Y-79225860D01*
X116054998Y-79225843D01*
X116044680Y-79124847D01*
X115990452Y-78961196D01*
X115989722Y-78959630D01*
X115989543Y-78958453D01*
X115988181Y-78954342D01*
X115988883Y-78954109D01*
X115979232Y-78890553D01*
X116007754Y-78826770D01*
X116066232Y-78788532D01*
X116134197Y-78787454D01*
X116257525Y-78820500D01*
X116257526Y-78820500D01*
X116402474Y-78820500D01*
X116516000Y-78820500D01*
X116583039Y-78840185D01*
X116628794Y-78892989D01*
X116640000Y-78944500D01*
X116640000Y-79020000D01*
X119440000Y-79020000D01*
X119440000Y-78822172D01*
X119439999Y-78822155D01*
X119433598Y-78762627D01*
X119433596Y-78762620D01*
X119383354Y-78627913D01*
X119383350Y-78627906D01*
X119297191Y-78512814D01*
X119297185Y-78512807D01*
X119240188Y-78470139D01*
X119198318Y-78414205D01*
X119190500Y-78370873D01*
X119190500Y-77845326D01*
X119188825Y-77836905D01*
X119180328Y-77794188D01*
X119180328Y-77745811D01*
X119190500Y-77694674D01*
X119190500Y-76894500D01*
X119210185Y-76827461D01*
X119262989Y-76781706D01*
X119314500Y-76770500D01*
X120740462Y-76770500D01*
X120750571Y-76770913D01*
X120761735Y-76771826D01*
X120794107Y-76780500D01*
X120794108Y-76780500D01*
X120867771Y-76780500D01*
X120872820Y-76780913D01*
X120881421Y-76784221D01*
X120910162Y-76789938D01*
X120917513Y-76792983D01*
X120917515Y-76792984D01*
X121057525Y-76830500D01*
X121057528Y-76830500D01*
X121202472Y-76830500D01*
X121202475Y-76830500D01*
X121342485Y-76792984D01*
X121468015Y-76720509D01*
X121570509Y-76618015D01*
X121642984Y-76492485D01*
X121680500Y-76352475D01*
X121680500Y-76207525D01*
X121642984Y-76067515D01*
X121579271Y-75957162D01*
X121570511Y-75941988D01*
X121570506Y-75941982D01*
X121468017Y-75839493D01*
X121468011Y-75839488D01*
X121342488Y-75767017D01*
X121342489Y-75767017D01*
X121331006Y-75763940D01*
X121202475Y-75729500D01*
X121057525Y-75729500D01*
X120924012Y-75765275D01*
X120891919Y-75769500D01*
X119240402Y-75769500D01*
X119173363Y-75749815D01*
X119137300Y-75714391D01*
X119120601Y-75689399D01*
X119037739Y-75634033D01*
X119037735Y-75634032D01*
X118964677Y-75619500D01*
X118964674Y-75619500D01*
X117115326Y-75619500D01*
X117115323Y-75619500D01*
X117042264Y-75634032D01*
X117042260Y-75634033D01*
X116959399Y-75689399D01*
X116904033Y-75772260D01*
X116904032Y-75772264D01*
X116889500Y-75845321D01*
X116889500Y-76645500D01*
X116886949Y-76654185D01*
X116888238Y-76663147D01*
X116877259Y-76687187D01*
X116869815Y-76712539D01*
X116862974Y-76718466D01*
X116859213Y-76726703D01*
X116836978Y-76740992D01*
X116817011Y-76758294D01*
X116806496Y-76760581D01*
X116800435Y-76764477D01*
X116765500Y-76769500D01*
X116748676Y-76769500D01*
X116681637Y-76749815D01*
X116660995Y-76733181D01*
X116556819Y-76629005D01*
X116523334Y-76567682D01*
X116520500Y-76541324D01*
X116520500Y-75444109D01*
X116520500Y-75444108D01*
X116506801Y-75392984D01*
X116506800Y-75392982D01*
X116496596Y-75354899D01*
X116486392Y-75316814D01*
X116482747Y-75310500D01*
X116420500Y-75202686D01*
X116327314Y-75109500D01*
X116025339Y-74807525D01*
X127129500Y-74807525D01*
X127129500Y-74952475D01*
X127166519Y-75090630D01*
X127167017Y-75092488D01*
X127239488Y-75218011D01*
X127239490Y-75218013D01*
X127239491Y-75218015D01*
X127341985Y-75320509D01*
X127341986Y-75320510D01*
X127341988Y-75320511D01*
X127467511Y-75392982D01*
X127467512Y-75392982D01*
X127467515Y-75392984D01*
X127607525Y-75430500D01*
X127607528Y-75430500D01*
X127752472Y-75430500D01*
X127752475Y-75430500D01*
X127892485Y-75392984D01*
X128018015Y-75320509D01*
X128120509Y-75218015D01*
X128192984Y-75092485D01*
X128230500Y-74952475D01*
X128230500Y-74807525D01*
X128192984Y-74667515D01*
X128165843Y-74620506D01*
X128120511Y-74541988D01*
X128120506Y-74541982D01*
X128018017Y-74439493D01*
X128018011Y-74439488D01*
X127892488Y-74367017D01*
X127892489Y-74367017D01*
X127857012Y-74357511D01*
X127752475Y-74329500D01*
X127607525Y-74329500D01*
X127502988Y-74357511D01*
X127467511Y-74367017D01*
X127341988Y-74439488D01*
X127341982Y-74439493D01*
X127239493Y-74541982D01*
X127239488Y-74541988D01*
X127167017Y-74667511D01*
X127167016Y-74667515D01*
X127129500Y-74807525D01*
X116025339Y-74807525D01*
X115627314Y-74409500D01*
X115513186Y-74343608D01*
X115478903Y-74334422D01*
X115419245Y-74298058D01*
X115388716Y-74235211D01*
X115397011Y-74165835D01*
X115429965Y-74120789D01*
X115438839Y-74113127D01*
X115448542Y-74107525D01*
X122109500Y-74107525D01*
X122109500Y-74252475D01*
X122140192Y-74367016D01*
X122147017Y-74392488D01*
X122219488Y-74518011D01*
X122219490Y-74518013D01*
X122219491Y-74518015D01*
X122321985Y-74620509D01*
X122321986Y-74620510D01*
X122321988Y-74620511D01*
X122447511Y-74692982D01*
X122447512Y-74692982D01*
X122447515Y-74692984D01*
X122587525Y-74730500D01*
X122587528Y-74730500D01*
X122732472Y-74730500D01*
X122732475Y-74730500D01*
X122872485Y-74692984D01*
X122874170Y-74692011D01*
X122874171Y-74692011D01*
X122916605Y-74667511D01*
X122998015Y-74620509D01*
X123100509Y-74518015D01*
X123172984Y-74392485D01*
X123210500Y-74252475D01*
X123210500Y-74107525D01*
X123172984Y-73967515D01*
X123169904Y-73962181D01*
X123100511Y-73841988D01*
X123100506Y-73841982D01*
X122998017Y-73739493D01*
X122998011Y-73739488D01*
X122872488Y-73667017D01*
X122872489Y-73667017D01*
X122861006Y-73663940D01*
X122732475Y-73629500D01*
X122587525Y-73629500D01*
X122458993Y-73663940D01*
X122447511Y-73667017D01*
X122321988Y-73739488D01*
X122321982Y-73739493D01*
X122219493Y-73841982D01*
X122219488Y-73841988D01*
X122147017Y-73967511D01*
X122147016Y-73967515D01*
X122109500Y-74107525D01*
X115448542Y-74107525D01*
X115478015Y-74090509D01*
X115580509Y-73988015D01*
X115652984Y-73862485D01*
X115690500Y-73722475D01*
X115690500Y-73577525D01*
X115690500Y-73357525D01*
X115652984Y-73217515D01*
X115641443Y-73197525D01*
X115623074Y-73165709D01*
X115580512Y-73091988D01*
X115580508Y-73091983D01*
X115298016Y-72809491D01*
X115298015Y-72809490D01*
X115172485Y-72737016D01*
X115110884Y-72720510D01*
X115110883Y-72720509D01*
X115053484Y-72705129D01*
X115032475Y-72699500D01*
X115032474Y-72699500D01*
X114605594Y-72699500D01*
X114583934Y-72693139D01*
X114561428Y-72691368D01*
X114547769Y-72682520D01*
X114538555Y-72679815D01*
X114530573Y-72674231D01*
X114520806Y-72666809D01*
X114518616Y-72663884D01*
X114406518Y-72579967D01*
X114406121Y-72579666D01*
X114385612Y-72551856D01*
X114364960Y-72524268D01*
X114364927Y-72523806D01*
X114364652Y-72523434D01*
X114362435Y-72488967D01*
X114359976Y-72454576D01*
X114360197Y-72454169D01*
X114360168Y-72453708D01*
X114376915Y-72423553D01*
X114393461Y-72393253D01*
X114394007Y-72392779D01*
X114394092Y-72392627D01*
X114394332Y-72392497D01*
X114406832Y-72381668D01*
X114408775Y-72380212D01*
X114408778Y-72380212D01*
X114521116Y-72296116D01*
X114548012Y-72260188D01*
X114603946Y-72218317D01*
X114647278Y-72210500D01*
X115685890Y-72210500D01*
X115685892Y-72210500D01*
X115813186Y-72176392D01*
X115927314Y-72110500D01*
X116230995Y-71806819D01*
X116292318Y-71773334D01*
X116318676Y-71770500D01*
X116839598Y-71770500D01*
X116906637Y-71790185D01*
X116942700Y-71825609D01*
X116959398Y-71850600D01*
X117042260Y-71905966D01*
X117042264Y-71905967D01*
X117115321Y-71920499D01*
X117115324Y-71920500D01*
X117115326Y-71920500D01*
X118964676Y-71920500D01*
X118964677Y-71920499D01*
X119037740Y-71905966D01*
X119120601Y-71850601D01*
X119175966Y-71767740D01*
X119190500Y-71694674D01*
X119190500Y-71169125D01*
X119210185Y-71102086D01*
X119240189Y-71069858D01*
X119297189Y-71027187D01*
X119297190Y-71027186D01*
X119383352Y-70912088D01*
X119383354Y-70912086D01*
X119433596Y-70777379D01*
X119433598Y-70777372D01*
X119439999Y-70717844D01*
X119440000Y-70717827D01*
X119440000Y-70520000D01*
X116640000Y-70520000D01*
X116640000Y-70645500D01*
X116620315Y-70712539D01*
X116567511Y-70758294D01*
X116516000Y-70769500D01*
X115994108Y-70769500D01*
X115866812Y-70803608D01*
X115752686Y-70869500D01*
X115752683Y-70869502D01*
X115449005Y-71173181D01*
X115387682Y-71206666D01*
X115361324Y-71209500D01*
X114647278Y-71209500D01*
X114642896Y-71208213D01*
X114638435Y-71209184D01*
X114609680Y-71198459D01*
X114580239Y-71189815D01*
X114576054Y-71185919D01*
X114572970Y-71184769D01*
X114548013Y-71159813D01*
X114528172Y-71133310D01*
X114503753Y-71067846D01*
X114518603Y-70999573D01*
X114562347Y-70953454D01*
X114568039Y-70949943D01*
X114689944Y-70828038D01*
X114689947Y-70828034D01*
X114780448Y-70681311D01*
X114780453Y-70681300D01*
X114834680Y-70517652D01*
X114844999Y-70416654D01*
X114845000Y-70416641D01*
X114845000Y-70380000D01*
X113944000Y-70380000D01*
X113876961Y-70360315D01*
X113831206Y-70307511D01*
X113820000Y-70256000D01*
X113820000Y-70130000D01*
X113694000Y-70130000D01*
X113626961Y-70110315D01*
X113581206Y-70057511D01*
X113570000Y-70006000D01*
X113570000Y-69880000D01*
X114070000Y-69880000D01*
X114844999Y-69880000D01*
X114844999Y-69843360D01*
X114844998Y-69843345D01*
X114834680Y-69742347D01*
X114826558Y-69717835D01*
X116640000Y-69717835D01*
X116644183Y-69756748D01*
X116644183Y-69783252D01*
X116640000Y-69822164D01*
X116640000Y-70020000D01*
X119440000Y-70020000D01*
X119440000Y-69822179D01*
X119439999Y-69822168D01*
X119435815Y-69783258D01*
X119435815Y-69756742D01*
X119439999Y-69717831D01*
X119440000Y-69717821D01*
X119440000Y-69520000D01*
X116640000Y-69520000D01*
X116640000Y-69717835D01*
X114826558Y-69717835D01*
X114780453Y-69578699D01*
X114780450Y-69578692D01*
X114752720Y-69533736D01*
X114752719Y-69533734D01*
X114689947Y-69431965D01*
X114689944Y-69431961D01*
X114568038Y-69310055D01*
X114568034Y-69310052D01*
X114421311Y-69219551D01*
X114421300Y-69219546D01*
X114257652Y-69165319D01*
X114156654Y-69155000D01*
X114070000Y-69155000D01*
X114070000Y-69880000D01*
X113570000Y-69880000D01*
X113570000Y-69155000D01*
X113569999Y-69154999D01*
X113483360Y-69155000D01*
X113483343Y-69155001D01*
X113382347Y-69165319D01*
X113218699Y-69219546D01*
X113218688Y-69219551D01*
X113071965Y-69310052D01*
X113071961Y-69310055D01*
X112950054Y-69431962D01*
X112896622Y-69518588D01*
X112844673Y-69565312D01*
X112775711Y-69576533D01*
X112711629Y-69548689D01*
X112707532Y-69544944D01*
X112593780Y-69459789D01*
X112593778Y-69459788D01*
X112548757Y-69442996D01*
X112462299Y-69410748D01*
X112404190Y-69404500D01*
X112404174Y-69404500D01*
X111735826Y-69404500D01*
X111735809Y-69404500D01*
X111677700Y-69410748D01*
X111546219Y-69459789D01*
X111433884Y-69543884D01*
X111349789Y-69656219D01*
X111300748Y-69787700D01*
X111294500Y-69845809D01*
X111294500Y-70414190D01*
X111300748Y-70472299D01*
X111349789Y-70603780D01*
X111378755Y-70642473D01*
X111433884Y-70716116D01*
X111546222Y-70800212D01*
X111547311Y-70801027D01*
X111550048Y-70804683D01*
X111554203Y-70806581D01*
X111570793Y-70832395D01*
X111589182Y-70856961D01*
X111590197Y-70862590D01*
X111591977Y-70865359D01*
X111597000Y-70900294D01*
X111597000Y-70988364D01*
X111577315Y-71055403D01*
X111547312Y-71087630D01*
X111498887Y-71123881D01*
X111498885Y-71123883D01*
X111414789Y-71236219D01*
X111365748Y-71367700D01*
X111359500Y-71425809D01*
X111359500Y-71994190D01*
X111365748Y-72052299D01*
X111404384Y-72155885D01*
X111414788Y-72183778D01*
X111498884Y-72296116D01*
X111610668Y-72379797D01*
X111623632Y-72397115D01*
X111640102Y-72411144D01*
X111644156Y-72424533D01*
X111652539Y-72435731D01*
X111654082Y-72457307D01*
X111660353Y-72478015D01*
X111656525Y-72491471D01*
X111657523Y-72505423D01*
X111647155Y-72524409D01*
X111641236Y-72545219D01*
X111627911Y-72559651D01*
X111624038Y-72566746D01*
X111618350Y-72572087D01*
X111610266Y-72579211D01*
X111608722Y-72579788D01*
X111496384Y-72663884D01*
X111461817Y-72710059D01*
X111452215Y-72718523D01*
X111431689Y-72728107D01*
X111413554Y-72741683D01*
X111395728Y-72744898D01*
X111388907Y-72748084D01*
X111382712Y-72747246D01*
X111370222Y-72749500D01*
X110958676Y-72749500D01*
X110891637Y-72729815D01*
X110870995Y-72713181D01*
X109146819Y-70989005D01*
X109113334Y-70927682D01*
X109110500Y-70901324D01*
X109110500Y-68663793D01*
X109130185Y-68596754D01*
X109182989Y-68550999D01*
X109252147Y-68541055D01*
X109303391Y-68560691D01*
X109378165Y-68610654D01*
X109521023Y-68669827D01*
X109521031Y-68669829D01*
X109672679Y-68699994D01*
X109672683Y-68699995D01*
X110190000Y-68699995D01*
X110690000Y-68699995D01*
X111207317Y-68699995D01*
X111207320Y-68699994D01*
X111358968Y-68669829D01*
X111358976Y-68669827D01*
X111501835Y-68610654D01*
X111630407Y-68524744D01*
X111630411Y-68524741D01*
X111739746Y-68415406D01*
X111739749Y-68415402D01*
X111825659Y-68286829D01*
X111876125Y-68164995D01*
X110690000Y-68164995D01*
X110690000Y-68699995D01*
X110190000Y-68699995D01*
X110190000Y-67664995D01*
X110690000Y-67664995D01*
X111876125Y-67664995D01*
X111876124Y-67664994D01*
X111825659Y-67543160D01*
X111739749Y-67414587D01*
X111739746Y-67414583D01*
X111692839Y-67367676D01*
X111659354Y-67306353D01*
X111664338Y-67236661D01*
X111692839Y-67192314D01*
X111739746Y-67145406D01*
X111739749Y-67145402D01*
X111825659Y-67016829D01*
X111876125Y-66894995D01*
X110690000Y-66894995D01*
X110690000Y-67664995D01*
X110190000Y-67664995D01*
X110190000Y-66394995D01*
X110690000Y-66394995D01*
X111876125Y-66394995D01*
X111876124Y-66394994D01*
X111825659Y-66273160D01*
X111739749Y-66144587D01*
X111739746Y-66144583D01*
X111697839Y-66102676D01*
X111664354Y-66041353D01*
X111669338Y-65971661D01*
X111697839Y-65927314D01*
X111739746Y-65885406D01*
X111739749Y-65885402D01*
X111825659Y-65756829D01*
X111876125Y-65634995D01*
X110690000Y-65634995D01*
X110690000Y-66394995D01*
X110190000Y-66394995D01*
X110190000Y-65134995D01*
X110690000Y-65134995D01*
X111876125Y-65134995D01*
X111876124Y-65134994D01*
X111825659Y-65013160D01*
X111739749Y-64884587D01*
X111739746Y-64884583D01*
X111687839Y-64832676D01*
X111654354Y-64771353D01*
X111659338Y-64701661D01*
X111687839Y-64657314D01*
X111739746Y-64605406D01*
X111739749Y-64605402D01*
X111825659Y-64476829D01*
X111876125Y-64354995D01*
X110690000Y-64354995D01*
X110690000Y-65134995D01*
X110190000Y-65134995D01*
X110190000Y-64354995D01*
X108937595Y-64354995D01*
X108937595Y-64352782D01*
X108916351Y-64355444D01*
X108853333Y-64325271D01*
X108848542Y-64320728D01*
X108417316Y-63889502D01*
X108417314Y-63889500D01*
X108357548Y-63854994D01*
X109003875Y-63854994D01*
X109003875Y-63854995D01*
X110190000Y-63854995D01*
X110690000Y-63854995D01*
X111876125Y-63854995D01*
X111876124Y-63854994D01*
X111825659Y-63733160D01*
X111739749Y-63604587D01*
X111739746Y-63604583D01*
X111630411Y-63495248D01*
X111630407Y-63495245D01*
X111501835Y-63409335D01*
X111358976Y-63350162D01*
X111358968Y-63350160D01*
X111207320Y-63319995D01*
X110690000Y-63319995D01*
X110690000Y-63854995D01*
X110190000Y-63854995D01*
X110190000Y-63319995D01*
X109672679Y-63319995D01*
X109521031Y-63350160D01*
X109521023Y-63350162D01*
X109378164Y-63409335D01*
X109249592Y-63495245D01*
X109249588Y-63495248D01*
X109140253Y-63604583D01*
X109140250Y-63604587D01*
X109054340Y-63733160D01*
X109003875Y-63854994D01*
X108357548Y-63854994D01*
X108303186Y-63823608D01*
X108207406Y-63797944D01*
X108147746Y-63761579D01*
X108117217Y-63698731D01*
X108115500Y-63678169D01*
X108115500Y-63585323D01*
X108115499Y-63585321D01*
X108100967Y-63512264D01*
X108100966Y-63512260D01*
X108045601Y-63429399D01*
X107962740Y-63374034D01*
X107962739Y-63374033D01*
X107962735Y-63374032D01*
X107889677Y-63359500D01*
X107889674Y-63359500D01*
X106610326Y-63359500D01*
X106610323Y-63359500D01*
X106537264Y-63374032D01*
X106537260Y-63374033D01*
X106454399Y-63429399D01*
X106399033Y-63512260D01*
X106399032Y-63512264D01*
X106384500Y-63585321D01*
X106384500Y-64994678D01*
X106399032Y-65067735D01*
X106399033Y-65067739D01*
X106413942Y-65090052D01*
X106454399Y-65150601D01*
X106537260Y-65205966D01*
X106537264Y-65205967D01*
X106610321Y-65220499D01*
X106610324Y-65220500D01*
X106610326Y-65220500D01*
X107889676Y-65220500D01*
X107961308Y-65206251D01*
X108030900Y-65212478D01*
X108086077Y-65255340D01*
X108109322Y-65321230D01*
X108109500Y-65327868D01*
X108109500Y-71094108D01*
X108109500Y-71225892D01*
X108127590Y-71293408D01*
X108125928Y-71363256D01*
X108086766Y-71421119D01*
X108022537Y-71448623D01*
X108007816Y-71449500D01*
X107532065Y-71449500D01*
X107465026Y-71429815D01*
X107459375Y-71425261D01*
X107420208Y-71399091D01*
X107367740Y-71364034D01*
X107367738Y-71364033D01*
X107367735Y-71364032D01*
X107294677Y-71349500D01*
X107294674Y-71349500D01*
X105745326Y-71349500D01*
X105745323Y-71349500D01*
X105672264Y-71364032D01*
X105672260Y-71364033D01*
X105589399Y-71419399D01*
X105534033Y-71502260D01*
X105534032Y-71502264D01*
X105519500Y-71575321D01*
X105519500Y-72324678D01*
X105534032Y-72397735D01*
X105534033Y-72397739D01*
X105584228Y-72472862D01*
X105605105Y-72539540D01*
X105586620Y-72606920D01*
X105553057Y-72642756D01*
X105416432Y-72740057D01*
X105384741Y-72751026D01*
X105353347Y-72762737D01*
X105351852Y-72762411D01*
X105350407Y-72762912D01*
X105317852Y-72755016D01*
X105285074Y-72747886D01*
X105283991Y-72746803D01*
X105282506Y-72746443D01*
X105259383Y-72722196D01*
X105235668Y-72698481D01*
X105235265Y-72696905D01*
X105234287Y-72695879D01*
X105232074Y-72684399D01*
X105220500Y-72639053D01*
X105220500Y-72631004D01*
X105193581Y-72495677D01*
X105193580Y-72495676D01*
X105193580Y-72495672D01*
X105189913Y-72486818D01*
X105140778Y-72368195D01*
X105140771Y-72368182D01*
X105064114Y-72253458D01*
X105064111Y-72253454D01*
X104966545Y-72155888D01*
X104966541Y-72155885D01*
X104851817Y-72079228D01*
X104851804Y-72079221D01*
X104724332Y-72026421D01*
X104724322Y-72026418D01*
X104588995Y-71999500D01*
X104588993Y-71999500D01*
X104451007Y-71999500D01*
X104451005Y-71999500D01*
X104315677Y-72026418D01*
X104315667Y-72026421D01*
X104188195Y-72079221D01*
X104188182Y-72079228D01*
X104073458Y-72155885D01*
X104073454Y-72155888D01*
X103975888Y-72253454D01*
X103975885Y-72253458D01*
X103899228Y-72368182D01*
X103899221Y-72368195D01*
X103846421Y-72495667D01*
X103846418Y-72495677D01*
X103819500Y-72631004D01*
X103819500Y-72631007D01*
X103819500Y-72768993D01*
X103819500Y-72768995D01*
X103819499Y-72768995D01*
X101500500Y-72768995D01*
X101500500Y-69768995D01*
X103819499Y-69768995D01*
X103846418Y-69904322D01*
X103846421Y-69904332D01*
X103899221Y-70031804D01*
X103899228Y-70031817D01*
X103975885Y-70146541D01*
X103975888Y-70146545D01*
X104073454Y-70244111D01*
X104073458Y-70244114D01*
X104188182Y-70320771D01*
X104188195Y-70320778D01*
X104315667Y-70373578D01*
X104315672Y-70373580D01*
X104315676Y-70373580D01*
X104315677Y-70373581D01*
X104451004Y-70400500D01*
X104451007Y-70400500D01*
X104588995Y-70400500D01*
X104680041Y-70382389D01*
X104724328Y-70373580D01*
X104851811Y-70320775D01*
X104966542Y-70244114D01*
X105064114Y-70146542D01*
X105140775Y-70031811D01*
X105193580Y-69904328D01*
X105209924Y-69822164D01*
X105220500Y-69768995D01*
X105220500Y-69631004D01*
X105220499Y-69631002D01*
X105209100Y-69573691D01*
X105210672Y-69556119D01*
X105207177Y-69538825D01*
X105213721Y-69522041D01*
X105215327Y-69504099D01*
X105226150Y-69490165D01*
X105232560Y-69473729D01*
X105247138Y-69463148D01*
X105258190Y-69448922D01*
X105274906Y-69442996D01*
X105289107Y-69432690D01*
X105318123Y-69427676D01*
X105323701Y-69425699D01*
X105327213Y-69425500D01*
X105432601Y-69425500D01*
X105460865Y-69417926D01*
X105473610Y-69417204D01*
X105495700Y-69422352D01*
X105518378Y-69422892D01*
X105529075Y-69430131D01*
X105541656Y-69433064D01*
X105557456Y-69449338D01*
X105576242Y-69462052D01*
X105583726Y-69472111D01*
X105589399Y-69480601D01*
X105668920Y-69533734D01*
X105672260Y-69535966D01*
X105672264Y-69535967D01*
X105745321Y-69550499D01*
X105745324Y-69550500D01*
X105745326Y-69550500D01*
X107294676Y-69550500D01*
X107294677Y-69550499D01*
X107367740Y-69535966D01*
X107450601Y-69480601D01*
X107505966Y-69397740D01*
X107520500Y-69324674D01*
X107520500Y-68575326D01*
X107520500Y-68575323D01*
X107520499Y-68575321D01*
X107505967Y-68502264D01*
X107505966Y-68502260D01*
X107493598Y-68483750D01*
X107450601Y-68419399D01*
X107367740Y-68364034D01*
X107367739Y-68364033D01*
X107367735Y-68364032D01*
X107294677Y-68349500D01*
X107294674Y-68349500D01*
X106620534Y-68349500D01*
X106553495Y-68329815D01*
X106507740Y-68277011D01*
X106497796Y-68207853D01*
X106504352Y-68182168D01*
X106513596Y-68157382D01*
X106513598Y-68157372D01*
X106519999Y-68097844D01*
X106520000Y-68097827D01*
X106520000Y-67800000D01*
X104720000Y-67800000D01*
X104720000Y-68097844D01*
X104726401Y-68157372D01*
X104726403Y-68157379D01*
X104776645Y-68292086D01*
X104776649Y-68292093D01*
X104862809Y-68407187D01*
X104862812Y-68407190D01*
X104965082Y-68483750D01*
X105006953Y-68539684D01*
X105011937Y-68609375D01*
X104992827Y-68650568D01*
X104993569Y-68650997D01*
X104926905Y-68766463D01*
X104926905Y-68766464D01*
X104895140Y-68885013D01*
X104894500Y-68887400D01*
X104894500Y-68911328D01*
X104874815Y-68978367D01*
X104822011Y-69024122D01*
X104752853Y-69034066D01*
X104730252Y-69027867D01*
X104730155Y-69028188D01*
X104724322Y-69026418D01*
X104588995Y-68999500D01*
X104588993Y-68999500D01*
X104451007Y-68999500D01*
X104451005Y-68999500D01*
X104315677Y-69026418D01*
X104315667Y-69026421D01*
X104188195Y-69079221D01*
X104188182Y-69079228D01*
X104073458Y-69155885D01*
X104073454Y-69155888D01*
X103975888Y-69253454D01*
X103975885Y-69253458D01*
X103899228Y-69368182D01*
X103899221Y-69368195D01*
X103846421Y-69495667D01*
X103846418Y-69495677D01*
X103819500Y-69631004D01*
X103819500Y-69631007D01*
X103819500Y-69768993D01*
X103819500Y-69768995D01*
X103819499Y-69768995D01*
X101500500Y-69768995D01*
X101500500Y-68097844D01*
X102520000Y-68097844D01*
X102526401Y-68157372D01*
X102526403Y-68157379D01*
X102576645Y-68292086D01*
X102576649Y-68292093D01*
X102662809Y-68407187D01*
X102662812Y-68407190D01*
X102777906Y-68493350D01*
X102777913Y-68493354D01*
X102912620Y-68543596D01*
X102912627Y-68543598D01*
X102972155Y-68549999D01*
X102972172Y-68550000D01*
X103170000Y-68550000D01*
X103670000Y-68550000D01*
X103867828Y-68550000D01*
X103867844Y-68549999D01*
X103927372Y-68543598D01*
X103927379Y-68543596D01*
X104062086Y-68493354D01*
X104062093Y-68493350D01*
X104177187Y-68407190D01*
X104177190Y-68407187D01*
X104263350Y-68292093D01*
X104263354Y-68292086D01*
X104313596Y-68157379D01*
X104313598Y-68157372D01*
X104319999Y-68097844D01*
X104320000Y-68097827D01*
X104320000Y-67800000D01*
X103670000Y-67800000D01*
X103670000Y-68550000D01*
X103170000Y-68550000D01*
X103170000Y-67800000D01*
X102520000Y-67800000D01*
X102520000Y-68097844D01*
X101500500Y-68097844D01*
X101500500Y-67002155D01*
X102520000Y-67002155D01*
X102520000Y-67300000D01*
X103170000Y-67300000D01*
X103670000Y-67300000D01*
X104320000Y-67300000D01*
X104320000Y-67002172D01*
X104319999Y-67002155D01*
X104720000Y-67002155D01*
X104720000Y-67300000D01*
X105370000Y-67300000D01*
X105870000Y-67300000D01*
X106520000Y-67300000D01*
X106520000Y-67002172D01*
X106519999Y-67002155D01*
X106513598Y-66942627D01*
X106513596Y-66942620D01*
X106463354Y-66807913D01*
X106463350Y-66807906D01*
X106377190Y-66692812D01*
X106377187Y-66692809D01*
X106262093Y-66606649D01*
X106262086Y-66606645D01*
X106127379Y-66556403D01*
X106127372Y-66556401D01*
X106067844Y-66550000D01*
X105870000Y-66550000D01*
X105870000Y-67300000D01*
X105370000Y-67300000D01*
X105370000Y-66550000D01*
X105172155Y-66550000D01*
X105112627Y-66556401D01*
X105112620Y-66556403D01*
X104977913Y-66606645D01*
X104977906Y-66606649D01*
X104862812Y-66692809D01*
X104862809Y-66692812D01*
X104776649Y-66807906D01*
X104776645Y-66807913D01*
X104726403Y-66942620D01*
X104726401Y-66942627D01*
X104720000Y-67002155D01*
X104319999Y-67002155D01*
X104313598Y-66942627D01*
X104313596Y-66942620D01*
X104263354Y-66807913D01*
X104263350Y-66807906D01*
X104177190Y-66692812D01*
X104177187Y-66692809D01*
X104062093Y-66606649D01*
X104062086Y-66606645D01*
X103927379Y-66556403D01*
X103927372Y-66556401D01*
X103867844Y-66550000D01*
X103670000Y-66550000D01*
X103670000Y-67300000D01*
X103170000Y-67300000D01*
X103170000Y-66550000D01*
X102972155Y-66550000D01*
X102912627Y-66556401D01*
X102912620Y-66556403D01*
X102777913Y-66606645D01*
X102777906Y-66606649D01*
X102662812Y-66692809D01*
X102662809Y-66692812D01*
X102576649Y-66807906D01*
X102576645Y-66807913D01*
X102526403Y-66942620D01*
X102526401Y-66942627D01*
X102520000Y-67002155D01*
X101500500Y-67002155D01*
X101500500Y-65017844D01*
X101775000Y-65017844D01*
X101781401Y-65077372D01*
X101781403Y-65077379D01*
X101831645Y-65212086D01*
X101831649Y-65212093D01*
X101917809Y-65327187D01*
X101917812Y-65327190D01*
X102032906Y-65413350D01*
X102032913Y-65413354D01*
X102167620Y-65463596D01*
X102167627Y-65463598D01*
X102227155Y-65469999D01*
X102227172Y-65470000D01*
X102640000Y-65470000D01*
X103140000Y-65470000D01*
X103552828Y-65470000D01*
X103552844Y-65469999D01*
X103612372Y-65463598D01*
X103612379Y-65463596D01*
X103747086Y-65413354D01*
X103747093Y-65413350D01*
X103862187Y-65327190D01*
X103862190Y-65327187D01*
X103948350Y-65212093D01*
X103948354Y-65212086D01*
X103998596Y-65077379D01*
X103998598Y-65077372D01*
X104004999Y-65017844D01*
X104005000Y-65017827D01*
X104005000Y-64540000D01*
X103140000Y-64540000D01*
X103140000Y-65470000D01*
X102640000Y-65470000D01*
X102640000Y-64540000D01*
X101775000Y-64540000D01*
X101775000Y-65017844D01*
X101500500Y-65017844D01*
X101500500Y-63562155D01*
X101775000Y-63562155D01*
X101775000Y-64040000D01*
X102640000Y-64040000D01*
X103140000Y-64040000D01*
X104005000Y-64040000D01*
X104005000Y-63562172D01*
X104004999Y-63562155D01*
X103998598Y-63502627D01*
X103998596Y-63502620D01*
X103948354Y-63367913D01*
X103948350Y-63367906D01*
X103862190Y-63252812D01*
X103862187Y-63252809D01*
X103747093Y-63166649D01*
X103747086Y-63166645D01*
X103612379Y-63116403D01*
X103612372Y-63116401D01*
X103552844Y-63110000D01*
X103140000Y-63110000D01*
X103140000Y-64040000D01*
X102640000Y-64040000D01*
X102640000Y-63110000D01*
X102227155Y-63110000D01*
X102167627Y-63116401D01*
X102167620Y-63116403D01*
X102032913Y-63166645D01*
X102032906Y-63166649D01*
X101917812Y-63252809D01*
X101917809Y-63252812D01*
X101831649Y-63367906D01*
X101831645Y-63367913D01*
X101781403Y-63502620D01*
X101781401Y-63502627D01*
X101775000Y-63562155D01*
X101500500Y-63562155D01*
X101500500Y-63004427D01*
X101500816Y-62995581D01*
X101507559Y-62901297D01*
X101515130Y-62795436D01*
X101517646Y-62777938D01*
X101559356Y-62586199D01*
X101564333Y-62569248D01*
X101632911Y-62385385D01*
X101640259Y-62369298D01*
X101676283Y-62303324D01*
X101734291Y-62197089D01*
X101743845Y-62182221D01*
X101861448Y-62025123D01*
X101873020Y-62011769D01*
X102011769Y-61873020D01*
X102025123Y-61861448D01*
X102182221Y-61743845D01*
X102197089Y-61734291D01*
X102369298Y-61640258D01*
X102385385Y-61632911D01*
X102569248Y-61564333D01*
X102586199Y-61559356D01*
X102777938Y-61517646D01*
X102795436Y-61515130D01*
X102995582Y-61500816D01*
X103004428Y-61500500D01*
X113651254Y-61500500D01*
X113696630Y-61494990D01*
X113951551Y-61464037D01*
X114245266Y-61391643D01*
X114245269Y-61391641D01*
X114245272Y-61391641D01*
X114353392Y-61350636D01*
X114528113Y-61284373D01*
X114795967Y-61143792D01*
X115044924Y-60971950D01*
X115093760Y-60928684D01*
X115156993Y-60898963D01*
X115175987Y-60897500D01*
X115670000Y-60897500D01*
X116170000Y-60897500D01*
X116894999Y-60897500D01*
X116894999Y-60798360D01*
X116894998Y-60798345D01*
X116884680Y-60697347D01*
X116830453Y-60533699D01*
X116830448Y-60533688D01*
X116739947Y-60386965D01*
X116739944Y-60386961D01*
X116618038Y-60265055D01*
X116618034Y-60265052D01*
X116471311Y-60174551D01*
X116471300Y-60174546D01*
X116307652Y-60120319D01*
X116206654Y-60110000D01*
X116170000Y-60110000D01*
X116170000Y-60897500D01*
X115670000Y-60897500D01*
X115670000Y-60276593D01*
X115673147Y-60263518D01*
X115672161Y-60253546D01*
X115683136Y-60222031D01*
X115683589Y-60220153D01*
X115683837Y-60219667D01*
X115784373Y-60028113D01*
X115891643Y-59745266D01*
X115964037Y-59451551D01*
X116000500Y-59151252D01*
X116000500Y-59000000D01*
X116000500Y-58934108D01*
X116000500Y-56504427D01*
X116000816Y-56495581D01*
X116009377Y-56375880D01*
X116015130Y-56295436D01*
X116017646Y-56277938D01*
X116059356Y-56086199D01*
X116064333Y-56069248D01*
X116132911Y-55885385D01*
X116140259Y-55869298D01*
X116202815Y-55754734D01*
X116234291Y-55697089D01*
X116243845Y-55682221D01*
X116361448Y-55525123D01*
X116373020Y-55511769D01*
X116511769Y-55373020D01*
X116525123Y-55361448D01*
X116682221Y-55243845D01*
X116697089Y-55234291D01*
X116869298Y-55140258D01*
X116885385Y-55132911D01*
X117069248Y-55064333D01*
X117086199Y-55059356D01*
X117277938Y-55017646D01*
X117295436Y-55015130D01*
X117495582Y-55000816D01*
X117504428Y-55000500D01*
X117565892Y-55000500D01*
X122934108Y-55000500D01*
X128434108Y-55000500D01*
X128495572Y-55000500D01*
X128504418Y-55000816D01*
G37*
%TD.AperFunction*%
%TA.AperFunction,Conductor*%
G36*
X130261453Y-92379600D02*
G01*
X130293804Y-92423498D01*
X130293978Y-92423896D01*
X130293979Y-92423898D01*
X130295804Y-92428060D01*
X130306250Y-92477872D01*
X130306250Y-92946624D01*
X130358825Y-92939703D01*
X130427860Y-92950469D01*
X130477267Y-92992503D01*
X130605757Y-93179833D01*
X130613187Y-93202590D01*
X130624663Y-93223600D01*
X130626930Y-93244679D01*
X130627444Y-93246252D01*
X130627200Y-93247185D01*
X130627500Y-93249972D01*
X130627500Y-93259997D01*
X130639983Y-93356924D01*
X130639986Y-93356934D01*
X130685039Y-93457400D01*
X130694509Y-93526625D01*
X130688690Y-93545923D01*
X130689406Y-93546132D01*
X130686750Y-93555244D01*
X130680751Y-93600811D01*
X130680750Y-93600827D01*
X130680750Y-93799180D01*
X130686750Y-93844756D01*
X130686753Y-93844766D01*
X130711388Y-93897596D01*
X130721880Y-93966673D01*
X130711389Y-94002404D01*
X130686750Y-94055243D01*
X130680751Y-94100811D01*
X130680750Y-94100827D01*
X130680750Y-94299180D01*
X130686750Y-94344756D01*
X130686751Y-94344760D01*
X130692079Y-94356185D01*
X130702571Y-94425263D01*
X130674052Y-94489047D01*
X130615576Y-94527287D01*
X130545708Y-94527842D01*
X130532245Y-94523152D01*
X130390595Y-94464479D01*
X130390590Y-94464478D01*
X130306250Y-94453373D01*
X130306250Y-94964133D01*
X130305157Y-94967852D01*
X130305985Y-94972242D01*
X130305750Y-94975827D01*
X130305750Y-95263500D01*
X130286065Y-95330539D01*
X130233261Y-95376294D01*
X130181750Y-95387500D01*
X130180749Y-95387500D01*
X130113710Y-95367815D01*
X130067955Y-95315011D01*
X130056749Y-95263500D01*
X130056749Y-94975817D01*
X130056516Y-94972264D01*
X130056250Y-94964152D01*
X130056250Y-94453373D01*
X129971909Y-94464478D01*
X129971907Y-94464478D01*
X129835074Y-94521156D01*
X129717567Y-94611323D01*
X129687129Y-94650989D01*
X129630700Y-94692190D01*
X129620886Y-94695265D01*
X129605097Y-94699500D01*
X129582072Y-94699501D01*
X129536490Y-94705501D01*
X129473842Y-94734714D01*
X129463380Y-94737521D01*
X129438841Y-94736944D01*
X129414575Y-94740630D01*
X129398822Y-94736004D01*
X129393529Y-94735880D01*
X129389792Y-94733352D01*
X129378845Y-94730138D01*
X129326009Y-94705500D01*
X129280438Y-94699501D01*
X129280435Y-94699500D01*
X129280429Y-94699500D01*
X129280422Y-94699500D01*
X129082069Y-94699500D01*
X129069545Y-94701149D01*
X129000510Y-94690379D01*
X128948258Y-94643995D01*
X128930429Y-94594394D01*
X128916772Y-94490659D01*
X128916771Y-94490657D01*
X128860093Y-94353824D01*
X128769927Y-94236317D01*
X128730261Y-94205880D01*
X128689059Y-94149451D01*
X128685984Y-94139636D01*
X128681749Y-94123850D01*
X128681749Y-94100822D01*
X128675749Y-94055240D01*
X128646533Y-93992587D01*
X128643728Y-93982130D01*
X128644304Y-93957591D01*
X128640619Y-93933327D01*
X128645244Y-93917572D01*
X128645369Y-93912279D01*
X128647895Y-93908543D01*
X128651108Y-93897601D01*
X128675749Y-93844760D01*
X128681750Y-93799179D01*
X128681749Y-93600822D01*
X128677925Y-93571774D01*
X128688690Y-93502742D01*
X128691792Y-93496608D01*
X128733456Y-93419621D01*
X128754181Y-93295423D01*
X128754181Y-93226297D01*
X128773866Y-93159258D01*
X128779805Y-93150811D01*
X128860092Y-93046178D01*
X128916771Y-92909342D01*
X128916772Y-92909340D01*
X128930429Y-92805606D01*
X128958695Y-92741709D01*
X129017020Y-92703238D01*
X129069554Y-92698852D01*
X129082071Y-92700500D01*
X129280428Y-92700499D01*
X129280430Y-92700499D01*
X129298957Y-92698060D01*
X129326010Y-92694499D01*
X129378847Y-92669860D01*
X129447921Y-92659369D01*
X129463381Y-92662478D01*
X129473835Y-92665282D01*
X129536490Y-92694499D01*
X129582071Y-92700500D01*
X129605105Y-92700499D01*
X129620888Y-92704734D01*
X129637319Y-92714756D01*
X129655787Y-92720177D01*
X129674639Y-92737519D01*
X129680537Y-92741117D01*
X129682140Y-92744419D01*
X129687133Y-92749013D01*
X129717568Y-92788678D01*
X129835074Y-92878843D01*
X129971907Y-92935521D01*
X129971915Y-92935523D01*
X130056248Y-92946625D01*
X130056250Y-92946624D01*
X130056250Y-92473313D01*
X130075935Y-92406274D01*
X130128739Y-92360519D01*
X130197897Y-92350575D01*
X130261453Y-92379600D01*
G37*
%TD.AperFunction*%
%TA.AperFunction,Conductor*%
G36*
X127973833Y-84227204D02*
G01*
X128029767Y-84269075D01*
X128054184Y-84334540D01*
X128054500Y-84343386D01*
X128054500Y-84471690D01*
X128060748Y-84529799D01*
X128090034Y-84608316D01*
X128103081Y-84643297D01*
X128109789Y-84661280D01*
X128143351Y-84706112D01*
X128193884Y-84773616D01*
X128279003Y-84837336D01*
X128295456Y-84849653D01*
X128306222Y-84857712D01*
X128378714Y-84884750D01*
X128437700Y-84906751D01*
X128495809Y-84912999D01*
X128495826Y-84913000D01*
X129064174Y-84913000D01*
X129064190Y-84912999D01*
X129122299Y-84906751D01*
X129125420Y-84905587D01*
X129253778Y-84857712D01*
X129366116Y-84773616D01*
X129366121Y-84773608D01*
X129369701Y-84770030D01*
X129370493Y-84768297D01*
X129396315Y-84751701D01*
X129420880Y-84733316D01*
X129426503Y-84732301D01*
X129429271Y-84730523D01*
X129464206Y-84725500D01*
X129615794Y-84725500D01*
X129682833Y-84745185D01*
X129707139Y-84767812D01*
X129707610Y-84767342D01*
X129713881Y-84773612D01*
X129713884Y-84773616D01*
X129713887Y-84773618D01*
X129815455Y-84849653D01*
X129857326Y-84905587D01*
X129862310Y-84975278D01*
X129828824Y-85036601D01*
X129780150Y-85066624D01*
X129748703Y-85077045D01*
X129748688Y-85077051D01*
X129601965Y-85167552D01*
X129480054Y-85289462D01*
X129468063Y-85308902D01*
X129416114Y-85355624D01*
X129347151Y-85366844D01*
X129288217Y-85343068D01*
X129253782Y-85317290D01*
X129253779Y-85317289D01*
X129253778Y-85317288D01*
X129209484Y-85300767D01*
X129122299Y-85268248D01*
X129064190Y-85262000D01*
X129064174Y-85262000D01*
X128495826Y-85262000D01*
X128495809Y-85262000D01*
X128437700Y-85268248D01*
X128306219Y-85317289D01*
X128193884Y-85401384D01*
X128109789Y-85513719D01*
X128060748Y-85645200D01*
X128054500Y-85703309D01*
X128054500Y-86296690D01*
X128060748Y-86354799D01*
X128092084Y-86438811D01*
X128103793Y-86470206D01*
X128109789Y-86486280D01*
X128124496Y-86505926D01*
X128193884Y-86598616D01*
X128193885Y-86598617D01*
X128199199Y-86605715D01*
X128197920Y-86606671D01*
X128226572Y-86659142D01*
X128221588Y-86728834D01*
X128179716Y-86784767D01*
X128114252Y-86809184D01*
X128105406Y-86809500D01*
X125705345Y-86809500D01*
X125638306Y-86789815D01*
X125592551Y-86737011D01*
X125582607Y-86667853D01*
X125611632Y-86604297D01*
X125617664Y-86597819D01*
X125629944Y-86585538D01*
X125629947Y-86585534D01*
X125720448Y-86438811D01*
X125720453Y-86438800D01*
X125774680Y-86275152D01*
X125784999Y-86174154D01*
X125785000Y-86174141D01*
X125785000Y-86125000D01*
X124934000Y-86125000D01*
X124866961Y-86105315D01*
X124821206Y-86052511D01*
X124810000Y-86001000D01*
X124810000Y-85749000D01*
X124829685Y-85681961D01*
X124882489Y-85636206D01*
X124934000Y-85625000D01*
X125784999Y-85625000D01*
X125784999Y-85575860D01*
X125784998Y-85575845D01*
X125774680Y-85474847D01*
X125720453Y-85311199D01*
X125720448Y-85311188D01*
X125629947Y-85164465D01*
X125629944Y-85164461D01*
X125508038Y-85042555D01*
X125508034Y-85042552D01*
X125361311Y-84952051D01*
X125361302Y-84952047D01*
X125329850Y-84941625D01*
X125321942Y-84936150D01*
X125312491Y-84934369D01*
X125293683Y-84916584D01*
X125272406Y-84901852D01*
X125268714Y-84892972D01*
X125261725Y-84886363D01*
X125255518Y-84861233D01*
X125245583Y-84837336D01*
X125247278Y-84827868D01*
X125244972Y-84818531D01*
X125253335Y-84794037D01*
X125257898Y-84768560D01*
X125265044Y-84759750D01*
X125267551Y-84752410D01*
X125288343Y-84731028D01*
X125291801Y-84726766D01*
X125293148Y-84725697D01*
X125396116Y-84648616D01*
X125404564Y-84637330D01*
X125417152Y-84627347D01*
X125435250Y-84620014D01*
X125450880Y-84608316D01*
X125474757Y-84604008D01*
X125481909Y-84601111D01*
X125486266Y-84601932D01*
X125494206Y-84600500D01*
X127342472Y-84600500D01*
X127342474Y-84600500D01*
X127342475Y-84600500D01*
X127482485Y-84562984D01*
X127608015Y-84490510D01*
X127842820Y-84255704D01*
X127904142Y-84222220D01*
X127973833Y-84227204D01*
G37*
%TD.AperFunction*%
%TA.AperFunction,Conductor*%
G36*
X125221529Y-79507784D02*
G01*
X125226066Y-79507242D01*
X125253664Y-79520649D01*
X125282152Y-79532054D01*
X125284802Y-79535776D01*
X125288913Y-79537773D01*
X125304885Y-79563978D01*
X125322680Y-79588969D01*
X125323656Y-79594778D01*
X125325276Y-79597435D01*
X125325130Y-79603540D01*
X125329500Y-79629525D01*
X125329500Y-80636000D01*
X125309815Y-80703039D01*
X125257011Y-80748794D01*
X125205500Y-80760000D01*
X125080000Y-80760000D01*
X125080000Y-82036000D01*
X125060315Y-82103039D01*
X125007511Y-82148794D01*
X124956000Y-82160000D01*
X124704000Y-82160000D01*
X124636961Y-82140315D01*
X124591206Y-82087511D01*
X124580000Y-82036000D01*
X124580000Y-80760000D01*
X124454500Y-80760000D01*
X124445814Y-80757449D01*
X124436853Y-80758738D01*
X124412812Y-80747759D01*
X124387461Y-80740315D01*
X124381533Y-80733474D01*
X124373297Y-80729713D01*
X124359007Y-80707478D01*
X124341706Y-80687511D01*
X124339418Y-80676996D01*
X124335523Y-80670935D01*
X124330500Y-80636000D01*
X124330500Y-80418618D01*
X124350185Y-80351579D01*
X124366819Y-80330937D01*
X124691256Y-80006500D01*
X125040500Y-79657256D01*
X125058617Y-79625874D01*
X125063306Y-79618384D01*
X125069939Y-79608583D01*
X125080509Y-79598015D01*
X125100328Y-79563686D01*
X125102811Y-79560019D01*
X125126474Y-79540482D01*
X125148680Y-79519309D01*
X125153167Y-79518444D01*
X125156691Y-79515535D01*
X125187156Y-79511893D01*
X125217287Y-79506086D01*
X125221529Y-79507784D01*
G37*
%TD.AperFunction*%
%TA.AperFunction,Conductor*%
G36*
X120890703Y-61323962D02*
G01*
X120897181Y-61329994D01*
X120973181Y-61405994D01*
X121006666Y-61467317D01*
X121009500Y-61493675D01*
X121009500Y-62634108D01*
X121009500Y-62765892D01*
X121017418Y-62795442D01*
X121043608Y-62893187D01*
X121067234Y-62934108D01*
X121109500Y-63007314D01*
X121109502Y-63007316D01*
X122124505Y-64022319D01*
X122157990Y-64083642D01*
X122153006Y-64153334D01*
X122124505Y-64197681D01*
X118944010Y-67378176D01*
X118882687Y-67411661D01*
X118856329Y-67414495D01*
X116767448Y-67414495D01*
X116735356Y-67410270D01*
X116696163Y-67399768D01*
X116636504Y-67363403D01*
X116605976Y-67300556D01*
X116614271Y-67231180D01*
X116658757Y-67177303D01*
X116696160Y-67160222D01*
X116756695Y-67144002D01*
X116756698Y-67143999D01*
X116764166Y-67141999D01*
X116764991Y-67141718D01*
X116878191Y-67111387D01*
X116992319Y-67045495D01*
X118080499Y-65957315D01*
X118090208Y-65940500D01*
X118146392Y-65843186D01*
X118180500Y-65715893D01*
X118180500Y-65584108D01*
X118180500Y-63608676D01*
X118200185Y-63541637D01*
X118216819Y-63520995D01*
X119475995Y-62261819D01*
X119537318Y-62228334D01*
X119563676Y-62225500D01*
X119995397Y-62225500D01*
X120094892Y-62205708D01*
X120143288Y-62196082D01*
X120282600Y-62138377D01*
X120282600Y-62138376D01*
X120282602Y-62138376D01*
X120372864Y-62078065D01*
X120407978Y-62054603D01*
X120514603Y-61947978D01*
X120579093Y-61851461D01*
X120598376Y-61822602D01*
X120598377Y-61822600D01*
X120656082Y-61683288D01*
X120680359Y-61561240D01*
X120685500Y-61535397D01*
X120685500Y-61417675D01*
X120705185Y-61350636D01*
X120757989Y-61304881D01*
X120827147Y-61294937D01*
X120890703Y-61323962D01*
G37*
%TD.AperFunction*%
%TD*%
M02*
