M48
; DRILL file {KiCad 9.0.4} date 2025-10-03T18:09:38+0200
; FORMAT={-:-/ absolute / inch / decimal}
; #@! TF.CreationDate,2025-10-03T18:09:38+02:00
; #@! TF.GenerationSoftware,Kicad,Pcbnew,9.0.4
; #@! TF.FileFunction,Plated,1,4,PTH
FMAT,2
INCH
; #@! TA.AperFunction,Plated,PTH,ViaDrill
T1C0.0079
; #@! TA.AperFunction,Plated,PTH,ViaDrill
T2C0.0118
; #@! TA.AperFunction,Plated,PTH,ViaDrill
T3C0.0157
; #@! TA.AperFunction,Plated,PTH,ComponentDrill
T4C0.0287
; #@! TA.AperFunction,Plated,PTH,ComponentDrill
T5C0.0295
; #@! TA.AperFunction,Plated,PTH,ComponentDrill
T6C0.0354
; #@! TA.AperFunction,Plated,PTH,ComponentDrill
T7C0.0394
%
G90
G05
T1
X4.0717Y-2.6909
X4.0724Y-2.9177
X4.128Y-2.6591
X4.1331Y-2.9201
X4.1484Y-2.7146
X4.1488Y-2.8921
X4.3902Y-2.5244
X4.3961Y-2.5748
X4.3961Y-2.6248
X4.4Y-2.6736
X4.4461Y-3.4213
X4.4504Y-2.4858
X4.4677Y-2.7083
X4.5122Y-2.5748
X4.5323Y-2.4728
X4.5358Y-2.4189
X4.5937Y-2.25
X4.5957Y-2.3244
X4.5957Y-2.9701
X4.6063Y-2.8689
X4.6453Y-2.4193
X4.6476Y-2.6406
X4.674Y-2.9185
X4.6787Y-3.2811
X4.6902Y-3.2039
X4.7283Y-3.2736
X4.7303Y-2.5764
X4.7512Y-2.6661
X4.7626Y-3.1311
X4.7882Y-2.1929
X4.7886Y-2.7555
X4.7921Y-3.3807
X4.8335Y-2.2189
X4.848Y-3.4787
X4.8626Y-2.3035
X4.8626Y-2.4874
X4.8654Y-2.874
X4.9146Y-3.8051
X4.9268Y-3.4787
X4.9461Y-2.8752
X4.9795Y-3.8622
X4.9854Y-3.4024
X4.9949Y-3.3457
X4.9988Y-3.6925
X5.0171Y-3.647
X5.024Y-3.7283
X5.0252Y-2.3469
X5.0319Y-3.7768
X5.0413Y-2.2776
X5.0484Y-3.8496
X5.0701Y-2.4591
X5.0744Y-3.9055
X5.0756Y-3.7854
X5.1059Y-3.7823
X5.1094Y-3.8445
X5.1102Y-3.1965
X5.1315Y-2.5917
X5.1335Y-2.5315
X5.1374Y-3.8413
X5.1382Y-3.9055
X5.1433Y-2.4567
X5.1673Y-3.4398
X5.1681Y-3.8504
X5.172Y-3.0819
X5.1953Y-3.9051
X5.1992Y-3.748
X5.2173Y-3.2106
X5.2173Y-3.6386
X5.2205Y-3.3976
X5.2268Y-3.7823
X5.2575Y-3.6898
X5.2583Y-3.9063
X5.261Y-3.811
X5.2791Y-2.4598
X5.2886Y-3.8441
X5.2996Y-3.2201
X5.302Y-3.4287
X5.3051Y-3.7382
X5.3146Y-3.2701
X5.3189Y-3.7736
X5.3476Y-2.5346
X5.4362Y-3.778
T2
X4.0122Y-3.2193
X4.0181Y-2.8228
X4.0181Y-3.0386
X4.0201Y-2.7126
X4.028Y-2.6039
X4.0504Y-2.4909
X4.0898Y-3.3819
X4.113Y-2.8004
X4.1165Y-2.565
X4.1165Y-2.6142
X4.1169Y-2.515
X4.1276Y-3.0461
X4.1449Y-3.2224
X4.1669Y-2.4433
X4.2055Y-2.7756
X4.2268Y-2.6012
X4.2386Y-3.0102
X4.2413Y-3.0846
X4.2717Y-2.9417
X4.2823Y-3.2209
X4.2878Y-2.4539
X4.3315Y-3.4051
X4.3429Y-3.335
X4.3531Y-2.7815
X4.3606Y-3.1402
X4.376Y-3.4933
X4.3772Y-3.0142
X4.3917Y-3.6858
X4.4217Y-2.6413
X4.4331Y-3.8677
X4.4362Y-3.324
X4.4441Y-3.4866
X4.4457Y-3.5551
X4.4472Y-3.0339
X4.4484Y-3.2236
X4.45Y-2.8535
X4.4508Y-3.1201
X4.4992Y-2.9957
X4.526Y-2.761
X4.5311Y-3.1713
X4.5311Y-3.2638
X4.5331Y-2.8996
X4.5331Y-3.0283
X4.5343Y-3.3583
X4.5949Y-2.7669
X4.5972Y-2.7264
X4.6177Y-3.8016
X4.6295Y-3.7272
X4.6413Y-3.8713
X4.6441Y-3.5756
X4.678Y-3.3087
X4.7024Y-3.1205
X4.7177Y-3.5457
X4.7366Y-2.9091
X4.7457Y-2.7949
X4.7559Y-3.8165
X4.7654Y-3.6047
X4.7689Y-3.0031
X4.7898Y-2.8531
X4.7937Y-3.7618
X4.8287Y-3.1118
X4.8291Y-2.9205
X4.837Y-2.5791
X4.8681Y-2.7571
X4.8689Y-3.0516
X4.8937Y-3.8906
X4.9063Y-2.5791
X4.9071Y-3.1205
X4.9079Y-2.8244
X4.915Y-3.1803
X4.9457Y-3.3809
X4.9469Y-2.7551
X4.9484Y-3.0425
X4.9661Y-2.5878
X4.9776Y-2.6256
X4.9783Y-2.2209
X4.9835Y-2.6819
X4.9862Y-2.8236
X4.989Y-3.1161
X5.0004Y-3.4886
X5.002Y-3.5583
X5.0268Y-2.948
X5.0646Y-3.4889
X5.0661Y-3.0114
X5.0763Y-3.7084
X5.0769Y-3.6603
X5.1062Y-3.6883
X5.1122Y-2.8996
X5.1193Y-2.6626
X5.1252Y-3.7161
X5.1328Y-3.6618
X5.1665Y-2.7673
X5.1665Y-2.8457
X5.1713Y-3.387
X5.176Y-2.6531
X5.2437Y-2.6508
X5.2441Y-3.7406
X5.2724Y-3.1602
X5.3039Y-3.3118
X5.328Y-3.0642
X5.3327Y-3.6976
X5.3575Y-3.3232
X5.365Y-3.2457
X5.3705Y-3.4004
X5.374Y-3.0047
X5.3937Y-3.8768
X5.4047Y-2.4575
X5.415Y-3.1827
X5.4409Y-2.7949
X5.448Y-3.1189
X5.5362Y-2.9012
X5.539Y-2.652
X5.5406Y-2.7937
X5.5547Y-2.439
X5.5681Y-2.6539
X5.5941Y-2.7815
X5.598Y-2.5531
X5.6185Y-2.8992
X5.6575Y-2.4484
X5.6776Y-2.5638
X5.6831Y-3.0724
X5.7126Y-2.6626
X5.7421Y-3.0598
X5.772Y-2.7921
X5.7803Y-2.4858
X5.7823Y-2.9126
X5.7862Y-2.6681
X5.787Y-3.0402
X5.7965Y-2.6177
T3
X4.5913Y-3.2051
X4.5921Y-3.1602
X5.424Y-3.6618
X5.4244Y-3.472
X5.4248Y-3.4319
X5.4248Y-3.7035
T4
X4.6575Y-2.237
X4.7165Y-2.237
X4.7756Y-2.237
X4.8346Y-2.237
T5
X4.398Y-3.1846
X4.398Y-3.2634
X4.5Y-3.6598
X4.5Y-3.7386
X5.4803Y-2.5169
X5.4819Y-2.7386
X5.4823Y-2.9583
X5.5591Y-2.5169
X5.5606Y-2.7386
X5.561Y-2.9583
X5.6378Y-2.5169
X5.6394Y-2.7386
X5.6398Y-2.9583
X5.7165Y-2.5169
X5.7181Y-2.7386
X5.7185Y-2.9583
T6
X4.115Y-2.7441
X4.115Y-2.8622
T7
X4.5689Y-3.4445
X4.6689Y-3.4445
M30
